M48
; DRILL file {KiCad 7.0.5-0} date 2023 June 15, Thursday 01:07:30
; FORMAT={-:-/ absolute / inch / decimal}
; #@! TF.CreationDate,2023-06-15T01:07:30+01:00
; #@! TF.GenerationSoftware,Kicad,Pcbnew,7.0.5-0
; #@! TF.FileFunction,Plated,1,2,PTH
FMAT,2
INCH
; #@! TA.AperFunction,Plated,PTH,ComponentDrill
T1C0.0197
; #@! TA.AperFunction,Plated,PTH,ComponentDrill
T2C0.0236
; #@! TA.AperFunction,Plated,PTH,ComponentDrill
T3C0.0256
; #@! TA.AperFunction,Plated,PTH,ComponentDrill
T4C0.0315
; #@! TA.AperFunction,Plated,PTH,ComponentDrill
T5C0.0354
; #@! TA.AperFunction,Plated,PTH,ComponentDrill
T6C0.0394
%
G90
G05
T1
X2.4Y-0.7031
X2.4Y-0.7425
X2.4Y-0.7819
X2.4Y-0.8213
X2.4Y-0.8606
X2.4Y-0.9
T4
X0.7Y-1.7
X0.8Y-2.739
X0.8Y-2.9
X0.8Y-3.061
X0.8969Y-1.7
X0.9Y-0.7
X0.9Y-0.8
X0.9Y-0.9
X0.9Y-1.0
X0.9Y-1.1
X0.9Y-1.2
X0.9Y-1.3
X1.0Y-2.739
X1.0Y-2.9
X1.0Y-3.061
X1.1Y-1.7
X1.2Y-0.7
X1.2Y-0.8
X1.2Y-0.9
X1.2Y-1.0
X1.2Y-1.1
X1.2Y-1.2
X1.2Y-1.3
X1.2969Y-1.7
X1.6Y-0.7
X1.6Y-0.8
X1.6Y-0.9
X1.6Y-1.0
X1.6Y-1.1
X1.6Y-1.2
X1.6Y-1.3
X1.6Y-1.4
X1.6Y-1.5
X1.6Y-1.6
X1.6Y-1.7
X1.6Y-1.8
X1.6Y-1.9
X1.6Y-2.0
X1.6Y-2.1
X1.6Y-2.2
X1.6Y-2.3
X1.6Y-2.4
X1.6Y-2.5
X1.6Y-2.6
X2.2Y-0.7
X2.2Y-0.8
X2.2Y-0.9
X2.2Y-1.0
X2.2Y-1.1
X2.2Y-1.2
X2.2Y-1.3
X2.2Y-1.4
X2.2Y-1.5
X2.2Y-1.6
X2.2Y-1.7
X2.2Y-1.8
X2.2Y-1.9
X2.2Y-2.0
X2.2Y-2.1
X2.2Y-2.2
X2.2Y-2.3
X2.2Y-2.4
X2.2Y-2.5
X2.2Y-2.6
T5
X1.6Y-3.0
X1.7Y-3.0
X2.1Y-3.0
X2.2Y-3.0
T6
X2.9286Y-1.5657
X2.9286Y-1.6657
X2.9286Y-1.7657
X2.9286Y-1.8657
X2.9286Y-1.9657
X2.9286Y-2.0657
X2.9286Y-2.1657
X2.9286Y-2.2657
X2.9286Y-2.3657
X2.9286Y-2.4657
X2.9286Y-2.5657
X2.9286Y-2.6657
X2.9286Y-2.7657
X2.9286Y-2.8657
X3.5286Y-1.5657
X3.5286Y-1.6657
X3.5286Y-1.7657
X3.5286Y-1.8657
X3.5286Y-1.9657
X3.5286Y-2.0657
X3.5286Y-2.1657
X3.5286Y-2.2657
X3.5286Y-2.3657
X3.5286Y-2.4657
X3.5286Y-2.5657
X3.5286Y-2.6657
X3.5286Y-2.7657
X3.5286Y-2.8657
T2
G00X0.6138Y-0.8356
M15
G01X0.5862Y-0.8356
M16
G05
G00X0.6138Y-1.1644
M15
G01X0.5862Y-1.1644
M16
G05
T3
G00X0.722Y-0.9124
M15
G01X0.7142Y-0.9124
M16
G05
G00X0.722Y-1.0876
M15
G01X0.7142Y-1.0876
M16
G05
T0
M30
