%TF.GenerationSoftware,KiCad,Pcbnew,7.0.5-0*%
%TF.CreationDate,2023-06-15T01:07:35+01:00*%
%TF.ProjectId,EEPROM Programmer,45455052-4f4d-4205-9072-6f6772616d6d,rev?*%
%TF.SameCoordinates,Original*%
%TF.FileFunction,Drillmap*%
%TF.FilePolarity,Positive*%
%FSLAX45Y45*%
G04 Gerber Fmt 4.5, Leading zero omitted, Abs format (unit mm)*
G04 Created by KiCad (PCBNEW 7.0.5-0) date 2023-06-15 01:07:35*
%MOMM*%
%LPD*%
G01*
G04 APERTURE LIST*
%ADD10C,0.100000*%
%ADD11C,0.200000*%
%ADD12C,0.050000*%
%ADD13C,0.060000*%
%ADD14C,0.065000*%
%ADD15C,0.080000*%
%ADD16C,0.090000*%
G04 APERTURE END LIST*
D10*
X9906000Y-8636000D02*
X1270000Y-8636000D01*
X1270000Y-1270000D01*
X9906000Y-1270000D01*
X9906000Y-8636000D01*
D11*
D12*
X6071000Y-1761000D02*
X6121000Y-1811000D01*
X6121000Y-1761000D02*
X6071000Y-1811000D01*
X6071000Y-1861000D02*
X6121000Y-1911000D01*
X6121000Y-1861000D02*
X6071000Y-1911000D01*
X6071000Y-1961000D02*
X6121000Y-2011000D01*
X6121000Y-1961000D02*
X6071000Y-2011000D01*
X6071000Y-2061000D02*
X6121000Y-2111000D01*
X6121000Y-2061000D02*
X6071000Y-2111000D01*
X6071000Y-2161000D02*
X6121000Y-2211000D01*
X6121000Y-2161000D02*
X6071000Y-2211000D01*
X6071000Y-2261000D02*
X6121000Y-2311000D01*
X6121000Y-2261000D02*
X6071000Y-2311000D01*
D13*
X1554000Y-2122500D02*
G75*
G03*
X1554000Y-2122500I-30000J0D01*
G01*
D11*
X1559000Y-2092500D02*
X1489000Y-2092500D01*
X1489000Y-2092500D02*
G75*
G03*
X1489000Y-2152500I0J-30000D01*
G01*
X1489000Y-2152500D02*
X1559000Y-2152500D01*
X1559000Y-2152500D02*
G75*
G03*
X1559000Y-2092500I0J30000D01*
G01*
D13*
X1554000Y-2957500D02*
G75*
G03*
X1554000Y-2957500I-30000J0D01*
G01*
D11*
X1559000Y-2927500D02*
X1489000Y-2927500D01*
X1489000Y-2927500D02*
G75*
G03*
X1489000Y-2987500I0J-30000D01*
G01*
X1489000Y-2987500D02*
X1559000Y-2987500D01*
X1559000Y-2987500D02*
G75*
G03*
X1559000Y-2927500I0J30000D01*
G01*
D14*
X1824000Y-2285000D02*
X1824000Y-2350000D01*
X1791500Y-2317500D02*
X1856500Y-2317500D01*
D11*
X1834000Y-2285000D02*
X1814000Y-2285000D01*
X1814000Y-2285000D02*
G75*
G03*
X1814000Y-2350000I0J-32500D01*
G01*
X1814000Y-2350000D02*
X1834000Y-2350000D01*
X1834000Y-2350000D02*
G75*
G03*
X1834000Y-2285000I0J32500D01*
G01*
D14*
X1824000Y-2730000D02*
X1824000Y-2795000D01*
X1791500Y-2762500D02*
X1856500Y-2762500D01*
D11*
X1834000Y-2730000D02*
X1814000Y-2730000D01*
X1814000Y-2730000D02*
G75*
G03*
X1814000Y-2795000I0J-32500D01*
G01*
X1814000Y-2795000D02*
X1834000Y-2795000D01*
X1834000Y-2795000D02*
G75*
G03*
X1834000Y-2730000I0J32500D01*
G01*
D15*
X1806284Y-4346285D02*
X1806284Y-4289716D01*
X1749715Y-4289716D01*
X1749715Y-4346285D01*
X1806284Y-4346285D01*
X2060284Y-6985284D02*
X2060284Y-6928715D01*
X2003715Y-6928715D01*
X2003715Y-6985284D01*
X2060284Y-6985284D01*
X2060284Y-7394284D02*
X2060284Y-7337715D01*
X2003715Y-7337715D01*
X2003715Y-7394284D01*
X2060284Y-7394284D01*
X2060284Y-7803284D02*
X2060284Y-7746715D01*
X2003715Y-7746715D01*
X2003715Y-7803284D01*
X2060284Y-7803284D01*
X2306285Y-4346285D02*
X2306285Y-4289716D01*
X2249716Y-4289716D01*
X2249716Y-4346285D01*
X2306285Y-4346285D01*
X2314285Y-1806284D02*
X2314285Y-1749715D01*
X2257716Y-1749715D01*
X2257716Y-1806284D01*
X2314285Y-1806284D01*
X2314285Y-2060284D02*
X2314285Y-2003715D01*
X2257716Y-2003715D01*
X2257716Y-2060284D01*
X2314285Y-2060284D01*
X2314285Y-2314285D02*
X2314285Y-2257716D01*
X2257716Y-2257716D01*
X2257716Y-2314285D01*
X2314285Y-2314285D01*
X2314285Y-2568285D02*
X2314285Y-2511716D01*
X2257716Y-2511716D01*
X2257716Y-2568285D01*
X2314285Y-2568285D01*
X2314285Y-2822284D02*
X2314285Y-2765716D01*
X2257716Y-2765716D01*
X2257716Y-2822284D01*
X2314285Y-2822284D01*
X2314285Y-3076284D02*
X2314285Y-3019715D01*
X2257716Y-3019715D01*
X2257716Y-3076284D01*
X2314285Y-3076284D01*
X2314285Y-3330284D02*
X2314285Y-3273715D01*
X2257716Y-3273715D01*
X2257716Y-3330284D01*
X2314285Y-3330284D01*
X2568285Y-6985284D02*
X2568285Y-6928715D01*
X2511716Y-6928715D01*
X2511716Y-6985284D01*
X2568285Y-6985284D01*
X2568285Y-7394284D02*
X2568285Y-7337715D01*
X2511716Y-7337715D01*
X2511716Y-7394284D01*
X2568285Y-7394284D01*
X2568285Y-7803284D02*
X2568285Y-7746715D01*
X2511716Y-7746715D01*
X2511716Y-7803284D01*
X2568285Y-7803284D01*
X2822284Y-4346285D02*
X2822284Y-4289716D01*
X2765716Y-4289716D01*
X2765716Y-4346285D01*
X2822284Y-4346285D01*
X3076284Y-1806284D02*
X3076284Y-1749715D01*
X3019715Y-1749715D01*
X3019715Y-1806284D01*
X3076284Y-1806284D01*
X3076284Y-2060284D02*
X3076284Y-2003715D01*
X3019715Y-2003715D01*
X3019715Y-2060284D01*
X3076284Y-2060284D01*
X3076284Y-2314285D02*
X3076284Y-2257716D01*
X3019715Y-2257716D01*
X3019715Y-2314285D01*
X3076284Y-2314285D01*
X3076284Y-2568285D02*
X3076284Y-2511716D01*
X3019715Y-2511716D01*
X3019715Y-2568285D01*
X3076284Y-2568285D01*
X3076284Y-2822284D02*
X3076284Y-2765716D01*
X3019715Y-2765716D01*
X3019715Y-2822284D01*
X3076284Y-2822284D01*
X3076284Y-3076284D02*
X3076284Y-3019715D01*
X3019715Y-3019715D01*
X3019715Y-3076284D01*
X3076284Y-3076284D01*
X3076284Y-3330284D02*
X3076284Y-3273715D01*
X3019715Y-3273715D01*
X3019715Y-3330284D01*
X3076284Y-3330284D01*
X3322284Y-4346285D02*
X3322284Y-4289716D01*
X3265715Y-4289716D01*
X3265715Y-4346285D01*
X3322284Y-4346285D01*
X4092284Y-1806284D02*
X4092284Y-1749715D01*
X4035715Y-1749715D01*
X4035715Y-1806284D01*
X4092284Y-1806284D01*
X4092284Y-2060284D02*
X4092284Y-2003715D01*
X4035715Y-2003715D01*
X4035715Y-2060284D01*
X4092284Y-2060284D01*
X4092284Y-2314285D02*
X4092284Y-2257716D01*
X4035715Y-2257716D01*
X4035715Y-2314285D01*
X4092284Y-2314285D01*
X4092284Y-2568285D02*
X4092284Y-2511716D01*
X4035715Y-2511716D01*
X4035715Y-2568285D01*
X4092284Y-2568285D01*
X4092284Y-2822284D02*
X4092284Y-2765716D01*
X4035715Y-2765716D01*
X4035715Y-2822284D01*
X4092284Y-2822284D01*
X4092284Y-3076284D02*
X4092284Y-3019715D01*
X4035715Y-3019715D01*
X4035715Y-3076284D01*
X4092284Y-3076284D01*
X4092284Y-3330284D02*
X4092284Y-3273715D01*
X4035715Y-3273715D01*
X4035715Y-3330284D01*
X4092284Y-3330284D01*
X4092284Y-3584284D02*
X4092284Y-3527715D01*
X4035715Y-3527715D01*
X4035715Y-3584284D01*
X4092284Y-3584284D01*
X4092284Y-3838284D02*
X4092284Y-3781715D01*
X4035715Y-3781715D01*
X4035715Y-3838284D01*
X4092284Y-3838284D01*
X4092284Y-4092284D02*
X4092284Y-4035715D01*
X4035715Y-4035715D01*
X4035715Y-4092284D01*
X4092284Y-4092284D01*
X4092284Y-4346285D02*
X4092284Y-4289716D01*
X4035715Y-4289716D01*
X4035715Y-4346285D01*
X4092284Y-4346285D01*
X4092284Y-4600285D02*
X4092284Y-4543716D01*
X4035715Y-4543716D01*
X4035715Y-4600285D01*
X4092284Y-4600285D01*
X4092284Y-4854285D02*
X4092284Y-4797716D01*
X4035715Y-4797716D01*
X4035715Y-4854285D01*
X4092284Y-4854285D01*
X4092284Y-5108285D02*
X4092284Y-5051716D01*
X4035715Y-5051716D01*
X4035715Y-5108285D01*
X4092284Y-5108285D01*
X4092284Y-5362285D02*
X4092284Y-5305716D01*
X4035715Y-5305716D01*
X4035715Y-5362285D01*
X4092284Y-5362285D01*
X4092284Y-5616284D02*
X4092284Y-5559716D01*
X4035715Y-5559716D01*
X4035715Y-5616284D01*
X4092284Y-5616284D01*
X4092284Y-5870284D02*
X4092284Y-5813715D01*
X4035715Y-5813715D01*
X4035715Y-5870284D01*
X4092284Y-5870284D01*
X4092284Y-6124284D02*
X4092284Y-6067715D01*
X4035715Y-6067715D01*
X4035715Y-6124284D01*
X4092284Y-6124284D01*
X4092284Y-6378284D02*
X4092284Y-6321715D01*
X4035715Y-6321715D01*
X4035715Y-6378284D01*
X4092284Y-6378284D01*
X4092284Y-6632284D02*
X4092284Y-6575715D01*
X4035715Y-6575715D01*
X4035715Y-6632284D01*
X4092284Y-6632284D01*
X5616284Y-1806284D02*
X5616284Y-1749715D01*
X5559716Y-1749715D01*
X5559716Y-1806284D01*
X5616284Y-1806284D01*
X5616284Y-2060284D02*
X5616284Y-2003715D01*
X5559716Y-2003715D01*
X5559716Y-2060284D01*
X5616284Y-2060284D01*
X5616284Y-2314285D02*
X5616284Y-2257716D01*
X5559716Y-2257716D01*
X5559716Y-2314285D01*
X5616284Y-2314285D01*
X5616284Y-2568285D02*
X5616284Y-2511716D01*
X5559716Y-2511716D01*
X5559716Y-2568285D01*
X5616284Y-2568285D01*
X5616284Y-2822284D02*
X5616284Y-2765716D01*
X5559716Y-2765716D01*
X5559716Y-2822284D01*
X5616284Y-2822284D01*
X5616284Y-3076284D02*
X5616284Y-3019715D01*
X5559716Y-3019715D01*
X5559716Y-3076284D01*
X5616284Y-3076284D01*
X5616284Y-3330284D02*
X5616284Y-3273715D01*
X5559716Y-3273715D01*
X5559716Y-3330284D01*
X5616284Y-3330284D01*
X5616284Y-3584284D02*
X5616284Y-3527715D01*
X5559716Y-3527715D01*
X5559716Y-3584284D01*
X5616284Y-3584284D01*
X5616284Y-3838284D02*
X5616284Y-3781715D01*
X5559716Y-3781715D01*
X5559716Y-3838284D01*
X5616284Y-3838284D01*
X5616284Y-4092284D02*
X5616284Y-4035715D01*
X5559716Y-4035715D01*
X5559716Y-4092284D01*
X5616284Y-4092284D01*
X5616284Y-4346285D02*
X5616284Y-4289716D01*
X5559716Y-4289716D01*
X5559716Y-4346285D01*
X5616284Y-4346285D01*
X5616284Y-4600285D02*
X5616284Y-4543716D01*
X5559716Y-4543716D01*
X5559716Y-4600285D01*
X5616284Y-4600285D01*
X5616284Y-4854285D02*
X5616284Y-4797716D01*
X5559716Y-4797716D01*
X5559716Y-4854285D01*
X5616284Y-4854285D01*
X5616284Y-5108285D02*
X5616284Y-5051716D01*
X5559716Y-5051716D01*
X5559716Y-5108285D01*
X5616284Y-5108285D01*
X5616284Y-5362285D02*
X5616284Y-5305716D01*
X5559716Y-5305716D01*
X5559716Y-5362285D01*
X5616284Y-5362285D01*
X5616284Y-5616284D02*
X5616284Y-5559716D01*
X5559716Y-5559716D01*
X5559716Y-5616284D01*
X5616284Y-5616284D01*
X5616284Y-5870284D02*
X5616284Y-5813715D01*
X5559716Y-5813715D01*
X5559716Y-5870284D01*
X5616284Y-5870284D01*
X5616284Y-6124284D02*
X5616284Y-6067715D01*
X5559716Y-6067715D01*
X5559716Y-6124284D01*
X5616284Y-6124284D01*
X5616284Y-6378284D02*
X5616284Y-6321715D01*
X5559716Y-6321715D01*
X5559716Y-6378284D01*
X5616284Y-6378284D01*
X5616284Y-6632284D02*
X5616284Y-6575715D01*
X5559716Y-6575715D01*
X5559716Y-6632284D01*
X5616284Y-6632284D01*
D16*
X4064000Y-7665000D02*
X4109000Y-7620000D01*
X4064000Y-7575000D01*
X4019000Y-7620000D01*
X4064000Y-7665000D01*
X4318000Y-7665000D02*
X4363000Y-7620000D01*
X4318000Y-7575000D01*
X4273000Y-7620000D01*
X4318000Y-7665000D01*
X5334000Y-7665000D02*
X5379000Y-7620000D01*
X5334000Y-7575000D01*
X5289000Y-7620000D01*
X5334000Y-7665000D01*
X5588000Y-7665000D02*
X5633000Y-7620000D01*
X5588000Y-7575000D01*
X5543000Y-7620000D01*
X5588000Y-7665000D01*
D10*
X7388750Y-3927000D02*
X7488750Y-4027000D01*
X7488750Y-3927000D02*
X7388750Y-4027000D01*
X7488750Y-3977000D02*
G75*
G03*
X7488750Y-3977000I-50000J0D01*
G01*
X7388750Y-4181000D02*
X7488750Y-4281000D01*
X7488750Y-4181000D02*
X7388750Y-4281000D01*
X7488750Y-4231000D02*
G75*
G03*
X7488750Y-4231000I-50000J0D01*
G01*
X7388750Y-4435000D02*
X7488750Y-4535000D01*
X7488750Y-4435000D02*
X7388750Y-4535000D01*
X7488750Y-4485000D02*
G75*
G03*
X7488750Y-4485000I-50000J0D01*
G01*
X7388750Y-4689000D02*
X7488750Y-4789000D01*
X7488750Y-4689000D02*
X7388750Y-4789000D01*
X7488750Y-4739000D02*
G75*
G03*
X7488750Y-4739000I-50000J0D01*
G01*
X7388750Y-4943000D02*
X7488750Y-5043000D01*
X7488750Y-4943000D02*
X7388750Y-5043000D01*
X7488750Y-4993000D02*
G75*
G03*
X7488750Y-4993000I-50000J0D01*
G01*
X7388750Y-5197000D02*
X7488750Y-5297000D01*
X7488750Y-5197000D02*
X7388750Y-5297000D01*
X7488750Y-5247000D02*
G75*
G03*
X7488750Y-5247000I-50000J0D01*
G01*
X7388750Y-5451000D02*
X7488750Y-5551000D01*
X7488750Y-5451000D02*
X7388750Y-5551000D01*
X7488750Y-5501000D02*
G75*
G03*
X7488750Y-5501000I-50000J0D01*
G01*
X7388750Y-5705000D02*
X7488750Y-5805000D01*
X7488750Y-5705000D02*
X7388750Y-5805000D01*
X7488750Y-5755000D02*
G75*
G03*
X7488750Y-5755000I-50000J0D01*
G01*
X7388750Y-5959000D02*
X7488750Y-6059000D01*
X7488750Y-5959000D02*
X7388750Y-6059000D01*
X7488750Y-6009000D02*
G75*
G03*
X7488750Y-6009000I-50000J0D01*
G01*
X7388750Y-6213000D02*
X7488750Y-6313000D01*
X7488750Y-6213000D02*
X7388750Y-6313000D01*
X7488750Y-6263000D02*
G75*
G03*
X7488750Y-6263000I-50000J0D01*
G01*
X7388750Y-6467000D02*
X7488750Y-6567000D01*
X7488750Y-6467000D02*
X7388750Y-6567000D01*
X7488750Y-6517000D02*
G75*
G03*
X7488750Y-6517000I-50000J0D01*
G01*
X7388750Y-6721000D02*
X7488750Y-6821000D01*
X7488750Y-6721000D02*
X7388750Y-6821000D01*
X7488750Y-6771000D02*
G75*
G03*
X7488750Y-6771000I-50000J0D01*
G01*
X7388750Y-6975000D02*
X7488750Y-7075000D01*
X7488750Y-6975000D02*
X7388750Y-7075000D01*
X7488750Y-7025000D02*
G75*
G03*
X7488750Y-7025000I-50000J0D01*
G01*
X7388750Y-7229000D02*
X7488750Y-7329000D01*
X7488750Y-7229000D02*
X7388750Y-7329000D01*
X7488750Y-7279000D02*
G75*
G03*
X7488750Y-7279000I-50000J0D01*
G01*
X8912750Y-3927000D02*
X9012750Y-4027000D01*
X9012750Y-3927000D02*
X8912750Y-4027000D01*
X9012750Y-3977000D02*
G75*
G03*
X9012750Y-3977000I-50000J0D01*
G01*
X8912750Y-4181000D02*
X9012750Y-4281000D01*
X9012750Y-4181000D02*
X8912750Y-4281000D01*
X9012750Y-4231000D02*
G75*
G03*
X9012750Y-4231000I-50000J0D01*
G01*
X8912750Y-4435000D02*
X9012750Y-4535000D01*
X9012750Y-4435000D02*
X8912750Y-4535000D01*
X9012750Y-4485000D02*
G75*
G03*
X9012750Y-4485000I-50000J0D01*
G01*
X8912750Y-4689000D02*
X9012750Y-4789000D01*
X9012750Y-4689000D02*
X8912750Y-4789000D01*
X9012750Y-4739000D02*
G75*
G03*
X9012750Y-4739000I-50000J0D01*
G01*
X8912750Y-4943000D02*
X9012750Y-5043000D01*
X9012750Y-4943000D02*
X8912750Y-5043000D01*
X9012750Y-4993000D02*
G75*
G03*
X9012750Y-4993000I-50000J0D01*
G01*
X8912750Y-5197000D02*
X9012750Y-5297000D01*
X9012750Y-5197000D02*
X8912750Y-5297000D01*
X9012750Y-5247000D02*
G75*
G03*
X9012750Y-5247000I-50000J0D01*
G01*
X8912750Y-5451000D02*
X9012750Y-5551000D01*
X9012750Y-5451000D02*
X8912750Y-5551000D01*
X9012750Y-5501000D02*
G75*
G03*
X9012750Y-5501000I-50000J0D01*
G01*
X8912750Y-5705000D02*
X9012750Y-5805000D01*
X9012750Y-5705000D02*
X8912750Y-5805000D01*
X9012750Y-5755000D02*
G75*
G03*
X9012750Y-5755000I-50000J0D01*
G01*
X8912750Y-5959000D02*
X9012750Y-6059000D01*
X9012750Y-5959000D02*
X8912750Y-6059000D01*
X9012750Y-6009000D02*
G75*
G03*
X9012750Y-6009000I-50000J0D01*
G01*
X8912750Y-6213000D02*
X9012750Y-6313000D01*
X9012750Y-6213000D02*
X8912750Y-6313000D01*
X9012750Y-6263000D02*
G75*
G03*
X9012750Y-6263000I-50000J0D01*
G01*
X8912750Y-6467000D02*
X9012750Y-6567000D01*
X9012750Y-6467000D02*
X8912750Y-6567000D01*
X9012750Y-6517000D02*
G75*
G03*
X9012750Y-6517000I-50000J0D01*
G01*
X8912750Y-6721000D02*
X9012750Y-6821000D01*
X9012750Y-6721000D02*
X8912750Y-6821000D01*
X9012750Y-6771000D02*
G75*
G03*
X9012750Y-6771000I-50000J0D01*
G01*
X8912750Y-6975000D02*
X9012750Y-7075000D01*
X9012750Y-6975000D02*
X8912750Y-7075000D01*
X9012750Y-7025000D02*
G75*
G03*
X9012750Y-7025000I-50000J0D01*
G01*
X8912750Y-7229000D02*
X9012750Y-7329000D01*
X9012750Y-7229000D02*
X8912750Y-7329000D01*
X9012750Y-7279000D02*
G75*
G03*
X9012750Y-7279000I-50000J0D01*
G01*
D11*
X1525777Y-8952484D02*
X1525777Y-8752484D01*
X1525777Y-8752484D02*
X1573396Y-8752484D01*
X1573396Y-8752484D02*
X1601967Y-8762008D01*
X1601967Y-8762008D02*
X1621015Y-8781055D01*
X1621015Y-8781055D02*
X1630539Y-8800103D01*
X1630539Y-8800103D02*
X1640062Y-8838198D01*
X1640062Y-8838198D02*
X1640062Y-8866770D01*
X1640062Y-8866770D02*
X1630539Y-8904865D01*
X1630539Y-8904865D02*
X1621015Y-8923912D01*
X1621015Y-8923912D02*
X1601967Y-8942960D01*
X1601967Y-8942960D02*
X1573396Y-8952484D01*
X1573396Y-8952484D02*
X1525777Y-8952484D01*
X1725777Y-8952484D02*
X1725777Y-8819150D01*
X1725777Y-8857246D02*
X1735301Y-8838198D01*
X1735301Y-8838198D02*
X1744824Y-8828674D01*
X1744824Y-8828674D02*
X1763872Y-8819150D01*
X1763872Y-8819150D02*
X1782920Y-8819150D01*
X1849586Y-8952484D02*
X1849586Y-8819150D01*
X1849586Y-8752484D02*
X1840062Y-8762008D01*
X1840062Y-8762008D02*
X1849586Y-8771531D01*
X1849586Y-8771531D02*
X1859110Y-8762008D01*
X1859110Y-8762008D02*
X1849586Y-8752484D01*
X1849586Y-8752484D02*
X1849586Y-8771531D01*
X1973396Y-8952484D02*
X1954348Y-8942960D01*
X1954348Y-8942960D02*
X1944824Y-8923912D01*
X1944824Y-8923912D02*
X1944824Y-8752484D01*
X2078158Y-8952484D02*
X2059110Y-8942960D01*
X2059110Y-8942960D02*
X2049586Y-8923912D01*
X2049586Y-8923912D02*
X2049586Y-8752484D01*
X2306729Y-8952484D02*
X2306729Y-8752484D01*
X2306729Y-8752484D02*
X2373396Y-8895341D01*
X2373396Y-8895341D02*
X2440063Y-8752484D01*
X2440063Y-8752484D02*
X2440063Y-8952484D01*
X2621015Y-8952484D02*
X2621015Y-8847722D01*
X2621015Y-8847722D02*
X2611491Y-8828674D01*
X2611491Y-8828674D02*
X2592444Y-8819150D01*
X2592444Y-8819150D02*
X2554348Y-8819150D01*
X2554348Y-8819150D02*
X2535301Y-8828674D01*
X2621015Y-8942960D02*
X2601967Y-8952484D01*
X2601967Y-8952484D02*
X2554348Y-8952484D01*
X2554348Y-8952484D02*
X2535301Y-8942960D01*
X2535301Y-8942960D02*
X2525777Y-8923912D01*
X2525777Y-8923912D02*
X2525777Y-8904865D01*
X2525777Y-8904865D02*
X2535301Y-8885817D01*
X2535301Y-8885817D02*
X2554348Y-8876293D01*
X2554348Y-8876293D02*
X2601967Y-8876293D01*
X2601967Y-8876293D02*
X2621015Y-8866770D01*
X2716253Y-8819150D02*
X2716253Y-9019150D01*
X2716253Y-8828674D02*
X2735301Y-8819150D01*
X2735301Y-8819150D02*
X2773396Y-8819150D01*
X2773396Y-8819150D02*
X2792444Y-8828674D01*
X2792444Y-8828674D02*
X2801967Y-8838198D01*
X2801967Y-8838198D02*
X2811491Y-8857246D01*
X2811491Y-8857246D02*
X2811491Y-8914389D01*
X2811491Y-8914389D02*
X2801967Y-8933436D01*
X2801967Y-8933436D02*
X2792444Y-8942960D01*
X2792444Y-8942960D02*
X2773396Y-8952484D01*
X2773396Y-8952484D02*
X2735301Y-8952484D01*
X2735301Y-8952484D02*
X2716253Y-8942960D01*
X2897205Y-8933436D02*
X2906729Y-8942960D01*
X2906729Y-8942960D02*
X2897205Y-8952484D01*
X2897205Y-8952484D02*
X2887682Y-8942960D01*
X2887682Y-8942960D02*
X2897205Y-8933436D01*
X2897205Y-8933436D02*
X2897205Y-8952484D01*
X2897205Y-8828674D02*
X2906729Y-8838198D01*
X2906729Y-8838198D02*
X2897205Y-8847722D01*
X2897205Y-8847722D02*
X2887682Y-8838198D01*
X2887682Y-8838198D02*
X2897205Y-8828674D01*
X2897205Y-8828674D02*
X2897205Y-8847722D01*
D12*
X1215000Y-9256000D02*
X1265000Y-9306000D01*
X1265000Y-9256000D02*
X1215000Y-9306000D01*
D11*
X1563872Y-9172484D02*
X1582920Y-9172484D01*
X1582920Y-9172484D02*
X1601967Y-9182008D01*
X1601967Y-9182008D02*
X1611491Y-9191531D01*
X1611491Y-9191531D02*
X1621015Y-9210579D01*
X1621015Y-9210579D02*
X1630539Y-9248674D01*
X1630539Y-9248674D02*
X1630539Y-9296293D01*
X1630539Y-9296293D02*
X1621015Y-9334389D01*
X1621015Y-9334389D02*
X1611491Y-9353436D01*
X1611491Y-9353436D02*
X1601967Y-9362960D01*
X1601967Y-9362960D02*
X1582920Y-9372484D01*
X1582920Y-9372484D02*
X1563872Y-9372484D01*
X1563872Y-9372484D02*
X1544824Y-9362960D01*
X1544824Y-9362960D02*
X1535301Y-9353436D01*
X1535301Y-9353436D02*
X1525777Y-9334389D01*
X1525777Y-9334389D02*
X1516253Y-9296293D01*
X1516253Y-9296293D02*
X1516253Y-9248674D01*
X1516253Y-9248674D02*
X1525777Y-9210579D01*
X1525777Y-9210579D02*
X1535301Y-9191531D01*
X1535301Y-9191531D02*
X1544824Y-9182008D01*
X1544824Y-9182008D02*
X1563872Y-9172484D01*
X1716253Y-9353436D02*
X1725777Y-9362960D01*
X1725777Y-9362960D02*
X1716253Y-9372484D01*
X1716253Y-9372484D02*
X1706729Y-9362960D01*
X1706729Y-9362960D02*
X1716253Y-9353436D01*
X1716253Y-9353436D02*
X1716253Y-9372484D01*
X1906729Y-9172484D02*
X1811491Y-9172484D01*
X1811491Y-9172484D02*
X1801967Y-9267722D01*
X1801967Y-9267722D02*
X1811491Y-9258198D01*
X1811491Y-9258198D02*
X1830539Y-9248674D01*
X1830539Y-9248674D02*
X1878158Y-9248674D01*
X1878158Y-9248674D02*
X1897205Y-9258198D01*
X1897205Y-9258198D02*
X1906729Y-9267722D01*
X1906729Y-9267722D02*
X1916253Y-9286770D01*
X1916253Y-9286770D02*
X1916253Y-9334389D01*
X1916253Y-9334389D02*
X1906729Y-9353436D01*
X1906729Y-9353436D02*
X1897205Y-9362960D01*
X1897205Y-9362960D02*
X1878158Y-9372484D01*
X1878158Y-9372484D02*
X1830539Y-9372484D01*
X1830539Y-9372484D02*
X1811491Y-9362960D01*
X1811491Y-9362960D02*
X1801967Y-9353436D01*
X2040062Y-9172484D02*
X2059110Y-9172484D01*
X2059110Y-9172484D02*
X2078158Y-9182008D01*
X2078158Y-9182008D02*
X2087682Y-9191531D01*
X2087682Y-9191531D02*
X2097205Y-9210579D01*
X2097205Y-9210579D02*
X2106729Y-9248674D01*
X2106729Y-9248674D02*
X2106729Y-9296293D01*
X2106729Y-9296293D02*
X2097205Y-9334389D01*
X2097205Y-9334389D02*
X2087682Y-9353436D01*
X2087682Y-9353436D02*
X2078158Y-9362960D01*
X2078158Y-9362960D02*
X2059110Y-9372484D01*
X2059110Y-9372484D02*
X2040062Y-9372484D01*
X2040062Y-9372484D02*
X2021015Y-9362960D01*
X2021015Y-9362960D02*
X2011491Y-9353436D01*
X2011491Y-9353436D02*
X2001967Y-9334389D01*
X2001967Y-9334389D02*
X1992443Y-9296293D01*
X1992443Y-9296293D02*
X1992443Y-9248674D01*
X1992443Y-9248674D02*
X2001967Y-9210579D01*
X2001967Y-9210579D02*
X2011491Y-9191531D01*
X2011491Y-9191531D02*
X2021015Y-9182008D01*
X2021015Y-9182008D02*
X2040062Y-9172484D01*
X2230539Y-9172484D02*
X2249586Y-9172484D01*
X2249586Y-9172484D02*
X2268634Y-9182008D01*
X2268634Y-9182008D02*
X2278158Y-9191531D01*
X2278158Y-9191531D02*
X2287682Y-9210579D01*
X2287682Y-9210579D02*
X2297205Y-9248674D01*
X2297205Y-9248674D02*
X2297205Y-9296293D01*
X2297205Y-9296293D02*
X2287682Y-9334389D01*
X2287682Y-9334389D02*
X2278158Y-9353436D01*
X2278158Y-9353436D02*
X2268634Y-9362960D01*
X2268634Y-9362960D02*
X2249586Y-9372484D01*
X2249586Y-9372484D02*
X2230539Y-9372484D01*
X2230539Y-9372484D02*
X2211491Y-9362960D01*
X2211491Y-9362960D02*
X2201967Y-9353436D01*
X2201967Y-9353436D02*
X2192444Y-9334389D01*
X2192444Y-9334389D02*
X2182920Y-9296293D01*
X2182920Y-9296293D02*
X2182920Y-9248674D01*
X2182920Y-9248674D02*
X2192444Y-9210579D01*
X2192444Y-9210579D02*
X2201967Y-9191531D01*
X2201967Y-9191531D02*
X2211491Y-9182008D01*
X2211491Y-9182008D02*
X2230539Y-9172484D01*
X2382920Y-9372484D02*
X2382920Y-9239150D01*
X2382920Y-9258198D02*
X2392444Y-9248674D01*
X2392444Y-9248674D02*
X2411491Y-9239150D01*
X2411491Y-9239150D02*
X2440063Y-9239150D01*
X2440063Y-9239150D02*
X2459110Y-9248674D01*
X2459110Y-9248674D02*
X2468634Y-9267722D01*
X2468634Y-9267722D02*
X2468634Y-9372484D01*
X2468634Y-9267722D02*
X2478158Y-9248674D01*
X2478158Y-9248674D02*
X2497205Y-9239150D01*
X2497205Y-9239150D02*
X2525777Y-9239150D01*
X2525777Y-9239150D02*
X2544825Y-9248674D01*
X2544825Y-9248674D02*
X2554348Y-9267722D01*
X2554348Y-9267722D02*
X2554348Y-9372484D01*
X2649586Y-9372484D02*
X2649586Y-9239150D01*
X2649586Y-9258198D02*
X2659110Y-9248674D01*
X2659110Y-9248674D02*
X2678158Y-9239150D01*
X2678158Y-9239150D02*
X2706729Y-9239150D01*
X2706729Y-9239150D02*
X2725777Y-9248674D01*
X2725777Y-9248674D02*
X2735301Y-9267722D01*
X2735301Y-9267722D02*
X2735301Y-9372484D01*
X2735301Y-9267722D02*
X2744825Y-9248674D01*
X2744825Y-9248674D02*
X2763872Y-9239150D01*
X2763872Y-9239150D02*
X2792444Y-9239150D01*
X2792444Y-9239150D02*
X2811491Y-9248674D01*
X2811491Y-9248674D02*
X2821015Y-9267722D01*
X2821015Y-9267722D02*
X2821015Y-9372484D01*
X3211491Y-9162960D02*
X3040063Y-9420103D01*
X3468634Y-9172484D02*
X3487682Y-9172484D01*
X3487682Y-9172484D02*
X3506729Y-9182008D01*
X3506729Y-9182008D02*
X3516253Y-9191531D01*
X3516253Y-9191531D02*
X3525777Y-9210579D01*
X3525777Y-9210579D02*
X3535301Y-9248674D01*
X3535301Y-9248674D02*
X3535301Y-9296293D01*
X3535301Y-9296293D02*
X3525777Y-9334389D01*
X3525777Y-9334389D02*
X3516253Y-9353436D01*
X3516253Y-9353436D02*
X3506729Y-9362960D01*
X3506729Y-9362960D02*
X3487682Y-9372484D01*
X3487682Y-9372484D02*
X3468634Y-9372484D01*
X3468634Y-9372484D02*
X3449586Y-9362960D01*
X3449586Y-9362960D02*
X3440063Y-9353436D01*
X3440063Y-9353436D02*
X3430539Y-9334389D01*
X3430539Y-9334389D02*
X3421015Y-9296293D01*
X3421015Y-9296293D02*
X3421015Y-9248674D01*
X3421015Y-9248674D02*
X3430539Y-9210579D01*
X3430539Y-9210579D02*
X3440063Y-9191531D01*
X3440063Y-9191531D02*
X3449586Y-9182008D01*
X3449586Y-9182008D02*
X3468634Y-9172484D01*
X3621015Y-9353436D02*
X3630539Y-9362960D01*
X3630539Y-9362960D02*
X3621015Y-9372484D01*
X3621015Y-9372484D02*
X3611491Y-9362960D01*
X3611491Y-9362960D02*
X3621015Y-9353436D01*
X3621015Y-9353436D02*
X3621015Y-9372484D01*
X3754348Y-9172484D02*
X3773396Y-9172484D01*
X3773396Y-9172484D02*
X3792444Y-9182008D01*
X3792444Y-9182008D02*
X3801967Y-9191531D01*
X3801967Y-9191531D02*
X3811491Y-9210579D01*
X3811491Y-9210579D02*
X3821015Y-9248674D01*
X3821015Y-9248674D02*
X3821015Y-9296293D01*
X3821015Y-9296293D02*
X3811491Y-9334389D01*
X3811491Y-9334389D02*
X3801967Y-9353436D01*
X3801967Y-9353436D02*
X3792444Y-9362960D01*
X3792444Y-9362960D02*
X3773396Y-9372484D01*
X3773396Y-9372484D02*
X3754348Y-9372484D01*
X3754348Y-9372484D02*
X3735301Y-9362960D01*
X3735301Y-9362960D02*
X3725777Y-9353436D01*
X3725777Y-9353436D02*
X3716253Y-9334389D01*
X3716253Y-9334389D02*
X3706729Y-9296293D01*
X3706729Y-9296293D02*
X3706729Y-9248674D01*
X3706729Y-9248674D02*
X3716253Y-9210579D01*
X3716253Y-9210579D02*
X3725777Y-9191531D01*
X3725777Y-9191531D02*
X3735301Y-9182008D01*
X3735301Y-9182008D02*
X3754348Y-9172484D01*
X4011491Y-9372484D02*
X3897206Y-9372484D01*
X3954348Y-9372484D02*
X3954348Y-9172484D01*
X3954348Y-9172484D02*
X3935301Y-9201055D01*
X3935301Y-9201055D02*
X3916253Y-9220103D01*
X3916253Y-9220103D02*
X3897206Y-9229627D01*
X4106729Y-9372484D02*
X4144825Y-9372484D01*
X4144825Y-9372484D02*
X4163872Y-9362960D01*
X4163872Y-9362960D02*
X4173396Y-9353436D01*
X4173396Y-9353436D02*
X4192444Y-9324865D01*
X4192444Y-9324865D02*
X4201968Y-9286770D01*
X4201968Y-9286770D02*
X4201968Y-9210579D01*
X4201968Y-9210579D02*
X4192444Y-9191531D01*
X4192444Y-9191531D02*
X4182920Y-9182008D01*
X4182920Y-9182008D02*
X4163872Y-9172484D01*
X4163872Y-9172484D02*
X4125777Y-9172484D01*
X4125777Y-9172484D02*
X4106729Y-9182008D01*
X4106729Y-9182008D02*
X4097206Y-9191531D01*
X4097206Y-9191531D02*
X4087682Y-9210579D01*
X4087682Y-9210579D02*
X4087682Y-9258198D01*
X4087682Y-9258198D02*
X4097206Y-9277246D01*
X4097206Y-9277246D02*
X4106729Y-9286770D01*
X4106729Y-9286770D02*
X4125777Y-9296293D01*
X4125777Y-9296293D02*
X4163872Y-9296293D01*
X4163872Y-9296293D02*
X4182920Y-9286770D01*
X4182920Y-9286770D02*
X4192444Y-9277246D01*
X4192444Y-9277246D02*
X4201968Y-9258198D01*
X4268634Y-9172484D02*
X4401968Y-9172484D01*
X4401968Y-9172484D02*
X4316253Y-9372484D01*
X4468634Y-9172484D02*
X4468634Y-9210579D01*
X4544825Y-9172484D02*
X4544825Y-9210579D01*
X4840063Y-9448674D02*
X4830539Y-9439150D01*
X4830539Y-9439150D02*
X4811491Y-9410579D01*
X4811491Y-9410579D02*
X4801968Y-9391531D01*
X4801968Y-9391531D02*
X4792444Y-9362960D01*
X4792444Y-9362960D02*
X4782920Y-9315341D01*
X4782920Y-9315341D02*
X4782920Y-9277246D01*
X4782920Y-9277246D02*
X4792444Y-9229627D01*
X4792444Y-9229627D02*
X4801968Y-9201055D01*
X4801968Y-9201055D02*
X4811491Y-9182008D01*
X4811491Y-9182008D02*
X4830539Y-9153436D01*
X4830539Y-9153436D02*
X4840063Y-9143912D01*
X5001968Y-9172484D02*
X4963872Y-9172484D01*
X4963872Y-9172484D02*
X4944825Y-9182008D01*
X4944825Y-9182008D02*
X4935301Y-9191531D01*
X4935301Y-9191531D02*
X4916253Y-9220103D01*
X4916253Y-9220103D02*
X4906730Y-9258198D01*
X4906730Y-9258198D02*
X4906730Y-9334389D01*
X4906730Y-9334389D02*
X4916253Y-9353436D01*
X4916253Y-9353436D02*
X4925777Y-9362960D01*
X4925777Y-9362960D02*
X4944825Y-9372484D01*
X4944825Y-9372484D02*
X4982920Y-9372484D01*
X4982920Y-9372484D02*
X5001968Y-9362960D01*
X5001968Y-9362960D02*
X5011491Y-9353436D01*
X5011491Y-9353436D02*
X5021015Y-9334389D01*
X5021015Y-9334389D02*
X5021015Y-9286770D01*
X5021015Y-9286770D02*
X5011491Y-9267722D01*
X5011491Y-9267722D02*
X5001968Y-9258198D01*
X5001968Y-9258198D02*
X4982920Y-9248674D01*
X4982920Y-9248674D02*
X4944825Y-9248674D01*
X4944825Y-9248674D02*
X4925777Y-9258198D01*
X4925777Y-9258198D02*
X4916253Y-9267722D01*
X4916253Y-9267722D02*
X4906730Y-9286770D01*
X5259111Y-9372484D02*
X5259111Y-9172484D01*
X5344825Y-9372484D02*
X5344825Y-9267722D01*
X5344825Y-9267722D02*
X5335301Y-9248674D01*
X5335301Y-9248674D02*
X5316253Y-9239150D01*
X5316253Y-9239150D02*
X5287682Y-9239150D01*
X5287682Y-9239150D02*
X5268634Y-9248674D01*
X5268634Y-9248674D02*
X5259111Y-9258198D01*
X5468634Y-9372484D02*
X5449587Y-9362960D01*
X5449587Y-9362960D02*
X5440063Y-9353436D01*
X5440063Y-9353436D02*
X5430539Y-9334389D01*
X5430539Y-9334389D02*
X5430539Y-9277246D01*
X5430539Y-9277246D02*
X5440063Y-9258198D01*
X5440063Y-9258198D02*
X5449587Y-9248674D01*
X5449587Y-9248674D02*
X5468634Y-9239150D01*
X5468634Y-9239150D02*
X5497206Y-9239150D01*
X5497206Y-9239150D02*
X5516253Y-9248674D01*
X5516253Y-9248674D02*
X5525777Y-9258198D01*
X5525777Y-9258198D02*
X5535301Y-9277246D01*
X5535301Y-9277246D02*
X5535301Y-9334389D01*
X5535301Y-9334389D02*
X5525777Y-9353436D01*
X5525777Y-9353436D02*
X5516253Y-9362960D01*
X5516253Y-9362960D02*
X5497206Y-9372484D01*
X5497206Y-9372484D02*
X5468634Y-9372484D01*
X5649587Y-9372484D02*
X5630539Y-9362960D01*
X5630539Y-9362960D02*
X5621015Y-9343912D01*
X5621015Y-9343912D02*
X5621015Y-9172484D01*
X5801968Y-9362960D02*
X5782920Y-9372484D01*
X5782920Y-9372484D02*
X5744825Y-9372484D01*
X5744825Y-9372484D02*
X5725777Y-9362960D01*
X5725777Y-9362960D02*
X5716253Y-9343912D01*
X5716253Y-9343912D02*
X5716253Y-9267722D01*
X5716253Y-9267722D02*
X5725777Y-9248674D01*
X5725777Y-9248674D02*
X5744825Y-9239150D01*
X5744825Y-9239150D02*
X5782920Y-9239150D01*
X5782920Y-9239150D02*
X5801968Y-9248674D01*
X5801968Y-9248674D02*
X5811491Y-9267722D01*
X5811491Y-9267722D02*
X5811491Y-9286770D01*
X5811491Y-9286770D02*
X5716253Y-9305817D01*
X5887682Y-9362960D02*
X5906730Y-9372484D01*
X5906730Y-9372484D02*
X5944825Y-9372484D01*
X5944825Y-9372484D02*
X5963872Y-9362960D01*
X5963872Y-9362960D02*
X5973396Y-9343912D01*
X5973396Y-9343912D02*
X5973396Y-9334389D01*
X5973396Y-9334389D02*
X5963872Y-9315341D01*
X5963872Y-9315341D02*
X5944825Y-9305817D01*
X5944825Y-9305817D02*
X5916253Y-9305817D01*
X5916253Y-9305817D02*
X5897206Y-9296293D01*
X5897206Y-9296293D02*
X5887682Y-9277246D01*
X5887682Y-9277246D02*
X5887682Y-9267722D01*
X5887682Y-9267722D02*
X5897206Y-9248674D01*
X5897206Y-9248674D02*
X5916253Y-9239150D01*
X5916253Y-9239150D02*
X5944825Y-9239150D01*
X5944825Y-9239150D02*
X5963872Y-9248674D01*
X6040063Y-9448674D02*
X6049587Y-9439150D01*
X6049587Y-9439150D02*
X6068634Y-9410579D01*
X6068634Y-9410579D02*
X6078158Y-9391531D01*
X6078158Y-9391531D02*
X6087682Y-9362960D01*
X6087682Y-9362960D02*
X6097206Y-9315341D01*
X6097206Y-9315341D02*
X6097206Y-9277246D01*
X6097206Y-9277246D02*
X6087682Y-9229627D01*
X6087682Y-9229627D02*
X6078158Y-9201055D01*
X6078158Y-9201055D02*
X6068634Y-9182008D01*
X6068634Y-9182008D02*
X6049587Y-9153436D01*
X6049587Y-9153436D02*
X6040063Y-9143912D01*
D13*
X1265000Y-9545000D02*
G75*
G03*
X1265000Y-9545000I-30000J0D01*
G01*
D11*
X1563872Y-9436484D02*
X1582920Y-9436484D01*
X1582920Y-9436484D02*
X1601967Y-9446008D01*
X1601967Y-9446008D02*
X1611491Y-9455531D01*
X1611491Y-9455531D02*
X1621015Y-9474579D01*
X1621015Y-9474579D02*
X1630539Y-9512674D01*
X1630539Y-9512674D02*
X1630539Y-9560293D01*
X1630539Y-9560293D02*
X1621015Y-9598389D01*
X1621015Y-9598389D02*
X1611491Y-9617436D01*
X1611491Y-9617436D02*
X1601967Y-9626960D01*
X1601967Y-9626960D02*
X1582920Y-9636484D01*
X1582920Y-9636484D02*
X1563872Y-9636484D01*
X1563872Y-9636484D02*
X1544824Y-9626960D01*
X1544824Y-9626960D02*
X1535301Y-9617436D01*
X1535301Y-9617436D02*
X1525777Y-9598389D01*
X1525777Y-9598389D02*
X1516253Y-9560293D01*
X1516253Y-9560293D02*
X1516253Y-9512674D01*
X1516253Y-9512674D02*
X1525777Y-9474579D01*
X1525777Y-9474579D02*
X1535301Y-9455531D01*
X1535301Y-9455531D02*
X1544824Y-9446008D01*
X1544824Y-9446008D02*
X1563872Y-9436484D01*
X1716253Y-9617436D02*
X1725777Y-9626960D01*
X1725777Y-9626960D02*
X1716253Y-9636484D01*
X1716253Y-9636484D02*
X1706729Y-9626960D01*
X1706729Y-9626960D02*
X1716253Y-9617436D01*
X1716253Y-9617436D02*
X1716253Y-9636484D01*
X1897205Y-9436484D02*
X1859110Y-9436484D01*
X1859110Y-9436484D02*
X1840062Y-9446008D01*
X1840062Y-9446008D02*
X1830539Y-9455531D01*
X1830539Y-9455531D02*
X1811491Y-9484103D01*
X1811491Y-9484103D02*
X1801967Y-9522198D01*
X1801967Y-9522198D02*
X1801967Y-9598389D01*
X1801967Y-9598389D02*
X1811491Y-9617436D01*
X1811491Y-9617436D02*
X1821015Y-9626960D01*
X1821015Y-9626960D02*
X1840062Y-9636484D01*
X1840062Y-9636484D02*
X1878158Y-9636484D01*
X1878158Y-9636484D02*
X1897205Y-9626960D01*
X1897205Y-9626960D02*
X1906729Y-9617436D01*
X1906729Y-9617436D02*
X1916253Y-9598389D01*
X1916253Y-9598389D02*
X1916253Y-9550770D01*
X1916253Y-9550770D02*
X1906729Y-9531722D01*
X1906729Y-9531722D02*
X1897205Y-9522198D01*
X1897205Y-9522198D02*
X1878158Y-9512674D01*
X1878158Y-9512674D02*
X1840062Y-9512674D01*
X1840062Y-9512674D02*
X1821015Y-9522198D01*
X1821015Y-9522198D02*
X1811491Y-9531722D01*
X1811491Y-9531722D02*
X1801967Y-9550770D01*
X2040062Y-9436484D02*
X2059110Y-9436484D01*
X2059110Y-9436484D02*
X2078158Y-9446008D01*
X2078158Y-9446008D02*
X2087682Y-9455531D01*
X2087682Y-9455531D02*
X2097205Y-9474579D01*
X2097205Y-9474579D02*
X2106729Y-9512674D01*
X2106729Y-9512674D02*
X2106729Y-9560293D01*
X2106729Y-9560293D02*
X2097205Y-9598389D01*
X2097205Y-9598389D02*
X2087682Y-9617436D01*
X2087682Y-9617436D02*
X2078158Y-9626960D01*
X2078158Y-9626960D02*
X2059110Y-9636484D01*
X2059110Y-9636484D02*
X2040062Y-9636484D01*
X2040062Y-9636484D02*
X2021015Y-9626960D01*
X2021015Y-9626960D02*
X2011491Y-9617436D01*
X2011491Y-9617436D02*
X2001967Y-9598389D01*
X2001967Y-9598389D02*
X1992443Y-9560293D01*
X1992443Y-9560293D02*
X1992443Y-9512674D01*
X1992443Y-9512674D02*
X2001967Y-9474579D01*
X2001967Y-9474579D02*
X2011491Y-9455531D01*
X2011491Y-9455531D02*
X2021015Y-9446008D01*
X2021015Y-9446008D02*
X2040062Y-9436484D01*
X2230539Y-9436484D02*
X2249586Y-9436484D01*
X2249586Y-9436484D02*
X2268634Y-9446008D01*
X2268634Y-9446008D02*
X2278158Y-9455531D01*
X2278158Y-9455531D02*
X2287682Y-9474579D01*
X2287682Y-9474579D02*
X2297205Y-9512674D01*
X2297205Y-9512674D02*
X2297205Y-9560293D01*
X2297205Y-9560293D02*
X2287682Y-9598389D01*
X2287682Y-9598389D02*
X2278158Y-9617436D01*
X2278158Y-9617436D02*
X2268634Y-9626960D01*
X2268634Y-9626960D02*
X2249586Y-9636484D01*
X2249586Y-9636484D02*
X2230539Y-9636484D01*
X2230539Y-9636484D02*
X2211491Y-9626960D01*
X2211491Y-9626960D02*
X2201967Y-9617436D01*
X2201967Y-9617436D02*
X2192444Y-9598389D01*
X2192444Y-9598389D02*
X2182920Y-9560293D01*
X2182920Y-9560293D02*
X2182920Y-9512674D01*
X2182920Y-9512674D02*
X2192444Y-9474579D01*
X2192444Y-9474579D02*
X2201967Y-9455531D01*
X2201967Y-9455531D02*
X2211491Y-9446008D01*
X2211491Y-9446008D02*
X2230539Y-9436484D01*
X2382920Y-9636484D02*
X2382920Y-9503150D01*
X2382920Y-9522198D02*
X2392444Y-9512674D01*
X2392444Y-9512674D02*
X2411491Y-9503150D01*
X2411491Y-9503150D02*
X2440063Y-9503150D01*
X2440063Y-9503150D02*
X2459110Y-9512674D01*
X2459110Y-9512674D02*
X2468634Y-9531722D01*
X2468634Y-9531722D02*
X2468634Y-9636484D01*
X2468634Y-9531722D02*
X2478158Y-9512674D01*
X2478158Y-9512674D02*
X2497205Y-9503150D01*
X2497205Y-9503150D02*
X2525777Y-9503150D01*
X2525777Y-9503150D02*
X2544825Y-9512674D01*
X2544825Y-9512674D02*
X2554348Y-9531722D01*
X2554348Y-9531722D02*
X2554348Y-9636484D01*
X2649586Y-9636484D02*
X2649586Y-9503150D01*
X2649586Y-9522198D02*
X2659110Y-9512674D01*
X2659110Y-9512674D02*
X2678158Y-9503150D01*
X2678158Y-9503150D02*
X2706729Y-9503150D01*
X2706729Y-9503150D02*
X2725777Y-9512674D01*
X2725777Y-9512674D02*
X2735301Y-9531722D01*
X2735301Y-9531722D02*
X2735301Y-9636484D01*
X2735301Y-9531722D02*
X2744825Y-9512674D01*
X2744825Y-9512674D02*
X2763872Y-9503150D01*
X2763872Y-9503150D02*
X2792444Y-9503150D01*
X2792444Y-9503150D02*
X2811491Y-9512674D01*
X2811491Y-9512674D02*
X2821015Y-9531722D01*
X2821015Y-9531722D02*
X2821015Y-9636484D01*
X3211491Y-9426960D02*
X3040063Y-9684103D01*
X3468634Y-9436484D02*
X3487682Y-9436484D01*
X3487682Y-9436484D02*
X3506729Y-9446008D01*
X3506729Y-9446008D02*
X3516253Y-9455531D01*
X3516253Y-9455531D02*
X3525777Y-9474579D01*
X3525777Y-9474579D02*
X3535301Y-9512674D01*
X3535301Y-9512674D02*
X3535301Y-9560293D01*
X3535301Y-9560293D02*
X3525777Y-9598389D01*
X3525777Y-9598389D02*
X3516253Y-9617436D01*
X3516253Y-9617436D02*
X3506729Y-9626960D01*
X3506729Y-9626960D02*
X3487682Y-9636484D01*
X3487682Y-9636484D02*
X3468634Y-9636484D01*
X3468634Y-9636484D02*
X3449586Y-9626960D01*
X3449586Y-9626960D02*
X3440063Y-9617436D01*
X3440063Y-9617436D02*
X3430539Y-9598389D01*
X3430539Y-9598389D02*
X3421015Y-9560293D01*
X3421015Y-9560293D02*
X3421015Y-9512674D01*
X3421015Y-9512674D02*
X3430539Y-9474579D01*
X3430539Y-9474579D02*
X3440063Y-9455531D01*
X3440063Y-9455531D02*
X3449586Y-9446008D01*
X3449586Y-9446008D02*
X3468634Y-9436484D01*
X3621015Y-9617436D02*
X3630539Y-9626960D01*
X3630539Y-9626960D02*
X3621015Y-9636484D01*
X3621015Y-9636484D02*
X3611491Y-9626960D01*
X3611491Y-9626960D02*
X3621015Y-9617436D01*
X3621015Y-9617436D02*
X3621015Y-9636484D01*
X3754348Y-9436484D02*
X3773396Y-9436484D01*
X3773396Y-9436484D02*
X3792444Y-9446008D01*
X3792444Y-9446008D02*
X3801967Y-9455531D01*
X3801967Y-9455531D02*
X3811491Y-9474579D01*
X3811491Y-9474579D02*
X3821015Y-9512674D01*
X3821015Y-9512674D02*
X3821015Y-9560293D01*
X3821015Y-9560293D02*
X3811491Y-9598389D01*
X3811491Y-9598389D02*
X3801967Y-9617436D01*
X3801967Y-9617436D02*
X3792444Y-9626960D01*
X3792444Y-9626960D02*
X3773396Y-9636484D01*
X3773396Y-9636484D02*
X3754348Y-9636484D01*
X3754348Y-9636484D02*
X3735301Y-9626960D01*
X3735301Y-9626960D02*
X3725777Y-9617436D01*
X3725777Y-9617436D02*
X3716253Y-9598389D01*
X3716253Y-9598389D02*
X3706729Y-9560293D01*
X3706729Y-9560293D02*
X3706729Y-9512674D01*
X3706729Y-9512674D02*
X3716253Y-9474579D01*
X3716253Y-9474579D02*
X3725777Y-9455531D01*
X3725777Y-9455531D02*
X3735301Y-9446008D01*
X3735301Y-9446008D02*
X3754348Y-9436484D01*
X3897206Y-9455531D02*
X3906729Y-9446008D01*
X3906729Y-9446008D02*
X3925777Y-9436484D01*
X3925777Y-9436484D02*
X3973396Y-9436484D01*
X3973396Y-9436484D02*
X3992444Y-9446008D01*
X3992444Y-9446008D02*
X4001967Y-9455531D01*
X4001967Y-9455531D02*
X4011491Y-9474579D01*
X4011491Y-9474579D02*
X4011491Y-9493627D01*
X4011491Y-9493627D02*
X4001967Y-9522198D01*
X4001967Y-9522198D02*
X3887682Y-9636484D01*
X3887682Y-9636484D02*
X4011491Y-9636484D01*
X4078158Y-9436484D02*
X4201968Y-9436484D01*
X4201968Y-9436484D02*
X4135301Y-9512674D01*
X4135301Y-9512674D02*
X4163872Y-9512674D01*
X4163872Y-9512674D02*
X4182920Y-9522198D01*
X4182920Y-9522198D02*
X4192444Y-9531722D01*
X4192444Y-9531722D02*
X4201968Y-9550770D01*
X4201968Y-9550770D02*
X4201968Y-9598389D01*
X4201968Y-9598389D02*
X4192444Y-9617436D01*
X4192444Y-9617436D02*
X4182920Y-9626960D01*
X4182920Y-9626960D02*
X4163872Y-9636484D01*
X4163872Y-9636484D02*
X4106729Y-9636484D01*
X4106729Y-9636484D02*
X4087682Y-9626960D01*
X4087682Y-9626960D02*
X4078158Y-9617436D01*
X4373396Y-9436484D02*
X4335301Y-9436484D01*
X4335301Y-9436484D02*
X4316253Y-9446008D01*
X4316253Y-9446008D02*
X4306729Y-9455531D01*
X4306729Y-9455531D02*
X4287682Y-9484103D01*
X4287682Y-9484103D02*
X4278158Y-9522198D01*
X4278158Y-9522198D02*
X4278158Y-9598389D01*
X4278158Y-9598389D02*
X4287682Y-9617436D01*
X4287682Y-9617436D02*
X4297206Y-9626960D01*
X4297206Y-9626960D02*
X4316253Y-9636484D01*
X4316253Y-9636484D02*
X4354349Y-9636484D01*
X4354349Y-9636484D02*
X4373396Y-9626960D01*
X4373396Y-9626960D02*
X4382920Y-9617436D01*
X4382920Y-9617436D02*
X4392444Y-9598389D01*
X4392444Y-9598389D02*
X4392444Y-9550770D01*
X4392444Y-9550770D02*
X4382920Y-9531722D01*
X4382920Y-9531722D02*
X4373396Y-9522198D01*
X4373396Y-9522198D02*
X4354349Y-9512674D01*
X4354349Y-9512674D02*
X4316253Y-9512674D01*
X4316253Y-9512674D02*
X4297206Y-9522198D01*
X4297206Y-9522198D02*
X4287682Y-9531722D01*
X4287682Y-9531722D02*
X4278158Y-9550770D01*
X4468634Y-9436484D02*
X4468634Y-9474579D01*
X4544825Y-9436484D02*
X4544825Y-9474579D01*
X4840063Y-9712674D02*
X4830539Y-9703150D01*
X4830539Y-9703150D02*
X4811491Y-9674579D01*
X4811491Y-9674579D02*
X4801968Y-9655531D01*
X4801968Y-9655531D02*
X4792444Y-9626960D01*
X4792444Y-9626960D02*
X4782920Y-9579341D01*
X4782920Y-9579341D02*
X4782920Y-9541246D01*
X4782920Y-9541246D02*
X4792444Y-9493627D01*
X4792444Y-9493627D02*
X4801968Y-9465055D01*
X4801968Y-9465055D02*
X4811491Y-9446008D01*
X4811491Y-9446008D02*
X4830539Y-9417436D01*
X4830539Y-9417436D02*
X4840063Y-9407912D01*
X4954349Y-9436484D02*
X4973396Y-9436484D01*
X4973396Y-9436484D02*
X4992444Y-9446008D01*
X4992444Y-9446008D02*
X5001968Y-9455531D01*
X5001968Y-9455531D02*
X5011491Y-9474579D01*
X5011491Y-9474579D02*
X5021015Y-9512674D01*
X5021015Y-9512674D02*
X5021015Y-9560293D01*
X5021015Y-9560293D02*
X5011491Y-9598389D01*
X5011491Y-9598389D02*
X5001968Y-9617436D01*
X5001968Y-9617436D02*
X4992444Y-9626960D01*
X4992444Y-9626960D02*
X4973396Y-9636484D01*
X4973396Y-9636484D02*
X4954349Y-9636484D01*
X4954349Y-9636484D02*
X4935301Y-9626960D01*
X4935301Y-9626960D02*
X4925777Y-9617436D01*
X4925777Y-9617436D02*
X4916253Y-9598389D01*
X4916253Y-9598389D02*
X4906730Y-9560293D01*
X4906730Y-9560293D02*
X4906730Y-9512674D01*
X4906730Y-9512674D02*
X4916253Y-9474579D01*
X4916253Y-9474579D02*
X4925777Y-9455531D01*
X4925777Y-9455531D02*
X4935301Y-9446008D01*
X4935301Y-9446008D02*
X4954349Y-9436484D01*
X5259111Y-9636484D02*
X5259111Y-9436484D01*
X5344825Y-9636484D02*
X5344825Y-9531722D01*
X5344825Y-9531722D02*
X5335301Y-9512674D01*
X5335301Y-9512674D02*
X5316253Y-9503150D01*
X5316253Y-9503150D02*
X5287682Y-9503150D01*
X5287682Y-9503150D02*
X5268634Y-9512674D01*
X5268634Y-9512674D02*
X5259111Y-9522198D01*
X5468634Y-9636484D02*
X5449587Y-9626960D01*
X5449587Y-9626960D02*
X5440063Y-9617436D01*
X5440063Y-9617436D02*
X5430539Y-9598389D01*
X5430539Y-9598389D02*
X5430539Y-9541246D01*
X5430539Y-9541246D02*
X5440063Y-9522198D01*
X5440063Y-9522198D02*
X5449587Y-9512674D01*
X5449587Y-9512674D02*
X5468634Y-9503150D01*
X5468634Y-9503150D02*
X5497206Y-9503150D01*
X5497206Y-9503150D02*
X5516253Y-9512674D01*
X5516253Y-9512674D02*
X5525777Y-9522198D01*
X5525777Y-9522198D02*
X5535301Y-9541246D01*
X5535301Y-9541246D02*
X5535301Y-9598389D01*
X5535301Y-9598389D02*
X5525777Y-9617436D01*
X5525777Y-9617436D02*
X5516253Y-9626960D01*
X5516253Y-9626960D02*
X5497206Y-9636484D01*
X5497206Y-9636484D02*
X5468634Y-9636484D01*
X5649587Y-9636484D02*
X5630539Y-9626960D01*
X5630539Y-9626960D02*
X5621015Y-9607912D01*
X5621015Y-9607912D02*
X5621015Y-9436484D01*
X5801968Y-9626960D02*
X5782920Y-9636484D01*
X5782920Y-9636484D02*
X5744825Y-9636484D01*
X5744825Y-9636484D02*
X5725777Y-9626960D01*
X5725777Y-9626960D02*
X5716253Y-9607912D01*
X5716253Y-9607912D02*
X5716253Y-9531722D01*
X5716253Y-9531722D02*
X5725777Y-9512674D01*
X5725777Y-9512674D02*
X5744825Y-9503150D01*
X5744825Y-9503150D02*
X5782920Y-9503150D01*
X5782920Y-9503150D02*
X5801968Y-9512674D01*
X5801968Y-9512674D02*
X5811491Y-9531722D01*
X5811491Y-9531722D02*
X5811491Y-9550770D01*
X5811491Y-9550770D02*
X5716253Y-9569817D01*
X5887682Y-9626960D02*
X5906730Y-9636484D01*
X5906730Y-9636484D02*
X5944825Y-9636484D01*
X5944825Y-9636484D02*
X5963872Y-9626960D01*
X5963872Y-9626960D02*
X5973396Y-9607912D01*
X5973396Y-9607912D02*
X5973396Y-9598389D01*
X5973396Y-9598389D02*
X5963872Y-9579341D01*
X5963872Y-9579341D02*
X5944825Y-9569817D01*
X5944825Y-9569817D02*
X5916253Y-9569817D01*
X5916253Y-9569817D02*
X5897206Y-9560293D01*
X5897206Y-9560293D02*
X5887682Y-9541246D01*
X5887682Y-9541246D02*
X5887682Y-9531722D01*
X5887682Y-9531722D02*
X5897206Y-9512674D01*
X5897206Y-9512674D02*
X5916253Y-9503150D01*
X5916253Y-9503150D02*
X5944825Y-9503150D01*
X5944825Y-9503150D02*
X5963872Y-9512674D01*
X6211492Y-9560293D02*
X6363873Y-9560293D01*
X6287682Y-9636484D02*
X6287682Y-9484103D01*
X6601968Y-9455531D02*
X6611492Y-9446008D01*
X6611492Y-9446008D02*
X6630539Y-9436484D01*
X6630539Y-9436484D02*
X6678158Y-9436484D01*
X6678158Y-9436484D02*
X6697206Y-9446008D01*
X6697206Y-9446008D02*
X6706730Y-9455531D01*
X6706730Y-9455531D02*
X6716253Y-9474579D01*
X6716253Y-9474579D02*
X6716253Y-9493627D01*
X6716253Y-9493627D02*
X6706730Y-9522198D01*
X6706730Y-9522198D02*
X6592444Y-9636484D01*
X6592444Y-9636484D02*
X6716253Y-9636484D01*
X6944825Y-9626960D02*
X6963873Y-9636484D01*
X6963873Y-9636484D02*
X7001968Y-9636484D01*
X7001968Y-9636484D02*
X7021015Y-9626960D01*
X7021015Y-9626960D02*
X7030539Y-9607912D01*
X7030539Y-9607912D02*
X7030539Y-9598389D01*
X7030539Y-9598389D02*
X7021015Y-9579341D01*
X7021015Y-9579341D02*
X7001968Y-9569817D01*
X7001968Y-9569817D02*
X6973396Y-9569817D01*
X6973396Y-9569817D02*
X6954349Y-9560293D01*
X6954349Y-9560293D02*
X6944825Y-9541246D01*
X6944825Y-9541246D02*
X6944825Y-9531722D01*
X6944825Y-9531722D02*
X6954349Y-9512674D01*
X6954349Y-9512674D02*
X6973396Y-9503150D01*
X6973396Y-9503150D02*
X7001968Y-9503150D01*
X7001968Y-9503150D02*
X7021015Y-9512674D01*
X7144825Y-9636484D02*
X7125777Y-9626960D01*
X7125777Y-9626960D02*
X7116254Y-9607912D01*
X7116254Y-9607912D02*
X7116254Y-9436484D01*
X7249587Y-9636484D02*
X7230539Y-9626960D01*
X7230539Y-9626960D02*
X7221015Y-9617436D01*
X7221015Y-9617436D02*
X7211492Y-9598389D01*
X7211492Y-9598389D02*
X7211492Y-9541246D01*
X7211492Y-9541246D02*
X7221015Y-9522198D01*
X7221015Y-9522198D02*
X7230539Y-9512674D01*
X7230539Y-9512674D02*
X7249587Y-9503150D01*
X7249587Y-9503150D02*
X7278158Y-9503150D01*
X7278158Y-9503150D02*
X7297206Y-9512674D01*
X7297206Y-9512674D02*
X7306730Y-9522198D01*
X7306730Y-9522198D02*
X7316254Y-9541246D01*
X7316254Y-9541246D02*
X7316254Y-9598389D01*
X7316254Y-9598389D02*
X7306730Y-9617436D01*
X7306730Y-9617436D02*
X7297206Y-9626960D01*
X7297206Y-9626960D02*
X7278158Y-9636484D01*
X7278158Y-9636484D02*
X7249587Y-9636484D01*
X7373396Y-9503150D02*
X7449587Y-9503150D01*
X7401968Y-9436484D02*
X7401968Y-9607912D01*
X7401968Y-9607912D02*
X7411492Y-9626960D01*
X7411492Y-9626960D02*
X7430539Y-9636484D01*
X7430539Y-9636484D02*
X7449587Y-9636484D01*
X7506730Y-9626960D02*
X7525777Y-9636484D01*
X7525777Y-9636484D02*
X7563873Y-9636484D01*
X7563873Y-9636484D02*
X7582920Y-9626960D01*
X7582920Y-9626960D02*
X7592444Y-9607912D01*
X7592444Y-9607912D02*
X7592444Y-9598389D01*
X7592444Y-9598389D02*
X7582920Y-9579341D01*
X7582920Y-9579341D02*
X7563873Y-9569817D01*
X7563873Y-9569817D02*
X7535301Y-9569817D01*
X7535301Y-9569817D02*
X7516254Y-9560293D01*
X7516254Y-9560293D02*
X7506730Y-9541246D01*
X7506730Y-9541246D02*
X7506730Y-9531722D01*
X7506730Y-9531722D02*
X7516254Y-9512674D01*
X7516254Y-9512674D02*
X7535301Y-9503150D01*
X7535301Y-9503150D02*
X7563873Y-9503150D01*
X7563873Y-9503150D02*
X7582920Y-9512674D01*
X7659111Y-9712674D02*
X7668635Y-9703150D01*
X7668635Y-9703150D02*
X7687682Y-9674579D01*
X7687682Y-9674579D02*
X7697206Y-9655531D01*
X7697206Y-9655531D02*
X7706730Y-9626960D01*
X7706730Y-9626960D02*
X7716254Y-9579341D01*
X7716254Y-9579341D02*
X7716254Y-9541246D01*
X7716254Y-9541246D02*
X7706730Y-9493627D01*
X7706730Y-9493627D02*
X7697206Y-9465055D01*
X7697206Y-9465055D02*
X7687682Y-9446008D01*
X7687682Y-9446008D02*
X7668635Y-9417436D01*
X7668635Y-9417436D02*
X7659111Y-9407912D01*
D14*
X1232500Y-9776500D02*
X1232500Y-9841500D01*
X1200000Y-9809000D02*
X1265000Y-9809000D01*
D11*
X1563872Y-9700484D02*
X1582920Y-9700484D01*
X1582920Y-9700484D02*
X1601967Y-9710008D01*
X1601967Y-9710008D02*
X1611491Y-9719531D01*
X1611491Y-9719531D02*
X1621015Y-9738579D01*
X1621015Y-9738579D02*
X1630539Y-9776674D01*
X1630539Y-9776674D02*
X1630539Y-9824293D01*
X1630539Y-9824293D02*
X1621015Y-9862389D01*
X1621015Y-9862389D02*
X1611491Y-9881436D01*
X1611491Y-9881436D02*
X1601967Y-9890960D01*
X1601967Y-9890960D02*
X1582920Y-9900484D01*
X1582920Y-9900484D02*
X1563872Y-9900484D01*
X1563872Y-9900484D02*
X1544824Y-9890960D01*
X1544824Y-9890960D02*
X1535301Y-9881436D01*
X1535301Y-9881436D02*
X1525777Y-9862389D01*
X1525777Y-9862389D02*
X1516253Y-9824293D01*
X1516253Y-9824293D02*
X1516253Y-9776674D01*
X1516253Y-9776674D02*
X1525777Y-9738579D01*
X1525777Y-9738579D02*
X1535301Y-9719531D01*
X1535301Y-9719531D02*
X1544824Y-9710008D01*
X1544824Y-9710008D02*
X1563872Y-9700484D01*
X1716253Y-9881436D02*
X1725777Y-9890960D01*
X1725777Y-9890960D02*
X1716253Y-9900484D01*
X1716253Y-9900484D02*
X1706729Y-9890960D01*
X1706729Y-9890960D02*
X1716253Y-9881436D01*
X1716253Y-9881436D02*
X1716253Y-9900484D01*
X1897205Y-9700484D02*
X1859110Y-9700484D01*
X1859110Y-9700484D02*
X1840062Y-9710008D01*
X1840062Y-9710008D02*
X1830539Y-9719531D01*
X1830539Y-9719531D02*
X1811491Y-9748103D01*
X1811491Y-9748103D02*
X1801967Y-9786198D01*
X1801967Y-9786198D02*
X1801967Y-9862389D01*
X1801967Y-9862389D02*
X1811491Y-9881436D01*
X1811491Y-9881436D02*
X1821015Y-9890960D01*
X1821015Y-9890960D02*
X1840062Y-9900484D01*
X1840062Y-9900484D02*
X1878158Y-9900484D01*
X1878158Y-9900484D02*
X1897205Y-9890960D01*
X1897205Y-9890960D02*
X1906729Y-9881436D01*
X1906729Y-9881436D02*
X1916253Y-9862389D01*
X1916253Y-9862389D02*
X1916253Y-9814770D01*
X1916253Y-9814770D02*
X1906729Y-9795722D01*
X1906729Y-9795722D02*
X1897205Y-9786198D01*
X1897205Y-9786198D02*
X1878158Y-9776674D01*
X1878158Y-9776674D02*
X1840062Y-9776674D01*
X1840062Y-9776674D02*
X1821015Y-9786198D01*
X1821015Y-9786198D02*
X1811491Y-9795722D01*
X1811491Y-9795722D02*
X1801967Y-9814770D01*
X2097205Y-9700484D02*
X2001967Y-9700484D01*
X2001967Y-9700484D02*
X1992443Y-9795722D01*
X1992443Y-9795722D02*
X2001967Y-9786198D01*
X2001967Y-9786198D02*
X2021015Y-9776674D01*
X2021015Y-9776674D02*
X2068634Y-9776674D01*
X2068634Y-9776674D02*
X2087682Y-9786198D01*
X2087682Y-9786198D02*
X2097205Y-9795722D01*
X2097205Y-9795722D02*
X2106729Y-9814770D01*
X2106729Y-9814770D02*
X2106729Y-9862389D01*
X2106729Y-9862389D02*
X2097205Y-9881436D01*
X2097205Y-9881436D02*
X2087682Y-9890960D01*
X2087682Y-9890960D02*
X2068634Y-9900484D01*
X2068634Y-9900484D02*
X2021015Y-9900484D01*
X2021015Y-9900484D02*
X2001967Y-9890960D01*
X2001967Y-9890960D02*
X1992443Y-9881436D01*
X2230539Y-9700484D02*
X2249586Y-9700484D01*
X2249586Y-9700484D02*
X2268634Y-9710008D01*
X2268634Y-9710008D02*
X2278158Y-9719531D01*
X2278158Y-9719531D02*
X2287682Y-9738579D01*
X2287682Y-9738579D02*
X2297205Y-9776674D01*
X2297205Y-9776674D02*
X2297205Y-9824293D01*
X2297205Y-9824293D02*
X2287682Y-9862389D01*
X2287682Y-9862389D02*
X2278158Y-9881436D01*
X2278158Y-9881436D02*
X2268634Y-9890960D01*
X2268634Y-9890960D02*
X2249586Y-9900484D01*
X2249586Y-9900484D02*
X2230539Y-9900484D01*
X2230539Y-9900484D02*
X2211491Y-9890960D01*
X2211491Y-9890960D02*
X2201967Y-9881436D01*
X2201967Y-9881436D02*
X2192444Y-9862389D01*
X2192444Y-9862389D02*
X2182920Y-9824293D01*
X2182920Y-9824293D02*
X2182920Y-9776674D01*
X2182920Y-9776674D02*
X2192444Y-9738579D01*
X2192444Y-9738579D02*
X2201967Y-9719531D01*
X2201967Y-9719531D02*
X2211491Y-9710008D01*
X2211491Y-9710008D02*
X2230539Y-9700484D01*
X2382920Y-9900484D02*
X2382920Y-9767150D01*
X2382920Y-9786198D02*
X2392444Y-9776674D01*
X2392444Y-9776674D02*
X2411491Y-9767150D01*
X2411491Y-9767150D02*
X2440063Y-9767150D01*
X2440063Y-9767150D02*
X2459110Y-9776674D01*
X2459110Y-9776674D02*
X2468634Y-9795722D01*
X2468634Y-9795722D02*
X2468634Y-9900484D01*
X2468634Y-9795722D02*
X2478158Y-9776674D01*
X2478158Y-9776674D02*
X2497205Y-9767150D01*
X2497205Y-9767150D02*
X2525777Y-9767150D01*
X2525777Y-9767150D02*
X2544825Y-9776674D01*
X2544825Y-9776674D02*
X2554348Y-9795722D01*
X2554348Y-9795722D02*
X2554348Y-9900484D01*
X2649586Y-9900484D02*
X2649586Y-9767150D01*
X2649586Y-9786198D02*
X2659110Y-9776674D01*
X2659110Y-9776674D02*
X2678158Y-9767150D01*
X2678158Y-9767150D02*
X2706729Y-9767150D01*
X2706729Y-9767150D02*
X2725777Y-9776674D01*
X2725777Y-9776674D02*
X2735301Y-9795722D01*
X2735301Y-9795722D02*
X2735301Y-9900484D01*
X2735301Y-9795722D02*
X2744825Y-9776674D01*
X2744825Y-9776674D02*
X2763872Y-9767150D01*
X2763872Y-9767150D02*
X2792444Y-9767150D01*
X2792444Y-9767150D02*
X2811491Y-9776674D01*
X2811491Y-9776674D02*
X2821015Y-9795722D01*
X2821015Y-9795722D02*
X2821015Y-9900484D01*
X3211491Y-9690960D02*
X3040063Y-9948103D01*
X3468634Y-9700484D02*
X3487682Y-9700484D01*
X3487682Y-9700484D02*
X3506729Y-9710008D01*
X3506729Y-9710008D02*
X3516253Y-9719531D01*
X3516253Y-9719531D02*
X3525777Y-9738579D01*
X3525777Y-9738579D02*
X3535301Y-9776674D01*
X3535301Y-9776674D02*
X3535301Y-9824293D01*
X3535301Y-9824293D02*
X3525777Y-9862389D01*
X3525777Y-9862389D02*
X3516253Y-9881436D01*
X3516253Y-9881436D02*
X3506729Y-9890960D01*
X3506729Y-9890960D02*
X3487682Y-9900484D01*
X3487682Y-9900484D02*
X3468634Y-9900484D01*
X3468634Y-9900484D02*
X3449586Y-9890960D01*
X3449586Y-9890960D02*
X3440063Y-9881436D01*
X3440063Y-9881436D02*
X3430539Y-9862389D01*
X3430539Y-9862389D02*
X3421015Y-9824293D01*
X3421015Y-9824293D02*
X3421015Y-9776674D01*
X3421015Y-9776674D02*
X3430539Y-9738579D01*
X3430539Y-9738579D02*
X3440063Y-9719531D01*
X3440063Y-9719531D02*
X3449586Y-9710008D01*
X3449586Y-9710008D02*
X3468634Y-9700484D01*
X3621015Y-9881436D02*
X3630539Y-9890960D01*
X3630539Y-9890960D02*
X3621015Y-9900484D01*
X3621015Y-9900484D02*
X3611491Y-9890960D01*
X3611491Y-9890960D02*
X3621015Y-9881436D01*
X3621015Y-9881436D02*
X3621015Y-9900484D01*
X3754348Y-9700484D02*
X3773396Y-9700484D01*
X3773396Y-9700484D02*
X3792444Y-9710008D01*
X3792444Y-9710008D02*
X3801967Y-9719531D01*
X3801967Y-9719531D02*
X3811491Y-9738579D01*
X3811491Y-9738579D02*
X3821015Y-9776674D01*
X3821015Y-9776674D02*
X3821015Y-9824293D01*
X3821015Y-9824293D02*
X3811491Y-9862389D01*
X3811491Y-9862389D02*
X3801967Y-9881436D01*
X3801967Y-9881436D02*
X3792444Y-9890960D01*
X3792444Y-9890960D02*
X3773396Y-9900484D01*
X3773396Y-9900484D02*
X3754348Y-9900484D01*
X3754348Y-9900484D02*
X3735301Y-9890960D01*
X3735301Y-9890960D02*
X3725777Y-9881436D01*
X3725777Y-9881436D02*
X3716253Y-9862389D01*
X3716253Y-9862389D02*
X3706729Y-9824293D01*
X3706729Y-9824293D02*
X3706729Y-9776674D01*
X3706729Y-9776674D02*
X3716253Y-9738579D01*
X3716253Y-9738579D02*
X3725777Y-9719531D01*
X3725777Y-9719531D02*
X3735301Y-9710008D01*
X3735301Y-9710008D02*
X3754348Y-9700484D01*
X3897206Y-9719531D02*
X3906729Y-9710008D01*
X3906729Y-9710008D02*
X3925777Y-9700484D01*
X3925777Y-9700484D02*
X3973396Y-9700484D01*
X3973396Y-9700484D02*
X3992444Y-9710008D01*
X3992444Y-9710008D02*
X4001967Y-9719531D01*
X4001967Y-9719531D02*
X4011491Y-9738579D01*
X4011491Y-9738579D02*
X4011491Y-9757627D01*
X4011491Y-9757627D02*
X4001967Y-9786198D01*
X4001967Y-9786198D02*
X3887682Y-9900484D01*
X3887682Y-9900484D02*
X4011491Y-9900484D01*
X4192444Y-9700484D02*
X4097206Y-9700484D01*
X4097206Y-9700484D02*
X4087682Y-9795722D01*
X4087682Y-9795722D02*
X4097206Y-9786198D01*
X4097206Y-9786198D02*
X4116253Y-9776674D01*
X4116253Y-9776674D02*
X4163872Y-9776674D01*
X4163872Y-9776674D02*
X4182920Y-9786198D01*
X4182920Y-9786198D02*
X4192444Y-9795722D01*
X4192444Y-9795722D02*
X4201968Y-9814770D01*
X4201968Y-9814770D02*
X4201968Y-9862389D01*
X4201968Y-9862389D02*
X4192444Y-9881436D01*
X4192444Y-9881436D02*
X4182920Y-9890960D01*
X4182920Y-9890960D02*
X4163872Y-9900484D01*
X4163872Y-9900484D02*
X4116253Y-9900484D01*
X4116253Y-9900484D02*
X4097206Y-9890960D01*
X4097206Y-9890960D02*
X4087682Y-9881436D01*
X4373396Y-9700484D02*
X4335301Y-9700484D01*
X4335301Y-9700484D02*
X4316253Y-9710008D01*
X4316253Y-9710008D02*
X4306729Y-9719531D01*
X4306729Y-9719531D02*
X4287682Y-9748103D01*
X4287682Y-9748103D02*
X4278158Y-9786198D01*
X4278158Y-9786198D02*
X4278158Y-9862389D01*
X4278158Y-9862389D02*
X4287682Y-9881436D01*
X4287682Y-9881436D02*
X4297206Y-9890960D01*
X4297206Y-9890960D02*
X4316253Y-9900484D01*
X4316253Y-9900484D02*
X4354349Y-9900484D01*
X4354349Y-9900484D02*
X4373396Y-9890960D01*
X4373396Y-9890960D02*
X4382920Y-9881436D01*
X4382920Y-9881436D02*
X4392444Y-9862389D01*
X4392444Y-9862389D02*
X4392444Y-9814770D01*
X4392444Y-9814770D02*
X4382920Y-9795722D01*
X4382920Y-9795722D02*
X4373396Y-9786198D01*
X4373396Y-9786198D02*
X4354349Y-9776674D01*
X4354349Y-9776674D02*
X4316253Y-9776674D01*
X4316253Y-9776674D02*
X4297206Y-9786198D01*
X4297206Y-9786198D02*
X4287682Y-9795722D01*
X4287682Y-9795722D02*
X4278158Y-9814770D01*
X4468634Y-9700484D02*
X4468634Y-9738579D01*
X4544825Y-9700484D02*
X4544825Y-9738579D01*
X4840063Y-9976674D02*
X4830539Y-9967150D01*
X4830539Y-9967150D02*
X4811491Y-9938579D01*
X4811491Y-9938579D02*
X4801968Y-9919531D01*
X4801968Y-9919531D02*
X4792444Y-9890960D01*
X4792444Y-9890960D02*
X4782920Y-9843341D01*
X4782920Y-9843341D02*
X4782920Y-9805246D01*
X4782920Y-9805246D02*
X4792444Y-9757627D01*
X4792444Y-9757627D02*
X4801968Y-9729055D01*
X4801968Y-9729055D02*
X4811491Y-9710008D01*
X4811491Y-9710008D02*
X4830539Y-9681436D01*
X4830539Y-9681436D02*
X4840063Y-9671912D01*
X4954349Y-9700484D02*
X4973396Y-9700484D01*
X4973396Y-9700484D02*
X4992444Y-9710008D01*
X4992444Y-9710008D02*
X5001968Y-9719531D01*
X5001968Y-9719531D02*
X5011491Y-9738579D01*
X5011491Y-9738579D02*
X5021015Y-9776674D01*
X5021015Y-9776674D02*
X5021015Y-9824293D01*
X5021015Y-9824293D02*
X5011491Y-9862389D01*
X5011491Y-9862389D02*
X5001968Y-9881436D01*
X5001968Y-9881436D02*
X4992444Y-9890960D01*
X4992444Y-9890960D02*
X4973396Y-9900484D01*
X4973396Y-9900484D02*
X4954349Y-9900484D01*
X4954349Y-9900484D02*
X4935301Y-9890960D01*
X4935301Y-9890960D02*
X4925777Y-9881436D01*
X4925777Y-9881436D02*
X4916253Y-9862389D01*
X4916253Y-9862389D02*
X4906730Y-9824293D01*
X4906730Y-9824293D02*
X4906730Y-9776674D01*
X4906730Y-9776674D02*
X4916253Y-9738579D01*
X4916253Y-9738579D02*
X4925777Y-9719531D01*
X4925777Y-9719531D02*
X4935301Y-9710008D01*
X4935301Y-9710008D02*
X4954349Y-9700484D01*
X5259111Y-9900484D02*
X5259111Y-9700484D01*
X5344825Y-9900484D02*
X5344825Y-9795722D01*
X5344825Y-9795722D02*
X5335301Y-9776674D01*
X5335301Y-9776674D02*
X5316253Y-9767150D01*
X5316253Y-9767150D02*
X5287682Y-9767150D01*
X5287682Y-9767150D02*
X5268634Y-9776674D01*
X5268634Y-9776674D02*
X5259111Y-9786198D01*
X5468634Y-9900484D02*
X5449587Y-9890960D01*
X5449587Y-9890960D02*
X5440063Y-9881436D01*
X5440063Y-9881436D02*
X5430539Y-9862389D01*
X5430539Y-9862389D02*
X5430539Y-9805246D01*
X5430539Y-9805246D02*
X5440063Y-9786198D01*
X5440063Y-9786198D02*
X5449587Y-9776674D01*
X5449587Y-9776674D02*
X5468634Y-9767150D01*
X5468634Y-9767150D02*
X5497206Y-9767150D01*
X5497206Y-9767150D02*
X5516253Y-9776674D01*
X5516253Y-9776674D02*
X5525777Y-9786198D01*
X5525777Y-9786198D02*
X5535301Y-9805246D01*
X5535301Y-9805246D02*
X5535301Y-9862389D01*
X5535301Y-9862389D02*
X5525777Y-9881436D01*
X5525777Y-9881436D02*
X5516253Y-9890960D01*
X5516253Y-9890960D02*
X5497206Y-9900484D01*
X5497206Y-9900484D02*
X5468634Y-9900484D01*
X5649587Y-9900484D02*
X5630539Y-9890960D01*
X5630539Y-9890960D02*
X5621015Y-9871912D01*
X5621015Y-9871912D02*
X5621015Y-9700484D01*
X5801968Y-9890960D02*
X5782920Y-9900484D01*
X5782920Y-9900484D02*
X5744825Y-9900484D01*
X5744825Y-9900484D02*
X5725777Y-9890960D01*
X5725777Y-9890960D02*
X5716253Y-9871912D01*
X5716253Y-9871912D02*
X5716253Y-9795722D01*
X5716253Y-9795722D02*
X5725777Y-9776674D01*
X5725777Y-9776674D02*
X5744825Y-9767150D01*
X5744825Y-9767150D02*
X5782920Y-9767150D01*
X5782920Y-9767150D02*
X5801968Y-9776674D01*
X5801968Y-9776674D02*
X5811491Y-9795722D01*
X5811491Y-9795722D02*
X5811491Y-9814770D01*
X5811491Y-9814770D02*
X5716253Y-9833817D01*
X5887682Y-9890960D02*
X5906730Y-9900484D01*
X5906730Y-9900484D02*
X5944825Y-9900484D01*
X5944825Y-9900484D02*
X5963872Y-9890960D01*
X5963872Y-9890960D02*
X5973396Y-9871912D01*
X5973396Y-9871912D02*
X5973396Y-9862389D01*
X5973396Y-9862389D02*
X5963872Y-9843341D01*
X5963872Y-9843341D02*
X5944825Y-9833817D01*
X5944825Y-9833817D02*
X5916253Y-9833817D01*
X5916253Y-9833817D02*
X5897206Y-9824293D01*
X5897206Y-9824293D02*
X5887682Y-9805246D01*
X5887682Y-9805246D02*
X5887682Y-9795722D01*
X5887682Y-9795722D02*
X5897206Y-9776674D01*
X5897206Y-9776674D02*
X5916253Y-9767150D01*
X5916253Y-9767150D02*
X5944825Y-9767150D01*
X5944825Y-9767150D02*
X5963872Y-9776674D01*
X6211492Y-9824293D02*
X6363873Y-9824293D01*
X6287682Y-9900484D02*
X6287682Y-9748103D01*
X6601968Y-9719531D02*
X6611492Y-9710008D01*
X6611492Y-9710008D02*
X6630539Y-9700484D01*
X6630539Y-9700484D02*
X6678158Y-9700484D01*
X6678158Y-9700484D02*
X6697206Y-9710008D01*
X6697206Y-9710008D02*
X6706730Y-9719531D01*
X6706730Y-9719531D02*
X6716253Y-9738579D01*
X6716253Y-9738579D02*
X6716253Y-9757627D01*
X6716253Y-9757627D02*
X6706730Y-9786198D01*
X6706730Y-9786198D02*
X6592444Y-9900484D01*
X6592444Y-9900484D02*
X6716253Y-9900484D01*
X6944825Y-9890960D02*
X6963873Y-9900484D01*
X6963873Y-9900484D02*
X7001968Y-9900484D01*
X7001968Y-9900484D02*
X7021015Y-9890960D01*
X7021015Y-9890960D02*
X7030539Y-9871912D01*
X7030539Y-9871912D02*
X7030539Y-9862389D01*
X7030539Y-9862389D02*
X7021015Y-9843341D01*
X7021015Y-9843341D02*
X7001968Y-9833817D01*
X7001968Y-9833817D02*
X6973396Y-9833817D01*
X6973396Y-9833817D02*
X6954349Y-9824293D01*
X6954349Y-9824293D02*
X6944825Y-9805246D01*
X6944825Y-9805246D02*
X6944825Y-9795722D01*
X6944825Y-9795722D02*
X6954349Y-9776674D01*
X6954349Y-9776674D02*
X6973396Y-9767150D01*
X6973396Y-9767150D02*
X7001968Y-9767150D01*
X7001968Y-9767150D02*
X7021015Y-9776674D01*
X7144825Y-9900484D02*
X7125777Y-9890960D01*
X7125777Y-9890960D02*
X7116254Y-9871912D01*
X7116254Y-9871912D02*
X7116254Y-9700484D01*
X7249587Y-9900484D02*
X7230539Y-9890960D01*
X7230539Y-9890960D02*
X7221015Y-9881436D01*
X7221015Y-9881436D02*
X7211492Y-9862389D01*
X7211492Y-9862389D02*
X7211492Y-9805246D01*
X7211492Y-9805246D02*
X7221015Y-9786198D01*
X7221015Y-9786198D02*
X7230539Y-9776674D01*
X7230539Y-9776674D02*
X7249587Y-9767150D01*
X7249587Y-9767150D02*
X7278158Y-9767150D01*
X7278158Y-9767150D02*
X7297206Y-9776674D01*
X7297206Y-9776674D02*
X7306730Y-9786198D01*
X7306730Y-9786198D02*
X7316254Y-9805246D01*
X7316254Y-9805246D02*
X7316254Y-9862389D01*
X7316254Y-9862389D02*
X7306730Y-9881436D01*
X7306730Y-9881436D02*
X7297206Y-9890960D01*
X7297206Y-9890960D02*
X7278158Y-9900484D01*
X7278158Y-9900484D02*
X7249587Y-9900484D01*
X7373396Y-9767150D02*
X7449587Y-9767150D01*
X7401968Y-9700484D02*
X7401968Y-9871912D01*
X7401968Y-9871912D02*
X7411492Y-9890960D01*
X7411492Y-9890960D02*
X7430539Y-9900484D01*
X7430539Y-9900484D02*
X7449587Y-9900484D01*
X7506730Y-9890960D02*
X7525777Y-9900484D01*
X7525777Y-9900484D02*
X7563873Y-9900484D01*
X7563873Y-9900484D02*
X7582920Y-9890960D01*
X7582920Y-9890960D02*
X7592444Y-9871912D01*
X7592444Y-9871912D02*
X7592444Y-9862389D01*
X7592444Y-9862389D02*
X7582920Y-9843341D01*
X7582920Y-9843341D02*
X7563873Y-9833817D01*
X7563873Y-9833817D02*
X7535301Y-9833817D01*
X7535301Y-9833817D02*
X7516254Y-9824293D01*
X7516254Y-9824293D02*
X7506730Y-9805246D01*
X7506730Y-9805246D02*
X7506730Y-9795722D01*
X7506730Y-9795722D02*
X7516254Y-9776674D01*
X7516254Y-9776674D02*
X7535301Y-9767150D01*
X7535301Y-9767150D02*
X7563873Y-9767150D01*
X7563873Y-9767150D02*
X7582920Y-9776674D01*
X7659111Y-9976674D02*
X7668635Y-9967150D01*
X7668635Y-9967150D02*
X7687682Y-9938579D01*
X7687682Y-9938579D02*
X7697206Y-9919531D01*
X7697206Y-9919531D02*
X7706730Y-9890960D01*
X7706730Y-9890960D02*
X7716254Y-9843341D01*
X7716254Y-9843341D02*
X7716254Y-9805246D01*
X7716254Y-9805246D02*
X7706730Y-9757627D01*
X7706730Y-9757627D02*
X7697206Y-9729055D01*
X7697206Y-9729055D02*
X7687682Y-9710008D01*
X7687682Y-9710008D02*
X7668635Y-9681436D01*
X7668635Y-9681436D02*
X7659111Y-9671912D01*
D15*
X1253285Y-10101285D02*
X1253285Y-10044716D01*
X1196716Y-10044716D01*
X1196716Y-10101285D01*
X1253285Y-10101285D01*
D11*
X1563872Y-9964484D02*
X1582920Y-9964484D01*
X1582920Y-9964484D02*
X1601967Y-9974008D01*
X1601967Y-9974008D02*
X1611491Y-9983531D01*
X1611491Y-9983531D02*
X1621015Y-10002579D01*
X1621015Y-10002579D02*
X1630539Y-10040674D01*
X1630539Y-10040674D02*
X1630539Y-10088293D01*
X1630539Y-10088293D02*
X1621015Y-10126389D01*
X1621015Y-10126389D02*
X1611491Y-10145436D01*
X1611491Y-10145436D02*
X1601967Y-10154960D01*
X1601967Y-10154960D02*
X1582920Y-10164484D01*
X1582920Y-10164484D02*
X1563872Y-10164484D01*
X1563872Y-10164484D02*
X1544824Y-10154960D01*
X1544824Y-10154960D02*
X1535301Y-10145436D01*
X1535301Y-10145436D02*
X1525777Y-10126389D01*
X1525777Y-10126389D02*
X1516253Y-10088293D01*
X1516253Y-10088293D02*
X1516253Y-10040674D01*
X1516253Y-10040674D02*
X1525777Y-10002579D01*
X1525777Y-10002579D02*
X1535301Y-9983531D01*
X1535301Y-9983531D02*
X1544824Y-9974008D01*
X1544824Y-9974008D02*
X1563872Y-9964484D01*
X1716253Y-10145436D02*
X1725777Y-10154960D01*
X1725777Y-10154960D02*
X1716253Y-10164484D01*
X1716253Y-10164484D02*
X1706729Y-10154960D01*
X1706729Y-10154960D02*
X1716253Y-10145436D01*
X1716253Y-10145436D02*
X1716253Y-10164484D01*
X1840062Y-10050198D02*
X1821015Y-10040674D01*
X1821015Y-10040674D02*
X1811491Y-10031150D01*
X1811491Y-10031150D02*
X1801967Y-10012103D01*
X1801967Y-10012103D02*
X1801967Y-10002579D01*
X1801967Y-10002579D02*
X1811491Y-9983531D01*
X1811491Y-9983531D02*
X1821015Y-9974008D01*
X1821015Y-9974008D02*
X1840062Y-9964484D01*
X1840062Y-9964484D02*
X1878158Y-9964484D01*
X1878158Y-9964484D02*
X1897205Y-9974008D01*
X1897205Y-9974008D02*
X1906729Y-9983531D01*
X1906729Y-9983531D02*
X1916253Y-10002579D01*
X1916253Y-10002579D02*
X1916253Y-10012103D01*
X1916253Y-10012103D02*
X1906729Y-10031150D01*
X1906729Y-10031150D02*
X1897205Y-10040674D01*
X1897205Y-10040674D02*
X1878158Y-10050198D01*
X1878158Y-10050198D02*
X1840062Y-10050198D01*
X1840062Y-10050198D02*
X1821015Y-10059722D01*
X1821015Y-10059722D02*
X1811491Y-10069246D01*
X1811491Y-10069246D02*
X1801967Y-10088293D01*
X1801967Y-10088293D02*
X1801967Y-10126389D01*
X1801967Y-10126389D02*
X1811491Y-10145436D01*
X1811491Y-10145436D02*
X1821015Y-10154960D01*
X1821015Y-10154960D02*
X1840062Y-10164484D01*
X1840062Y-10164484D02*
X1878158Y-10164484D01*
X1878158Y-10164484D02*
X1897205Y-10154960D01*
X1897205Y-10154960D02*
X1906729Y-10145436D01*
X1906729Y-10145436D02*
X1916253Y-10126389D01*
X1916253Y-10126389D02*
X1916253Y-10088293D01*
X1916253Y-10088293D02*
X1906729Y-10069246D01*
X1906729Y-10069246D02*
X1897205Y-10059722D01*
X1897205Y-10059722D02*
X1878158Y-10050198D01*
X2040062Y-9964484D02*
X2059110Y-9964484D01*
X2059110Y-9964484D02*
X2078158Y-9974008D01*
X2078158Y-9974008D02*
X2087682Y-9983531D01*
X2087682Y-9983531D02*
X2097205Y-10002579D01*
X2097205Y-10002579D02*
X2106729Y-10040674D01*
X2106729Y-10040674D02*
X2106729Y-10088293D01*
X2106729Y-10088293D02*
X2097205Y-10126389D01*
X2097205Y-10126389D02*
X2087682Y-10145436D01*
X2087682Y-10145436D02*
X2078158Y-10154960D01*
X2078158Y-10154960D02*
X2059110Y-10164484D01*
X2059110Y-10164484D02*
X2040062Y-10164484D01*
X2040062Y-10164484D02*
X2021015Y-10154960D01*
X2021015Y-10154960D02*
X2011491Y-10145436D01*
X2011491Y-10145436D02*
X2001967Y-10126389D01*
X2001967Y-10126389D02*
X1992443Y-10088293D01*
X1992443Y-10088293D02*
X1992443Y-10040674D01*
X1992443Y-10040674D02*
X2001967Y-10002579D01*
X2001967Y-10002579D02*
X2011491Y-9983531D01*
X2011491Y-9983531D02*
X2021015Y-9974008D01*
X2021015Y-9974008D02*
X2040062Y-9964484D01*
X2230539Y-9964484D02*
X2249586Y-9964484D01*
X2249586Y-9964484D02*
X2268634Y-9974008D01*
X2268634Y-9974008D02*
X2278158Y-9983531D01*
X2278158Y-9983531D02*
X2287682Y-10002579D01*
X2287682Y-10002579D02*
X2297205Y-10040674D01*
X2297205Y-10040674D02*
X2297205Y-10088293D01*
X2297205Y-10088293D02*
X2287682Y-10126389D01*
X2287682Y-10126389D02*
X2278158Y-10145436D01*
X2278158Y-10145436D02*
X2268634Y-10154960D01*
X2268634Y-10154960D02*
X2249586Y-10164484D01*
X2249586Y-10164484D02*
X2230539Y-10164484D01*
X2230539Y-10164484D02*
X2211491Y-10154960D01*
X2211491Y-10154960D02*
X2201967Y-10145436D01*
X2201967Y-10145436D02*
X2192444Y-10126389D01*
X2192444Y-10126389D02*
X2182920Y-10088293D01*
X2182920Y-10088293D02*
X2182920Y-10040674D01*
X2182920Y-10040674D02*
X2192444Y-10002579D01*
X2192444Y-10002579D02*
X2201967Y-9983531D01*
X2201967Y-9983531D02*
X2211491Y-9974008D01*
X2211491Y-9974008D02*
X2230539Y-9964484D01*
X2382920Y-10164484D02*
X2382920Y-10031150D01*
X2382920Y-10050198D02*
X2392444Y-10040674D01*
X2392444Y-10040674D02*
X2411491Y-10031150D01*
X2411491Y-10031150D02*
X2440063Y-10031150D01*
X2440063Y-10031150D02*
X2459110Y-10040674D01*
X2459110Y-10040674D02*
X2468634Y-10059722D01*
X2468634Y-10059722D02*
X2468634Y-10164484D01*
X2468634Y-10059722D02*
X2478158Y-10040674D01*
X2478158Y-10040674D02*
X2497205Y-10031150D01*
X2497205Y-10031150D02*
X2525777Y-10031150D01*
X2525777Y-10031150D02*
X2544825Y-10040674D01*
X2544825Y-10040674D02*
X2554348Y-10059722D01*
X2554348Y-10059722D02*
X2554348Y-10164484D01*
X2649586Y-10164484D02*
X2649586Y-10031150D01*
X2649586Y-10050198D02*
X2659110Y-10040674D01*
X2659110Y-10040674D02*
X2678158Y-10031150D01*
X2678158Y-10031150D02*
X2706729Y-10031150D01*
X2706729Y-10031150D02*
X2725777Y-10040674D01*
X2725777Y-10040674D02*
X2735301Y-10059722D01*
X2735301Y-10059722D02*
X2735301Y-10164484D01*
X2735301Y-10059722D02*
X2744825Y-10040674D01*
X2744825Y-10040674D02*
X2763872Y-10031150D01*
X2763872Y-10031150D02*
X2792444Y-10031150D01*
X2792444Y-10031150D02*
X2811491Y-10040674D01*
X2811491Y-10040674D02*
X2821015Y-10059722D01*
X2821015Y-10059722D02*
X2821015Y-10164484D01*
X3211491Y-9954960D02*
X3040063Y-10212103D01*
X3468634Y-9964484D02*
X3487682Y-9964484D01*
X3487682Y-9964484D02*
X3506729Y-9974008D01*
X3506729Y-9974008D02*
X3516253Y-9983531D01*
X3516253Y-9983531D02*
X3525777Y-10002579D01*
X3525777Y-10002579D02*
X3535301Y-10040674D01*
X3535301Y-10040674D02*
X3535301Y-10088293D01*
X3535301Y-10088293D02*
X3525777Y-10126389D01*
X3525777Y-10126389D02*
X3516253Y-10145436D01*
X3516253Y-10145436D02*
X3506729Y-10154960D01*
X3506729Y-10154960D02*
X3487682Y-10164484D01*
X3487682Y-10164484D02*
X3468634Y-10164484D01*
X3468634Y-10164484D02*
X3449586Y-10154960D01*
X3449586Y-10154960D02*
X3440063Y-10145436D01*
X3440063Y-10145436D02*
X3430539Y-10126389D01*
X3430539Y-10126389D02*
X3421015Y-10088293D01*
X3421015Y-10088293D02*
X3421015Y-10040674D01*
X3421015Y-10040674D02*
X3430539Y-10002579D01*
X3430539Y-10002579D02*
X3440063Y-9983531D01*
X3440063Y-9983531D02*
X3449586Y-9974008D01*
X3449586Y-9974008D02*
X3468634Y-9964484D01*
X3621015Y-10145436D02*
X3630539Y-10154960D01*
X3630539Y-10154960D02*
X3621015Y-10164484D01*
X3621015Y-10164484D02*
X3611491Y-10154960D01*
X3611491Y-10154960D02*
X3621015Y-10145436D01*
X3621015Y-10145436D02*
X3621015Y-10164484D01*
X3754348Y-9964484D02*
X3773396Y-9964484D01*
X3773396Y-9964484D02*
X3792444Y-9974008D01*
X3792444Y-9974008D02*
X3801967Y-9983531D01*
X3801967Y-9983531D02*
X3811491Y-10002579D01*
X3811491Y-10002579D02*
X3821015Y-10040674D01*
X3821015Y-10040674D02*
X3821015Y-10088293D01*
X3821015Y-10088293D02*
X3811491Y-10126389D01*
X3811491Y-10126389D02*
X3801967Y-10145436D01*
X3801967Y-10145436D02*
X3792444Y-10154960D01*
X3792444Y-10154960D02*
X3773396Y-10164484D01*
X3773396Y-10164484D02*
X3754348Y-10164484D01*
X3754348Y-10164484D02*
X3735301Y-10154960D01*
X3735301Y-10154960D02*
X3725777Y-10145436D01*
X3725777Y-10145436D02*
X3716253Y-10126389D01*
X3716253Y-10126389D02*
X3706729Y-10088293D01*
X3706729Y-10088293D02*
X3706729Y-10040674D01*
X3706729Y-10040674D02*
X3716253Y-10002579D01*
X3716253Y-10002579D02*
X3725777Y-9983531D01*
X3725777Y-9983531D02*
X3735301Y-9974008D01*
X3735301Y-9974008D02*
X3754348Y-9964484D01*
X3887682Y-9964484D02*
X4011491Y-9964484D01*
X4011491Y-9964484D02*
X3944825Y-10040674D01*
X3944825Y-10040674D02*
X3973396Y-10040674D01*
X3973396Y-10040674D02*
X3992444Y-10050198D01*
X3992444Y-10050198D02*
X4001967Y-10059722D01*
X4001967Y-10059722D02*
X4011491Y-10078770D01*
X4011491Y-10078770D02*
X4011491Y-10126389D01*
X4011491Y-10126389D02*
X4001967Y-10145436D01*
X4001967Y-10145436D02*
X3992444Y-10154960D01*
X3992444Y-10154960D02*
X3973396Y-10164484D01*
X3973396Y-10164484D02*
X3916253Y-10164484D01*
X3916253Y-10164484D02*
X3897206Y-10154960D01*
X3897206Y-10154960D02*
X3887682Y-10145436D01*
X4201968Y-10164484D02*
X4087682Y-10164484D01*
X4144825Y-10164484D02*
X4144825Y-9964484D01*
X4144825Y-9964484D02*
X4125777Y-9993055D01*
X4125777Y-9993055D02*
X4106729Y-10012103D01*
X4106729Y-10012103D02*
X4087682Y-10021627D01*
X4382920Y-9964484D02*
X4287682Y-9964484D01*
X4287682Y-9964484D02*
X4278158Y-10059722D01*
X4278158Y-10059722D02*
X4287682Y-10050198D01*
X4287682Y-10050198D02*
X4306729Y-10040674D01*
X4306729Y-10040674D02*
X4354349Y-10040674D01*
X4354349Y-10040674D02*
X4373396Y-10050198D01*
X4373396Y-10050198D02*
X4382920Y-10059722D01*
X4382920Y-10059722D02*
X4392444Y-10078770D01*
X4392444Y-10078770D02*
X4392444Y-10126389D01*
X4392444Y-10126389D02*
X4382920Y-10145436D01*
X4382920Y-10145436D02*
X4373396Y-10154960D01*
X4373396Y-10154960D02*
X4354349Y-10164484D01*
X4354349Y-10164484D02*
X4306729Y-10164484D01*
X4306729Y-10164484D02*
X4287682Y-10154960D01*
X4287682Y-10154960D02*
X4278158Y-10145436D01*
X4468634Y-9964484D02*
X4468634Y-10002579D01*
X4544825Y-9964484D02*
X4544825Y-10002579D01*
X4840063Y-10240674D02*
X4830539Y-10231150D01*
X4830539Y-10231150D02*
X4811491Y-10202579D01*
X4811491Y-10202579D02*
X4801968Y-10183531D01*
X4801968Y-10183531D02*
X4792444Y-10154960D01*
X4792444Y-10154960D02*
X4782920Y-10107341D01*
X4782920Y-10107341D02*
X4782920Y-10069246D01*
X4782920Y-10069246D02*
X4792444Y-10021627D01*
X4792444Y-10021627D02*
X4801968Y-9993055D01*
X4801968Y-9993055D02*
X4811491Y-9974008D01*
X4811491Y-9974008D02*
X4830539Y-9945436D01*
X4830539Y-9945436D02*
X4840063Y-9935912D01*
X5001968Y-9964484D02*
X4963872Y-9964484D01*
X4963872Y-9964484D02*
X4944825Y-9974008D01*
X4944825Y-9974008D02*
X4935301Y-9983531D01*
X4935301Y-9983531D02*
X4916253Y-10012103D01*
X4916253Y-10012103D02*
X4906730Y-10050198D01*
X4906730Y-10050198D02*
X4906730Y-10126389D01*
X4906730Y-10126389D02*
X4916253Y-10145436D01*
X4916253Y-10145436D02*
X4925777Y-10154960D01*
X4925777Y-10154960D02*
X4944825Y-10164484D01*
X4944825Y-10164484D02*
X4982920Y-10164484D01*
X4982920Y-10164484D02*
X5001968Y-10154960D01*
X5001968Y-10154960D02*
X5011491Y-10145436D01*
X5011491Y-10145436D02*
X5021015Y-10126389D01*
X5021015Y-10126389D02*
X5021015Y-10078770D01*
X5021015Y-10078770D02*
X5011491Y-10059722D01*
X5011491Y-10059722D02*
X5001968Y-10050198D01*
X5001968Y-10050198D02*
X4982920Y-10040674D01*
X4982920Y-10040674D02*
X4944825Y-10040674D01*
X4944825Y-10040674D02*
X4925777Y-10050198D01*
X4925777Y-10050198D02*
X4916253Y-10059722D01*
X4916253Y-10059722D02*
X4906730Y-10078770D01*
X5192444Y-10031150D02*
X5192444Y-10164484D01*
X5144825Y-9954960D02*
X5097206Y-10097817D01*
X5097206Y-10097817D02*
X5221015Y-10097817D01*
X5449587Y-10164484D02*
X5449587Y-9964484D01*
X5535301Y-10164484D02*
X5535301Y-10059722D01*
X5535301Y-10059722D02*
X5525777Y-10040674D01*
X5525777Y-10040674D02*
X5506730Y-10031150D01*
X5506730Y-10031150D02*
X5478158Y-10031150D01*
X5478158Y-10031150D02*
X5459111Y-10040674D01*
X5459111Y-10040674D02*
X5449587Y-10050198D01*
X5659110Y-10164484D02*
X5640063Y-10154960D01*
X5640063Y-10154960D02*
X5630539Y-10145436D01*
X5630539Y-10145436D02*
X5621015Y-10126389D01*
X5621015Y-10126389D02*
X5621015Y-10069246D01*
X5621015Y-10069246D02*
X5630539Y-10050198D01*
X5630539Y-10050198D02*
X5640063Y-10040674D01*
X5640063Y-10040674D02*
X5659110Y-10031150D01*
X5659110Y-10031150D02*
X5687682Y-10031150D01*
X5687682Y-10031150D02*
X5706730Y-10040674D01*
X5706730Y-10040674D02*
X5716253Y-10050198D01*
X5716253Y-10050198D02*
X5725777Y-10069246D01*
X5725777Y-10069246D02*
X5725777Y-10126389D01*
X5725777Y-10126389D02*
X5716253Y-10145436D01*
X5716253Y-10145436D02*
X5706730Y-10154960D01*
X5706730Y-10154960D02*
X5687682Y-10164484D01*
X5687682Y-10164484D02*
X5659110Y-10164484D01*
X5840063Y-10164484D02*
X5821015Y-10154960D01*
X5821015Y-10154960D02*
X5811491Y-10135912D01*
X5811491Y-10135912D02*
X5811491Y-9964484D01*
X5992444Y-10154960D02*
X5973396Y-10164484D01*
X5973396Y-10164484D02*
X5935301Y-10164484D01*
X5935301Y-10164484D02*
X5916253Y-10154960D01*
X5916253Y-10154960D02*
X5906730Y-10135912D01*
X5906730Y-10135912D02*
X5906730Y-10059722D01*
X5906730Y-10059722D02*
X5916253Y-10040674D01*
X5916253Y-10040674D02*
X5935301Y-10031150D01*
X5935301Y-10031150D02*
X5973396Y-10031150D01*
X5973396Y-10031150D02*
X5992444Y-10040674D01*
X5992444Y-10040674D02*
X6001968Y-10059722D01*
X6001968Y-10059722D02*
X6001968Y-10078770D01*
X6001968Y-10078770D02*
X5906730Y-10097817D01*
X6078158Y-10154960D02*
X6097206Y-10164484D01*
X6097206Y-10164484D02*
X6135301Y-10164484D01*
X6135301Y-10164484D02*
X6154349Y-10154960D01*
X6154349Y-10154960D02*
X6163872Y-10135912D01*
X6163872Y-10135912D02*
X6163872Y-10126389D01*
X6163872Y-10126389D02*
X6154349Y-10107341D01*
X6154349Y-10107341D02*
X6135301Y-10097817D01*
X6135301Y-10097817D02*
X6106730Y-10097817D01*
X6106730Y-10097817D02*
X6087682Y-10088293D01*
X6087682Y-10088293D02*
X6078158Y-10069246D01*
X6078158Y-10069246D02*
X6078158Y-10059722D01*
X6078158Y-10059722D02*
X6087682Y-10040674D01*
X6087682Y-10040674D02*
X6106730Y-10031150D01*
X6106730Y-10031150D02*
X6135301Y-10031150D01*
X6135301Y-10031150D02*
X6154349Y-10040674D01*
X6230539Y-10240674D02*
X6240063Y-10231150D01*
X6240063Y-10231150D02*
X6259111Y-10202579D01*
X6259111Y-10202579D02*
X6268634Y-10183531D01*
X6268634Y-10183531D02*
X6278158Y-10154960D01*
X6278158Y-10154960D02*
X6287682Y-10107341D01*
X6287682Y-10107341D02*
X6287682Y-10069246D01*
X6287682Y-10069246D02*
X6278158Y-10021627D01*
X6278158Y-10021627D02*
X6268634Y-9993055D01*
X6268634Y-9993055D02*
X6259111Y-9974008D01*
X6259111Y-9974008D02*
X6240063Y-9945436D01*
X6240063Y-9945436D02*
X6230539Y-9935912D01*
D16*
X1220000Y-10382000D02*
X1265000Y-10337000D01*
X1220000Y-10292000D01*
X1175000Y-10337000D01*
X1220000Y-10382000D01*
D11*
X1563872Y-10228484D02*
X1582920Y-10228484D01*
X1582920Y-10228484D02*
X1601967Y-10238008D01*
X1601967Y-10238008D02*
X1611491Y-10247531D01*
X1611491Y-10247531D02*
X1621015Y-10266579D01*
X1621015Y-10266579D02*
X1630539Y-10304674D01*
X1630539Y-10304674D02*
X1630539Y-10352293D01*
X1630539Y-10352293D02*
X1621015Y-10390389D01*
X1621015Y-10390389D02*
X1611491Y-10409436D01*
X1611491Y-10409436D02*
X1601967Y-10418960D01*
X1601967Y-10418960D02*
X1582920Y-10428484D01*
X1582920Y-10428484D02*
X1563872Y-10428484D01*
X1563872Y-10428484D02*
X1544824Y-10418960D01*
X1544824Y-10418960D02*
X1535301Y-10409436D01*
X1535301Y-10409436D02*
X1525777Y-10390389D01*
X1525777Y-10390389D02*
X1516253Y-10352293D01*
X1516253Y-10352293D02*
X1516253Y-10304674D01*
X1516253Y-10304674D02*
X1525777Y-10266579D01*
X1525777Y-10266579D02*
X1535301Y-10247531D01*
X1535301Y-10247531D02*
X1544824Y-10238008D01*
X1544824Y-10238008D02*
X1563872Y-10228484D01*
X1716253Y-10409436D02*
X1725777Y-10418960D01*
X1725777Y-10418960D02*
X1716253Y-10428484D01*
X1716253Y-10428484D02*
X1706729Y-10418960D01*
X1706729Y-10418960D02*
X1716253Y-10409436D01*
X1716253Y-10409436D02*
X1716253Y-10428484D01*
X1821015Y-10428484D02*
X1859110Y-10428484D01*
X1859110Y-10428484D02*
X1878158Y-10418960D01*
X1878158Y-10418960D02*
X1887682Y-10409436D01*
X1887682Y-10409436D02*
X1906729Y-10380865D01*
X1906729Y-10380865D02*
X1916253Y-10342770D01*
X1916253Y-10342770D02*
X1916253Y-10266579D01*
X1916253Y-10266579D02*
X1906729Y-10247531D01*
X1906729Y-10247531D02*
X1897205Y-10238008D01*
X1897205Y-10238008D02*
X1878158Y-10228484D01*
X1878158Y-10228484D02*
X1840062Y-10228484D01*
X1840062Y-10228484D02*
X1821015Y-10238008D01*
X1821015Y-10238008D02*
X1811491Y-10247531D01*
X1811491Y-10247531D02*
X1801967Y-10266579D01*
X1801967Y-10266579D02*
X1801967Y-10314198D01*
X1801967Y-10314198D02*
X1811491Y-10333246D01*
X1811491Y-10333246D02*
X1821015Y-10342770D01*
X1821015Y-10342770D02*
X1840062Y-10352293D01*
X1840062Y-10352293D02*
X1878158Y-10352293D01*
X1878158Y-10352293D02*
X1897205Y-10342770D01*
X1897205Y-10342770D02*
X1906729Y-10333246D01*
X1906729Y-10333246D02*
X1916253Y-10314198D01*
X2040062Y-10228484D02*
X2059110Y-10228484D01*
X2059110Y-10228484D02*
X2078158Y-10238008D01*
X2078158Y-10238008D02*
X2087682Y-10247531D01*
X2087682Y-10247531D02*
X2097205Y-10266579D01*
X2097205Y-10266579D02*
X2106729Y-10304674D01*
X2106729Y-10304674D02*
X2106729Y-10352293D01*
X2106729Y-10352293D02*
X2097205Y-10390389D01*
X2097205Y-10390389D02*
X2087682Y-10409436D01*
X2087682Y-10409436D02*
X2078158Y-10418960D01*
X2078158Y-10418960D02*
X2059110Y-10428484D01*
X2059110Y-10428484D02*
X2040062Y-10428484D01*
X2040062Y-10428484D02*
X2021015Y-10418960D01*
X2021015Y-10418960D02*
X2011491Y-10409436D01*
X2011491Y-10409436D02*
X2001967Y-10390389D01*
X2001967Y-10390389D02*
X1992443Y-10352293D01*
X1992443Y-10352293D02*
X1992443Y-10304674D01*
X1992443Y-10304674D02*
X2001967Y-10266579D01*
X2001967Y-10266579D02*
X2011491Y-10247531D01*
X2011491Y-10247531D02*
X2021015Y-10238008D01*
X2021015Y-10238008D02*
X2040062Y-10228484D01*
X2230539Y-10228484D02*
X2249586Y-10228484D01*
X2249586Y-10228484D02*
X2268634Y-10238008D01*
X2268634Y-10238008D02*
X2278158Y-10247531D01*
X2278158Y-10247531D02*
X2287682Y-10266579D01*
X2287682Y-10266579D02*
X2297205Y-10304674D01*
X2297205Y-10304674D02*
X2297205Y-10352293D01*
X2297205Y-10352293D02*
X2287682Y-10390389D01*
X2287682Y-10390389D02*
X2278158Y-10409436D01*
X2278158Y-10409436D02*
X2268634Y-10418960D01*
X2268634Y-10418960D02*
X2249586Y-10428484D01*
X2249586Y-10428484D02*
X2230539Y-10428484D01*
X2230539Y-10428484D02*
X2211491Y-10418960D01*
X2211491Y-10418960D02*
X2201967Y-10409436D01*
X2201967Y-10409436D02*
X2192444Y-10390389D01*
X2192444Y-10390389D02*
X2182920Y-10352293D01*
X2182920Y-10352293D02*
X2182920Y-10304674D01*
X2182920Y-10304674D02*
X2192444Y-10266579D01*
X2192444Y-10266579D02*
X2201967Y-10247531D01*
X2201967Y-10247531D02*
X2211491Y-10238008D01*
X2211491Y-10238008D02*
X2230539Y-10228484D01*
X2382920Y-10428484D02*
X2382920Y-10295150D01*
X2382920Y-10314198D02*
X2392444Y-10304674D01*
X2392444Y-10304674D02*
X2411491Y-10295150D01*
X2411491Y-10295150D02*
X2440063Y-10295150D01*
X2440063Y-10295150D02*
X2459110Y-10304674D01*
X2459110Y-10304674D02*
X2468634Y-10323722D01*
X2468634Y-10323722D02*
X2468634Y-10428484D01*
X2468634Y-10323722D02*
X2478158Y-10304674D01*
X2478158Y-10304674D02*
X2497205Y-10295150D01*
X2497205Y-10295150D02*
X2525777Y-10295150D01*
X2525777Y-10295150D02*
X2544825Y-10304674D01*
X2544825Y-10304674D02*
X2554348Y-10323722D01*
X2554348Y-10323722D02*
X2554348Y-10428484D01*
X2649586Y-10428484D02*
X2649586Y-10295150D01*
X2649586Y-10314198D02*
X2659110Y-10304674D01*
X2659110Y-10304674D02*
X2678158Y-10295150D01*
X2678158Y-10295150D02*
X2706729Y-10295150D01*
X2706729Y-10295150D02*
X2725777Y-10304674D01*
X2725777Y-10304674D02*
X2735301Y-10323722D01*
X2735301Y-10323722D02*
X2735301Y-10428484D01*
X2735301Y-10323722D02*
X2744825Y-10304674D01*
X2744825Y-10304674D02*
X2763872Y-10295150D01*
X2763872Y-10295150D02*
X2792444Y-10295150D01*
X2792444Y-10295150D02*
X2811491Y-10304674D01*
X2811491Y-10304674D02*
X2821015Y-10323722D01*
X2821015Y-10323722D02*
X2821015Y-10428484D01*
X3211491Y-10218960D02*
X3040063Y-10476103D01*
X3468634Y-10228484D02*
X3487682Y-10228484D01*
X3487682Y-10228484D02*
X3506729Y-10238008D01*
X3506729Y-10238008D02*
X3516253Y-10247531D01*
X3516253Y-10247531D02*
X3525777Y-10266579D01*
X3525777Y-10266579D02*
X3535301Y-10304674D01*
X3535301Y-10304674D02*
X3535301Y-10352293D01*
X3535301Y-10352293D02*
X3525777Y-10390389D01*
X3525777Y-10390389D02*
X3516253Y-10409436D01*
X3516253Y-10409436D02*
X3506729Y-10418960D01*
X3506729Y-10418960D02*
X3487682Y-10428484D01*
X3487682Y-10428484D02*
X3468634Y-10428484D01*
X3468634Y-10428484D02*
X3449586Y-10418960D01*
X3449586Y-10418960D02*
X3440063Y-10409436D01*
X3440063Y-10409436D02*
X3430539Y-10390389D01*
X3430539Y-10390389D02*
X3421015Y-10352293D01*
X3421015Y-10352293D02*
X3421015Y-10304674D01*
X3421015Y-10304674D02*
X3430539Y-10266579D01*
X3430539Y-10266579D02*
X3440063Y-10247531D01*
X3440063Y-10247531D02*
X3449586Y-10238008D01*
X3449586Y-10238008D02*
X3468634Y-10228484D01*
X3621015Y-10409436D02*
X3630539Y-10418960D01*
X3630539Y-10418960D02*
X3621015Y-10428484D01*
X3621015Y-10428484D02*
X3611491Y-10418960D01*
X3611491Y-10418960D02*
X3621015Y-10409436D01*
X3621015Y-10409436D02*
X3621015Y-10428484D01*
X3754348Y-10228484D02*
X3773396Y-10228484D01*
X3773396Y-10228484D02*
X3792444Y-10238008D01*
X3792444Y-10238008D02*
X3801967Y-10247531D01*
X3801967Y-10247531D02*
X3811491Y-10266579D01*
X3811491Y-10266579D02*
X3821015Y-10304674D01*
X3821015Y-10304674D02*
X3821015Y-10352293D01*
X3821015Y-10352293D02*
X3811491Y-10390389D01*
X3811491Y-10390389D02*
X3801967Y-10409436D01*
X3801967Y-10409436D02*
X3792444Y-10418960D01*
X3792444Y-10418960D02*
X3773396Y-10428484D01*
X3773396Y-10428484D02*
X3754348Y-10428484D01*
X3754348Y-10428484D02*
X3735301Y-10418960D01*
X3735301Y-10418960D02*
X3725777Y-10409436D01*
X3725777Y-10409436D02*
X3716253Y-10390389D01*
X3716253Y-10390389D02*
X3706729Y-10352293D01*
X3706729Y-10352293D02*
X3706729Y-10304674D01*
X3706729Y-10304674D02*
X3716253Y-10266579D01*
X3716253Y-10266579D02*
X3725777Y-10247531D01*
X3725777Y-10247531D02*
X3735301Y-10238008D01*
X3735301Y-10238008D02*
X3754348Y-10228484D01*
X3887682Y-10228484D02*
X4011491Y-10228484D01*
X4011491Y-10228484D02*
X3944825Y-10304674D01*
X3944825Y-10304674D02*
X3973396Y-10304674D01*
X3973396Y-10304674D02*
X3992444Y-10314198D01*
X3992444Y-10314198D02*
X4001967Y-10323722D01*
X4001967Y-10323722D02*
X4011491Y-10342770D01*
X4011491Y-10342770D02*
X4011491Y-10390389D01*
X4011491Y-10390389D02*
X4001967Y-10409436D01*
X4001967Y-10409436D02*
X3992444Y-10418960D01*
X3992444Y-10418960D02*
X3973396Y-10428484D01*
X3973396Y-10428484D02*
X3916253Y-10428484D01*
X3916253Y-10428484D02*
X3897206Y-10418960D01*
X3897206Y-10418960D02*
X3887682Y-10409436D01*
X4192444Y-10228484D02*
X4097206Y-10228484D01*
X4097206Y-10228484D02*
X4087682Y-10323722D01*
X4087682Y-10323722D02*
X4097206Y-10314198D01*
X4097206Y-10314198D02*
X4116253Y-10304674D01*
X4116253Y-10304674D02*
X4163872Y-10304674D01*
X4163872Y-10304674D02*
X4182920Y-10314198D01*
X4182920Y-10314198D02*
X4192444Y-10323722D01*
X4192444Y-10323722D02*
X4201968Y-10342770D01*
X4201968Y-10342770D02*
X4201968Y-10390389D01*
X4201968Y-10390389D02*
X4192444Y-10409436D01*
X4192444Y-10409436D02*
X4182920Y-10418960D01*
X4182920Y-10418960D02*
X4163872Y-10428484D01*
X4163872Y-10428484D02*
X4116253Y-10428484D01*
X4116253Y-10428484D02*
X4097206Y-10418960D01*
X4097206Y-10418960D02*
X4087682Y-10409436D01*
X4373396Y-10295150D02*
X4373396Y-10428484D01*
X4325777Y-10218960D02*
X4278158Y-10361817D01*
X4278158Y-10361817D02*
X4401968Y-10361817D01*
X4468634Y-10228484D02*
X4468634Y-10266579D01*
X4544825Y-10228484D02*
X4544825Y-10266579D01*
X4840063Y-10504674D02*
X4830539Y-10495150D01*
X4830539Y-10495150D02*
X4811491Y-10466579D01*
X4811491Y-10466579D02*
X4801968Y-10447531D01*
X4801968Y-10447531D02*
X4792444Y-10418960D01*
X4792444Y-10418960D02*
X4782920Y-10371341D01*
X4782920Y-10371341D02*
X4782920Y-10333246D01*
X4782920Y-10333246D02*
X4792444Y-10285627D01*
X4792444Y-10285627D02*
X4801968Y-10257055D01*
X4801968Y-10257055D02*
X4811491Y-10238008D01*
X4811491Y-10238008D02*
X4830539Y-10209436D01*
X4830539Y-10209436D02*
X4840063Y-10199912D01*
X5001968Y-10295150D02*
X5001968Y-10428484D01*
X4954349Y-10218960D02*
X4906730Y-10361817D01*
X4906730Y-10361817D02*
X5030539Y-10361817D01*
X5259111Y-10428484D02*
X5259111Y-10228484D01*
X5344825Y-10428484D02*
X5344825Y-10323722D01*
X5344825Y-10323722D02*
X5335301Y-10304674D01*
X5335301Y-10304674D02*
X5316253Y-10295150D01*
X5316253Y-10295150D02*
X5287682Y-10295150D01*
X5287682Y-10295150D02*
X5268634Y-10304674D01*
X5268634Y-10304674D02*
X5259111Y-10314198D01*
X5468634Y-10428484D02*
X5449587Y-10418960D01*
X5449587Y-10418960D02*
X5440063Y-10409436D01*
X5440063Y-10409436D02*
X5430539Y-10390389D01*
X5430539Y-10390389D02*
X5430539Y-10333246D01*
X5430539Y-10333246D02*
X5440063Y-10314198D01*
X5440063Y-10314198D02*
X5449587Y-10304674D01*
X5449587Y-10304674D02*
X5468634Y-10295150D01*
X5468634Y-10295150D02*
X5497206Y-10295150D01*
X5497206Y-10295150D02*
X5516253Y-10304674D01*
X5516253Y-10304674D02*
X5525777Y-10314198D01*
X5525777Y-10314198D02*
X5535301Y-10333246D01*
X5535301Y-10333246D02*
X5535301Y-10390389D01*
X5535301Y-10390389D02*
X5525777Y-10409436D01*
X5525777Y-10409436D02*
X5516253Y-10418960D01*
X5516253Y-10418960D02*
X5497206Y-10428484D01*
X5497206Y-10428484D02*
X5468634Y-10428484D01*
X5649587Y-10428484D02*
X5630539Y-10418960D01*
X5630539Y-10418960D02*
X5621015Y-10399912D01*
X5621015Y-10399912D02*
X5621015Y-10228484D01*
X5801968Y-10418960D02*
X5782920Y-10428484D01*
X5782920Y-10428484D02*
X5744825Y-10428484D01*
X5744825Y-10428484D02*
X5725777Y-10418960D01*
X5725777Y-10418960D02*
X5716253Y-10399912D01*
X5716253Y-10399912D02*
X5716253Y-10323722D01*
X5716253Y-10323722D02*
X5725777Y-10304674D01*
X5725777Y-10304674D02*
X5744825Y-10295150D01*
X5744825Y-10295150D02*
X5782920Y-10295150D01*
X5782920Y-10295150D02*
X5801968Y-10304674D01*
X5801968Y-10304674D02*
X5811491Y-10323722D01*
X5811491Y-10323722D02*
X5811491Y-10342770D01*
X5811491Y-10342770D02*
X5716253Y-10361817D01*
X5887682Y-10418960D02*
X5906730Y-10428484D01*
X5906730Y-10428484D02*
X5944825Y-10428484D01*
X5944825Y-10428484D02*
X5963872Y-10418960D01*
X5963872Y-10418960D02*
X5973396Y-10399912D01*
X5973396Y-10399912D02*
X5973396Y-10390389D01*
X5973396Y-10390389D02*
X5963872Y-10371341D01*
X5963872Y-10371341D02*
X5944825Y-10361817D01*
X5944825Y-10361817D02*
X5916253Y-10361817D01*
X5916253Y-10361817D02*
X5897206Y-10352293D01*
X5897206Y-10352293D02*
X5887682Y-10333246D01*
X5887682Y-10333246D02*
X5887682Y-10323722D01*
X5887682Y-10323722D02*
X5897206Y-10304674D01*
X5897206Y-10304674D02*
X5916253Y-10295150D01*
X5916253Y-10295150D02*
X5944825Y-10295150D01*
X5944825Y-10295150D02*
X5963872Y-10304674D01*
X6040063Y-10504674D02*
X6049587Y-10495150D01*
X6049587Y-10495150D02*
X6068634Y-10466579D01*
X6068634Y-10466579D02*
X6078158Y-10447531D01*
X6078158Y-10447531D02*
X6087682Y-10418960D01*
X6087682Y-10418960D02*
X6097206Y-10371341D01*
X6097206Y-10371341D02*
X6097206Y-10333246D01*
X6097206Y-10333246D02*
X6087682Y-10285627D01*
X6087682Y-10285627D02*
X6078158Y-10257055D01*
X6078158Y-10257055D02*
X6068634Y-10238008D01*
X6068634Y-10238008D02*
X6049587Y-10209436D01*
X6049587Y-10209436D02*
X6040063Y-10199912D01*
D10*
X1165000Y-10551000D02*
X1265000Y-10651000D01*
X1265000Y-10551000D02*
X1165000Y-10651000D01*
X1265000Y-10601000D02*
G75*
G03*
X1265000Y-10601000I-50000J0D01*
G01*
D11*
X1630539Y-10692484D02*
X1516253Y-10692484D01*
X1573396Y-10692484D02*
X1573396Y-10492484D01*
X1573396Y-10492484D02*
X1554348Y-10521055D01*
X1554348Y-10521055D02*
X1535301Y-10540103D01*
X1535301Y-10540103D02*
X1516253Y-10549627D01*
X1716253Y-10673436D02*
X1725777Y-10682960D01*
X1725777Y-10682960D02*
X1716253Y-10692484D01*
X1716253Y-10692484D02*
X1706729Y-10682960D01*
X1706729Y-10682960D02*
X1716253Y-10673436D01*
X1716253Y-10673436D02*
X1716253Y-10692484D01*
X1849586Y-10492484D02*
X1868634Y-10492484D01*
X1868634Y-10492484D02*
X1887682Y-10502008D01*
X1887682Y-10502008D02*
X1897205Y-10511531D01*
X1897205Y-10511531D02*
X1906729Y-10530579D01*
X1906729Y-10530579D02*
X1916253Y-10568674D01*
X1916253Y-10568674D02*
X1916253Y-10616293D01*
X1916253Y-10616293D02*
X1906729Y-10654389D01*
X1906729Y-10654389D02*
X1897205Y-10673436D01*
X1897205Y-10673436D02*
X1887682Y-10682960D01*
X1887682Y-10682960D02*
X1868634Y-10692484D01*
X1868634Y-10692484D02*
X1849586Y-10692484D01*
X1849586Y-10692484D02*
X1830539Y-10682960D01*
X1830539Y-10682960D02*
X1821015Y-10673436D01*
X1821015Y-10673436D02*
X1811491Y-10654389D01*
X1811491Y-10654389D02*
X1801967Y-10616293D01*
X1801967Y-10616293D02*
X1801967Y-10568674D01*
X1801967Y-10568674D02*
X1811491Y-10530579D01*
X1811491Y-10530579D02*
X1821015Y-10511531D01*
X1821015Y-10511531D02*
X1830539Y-10502008D01*
X1830539Y-10502008D02*
X1849586Y-10492484D01*
X2040062Y-10492484D02*
X2059110Y-10492484D01*
X2059110Y-10492484D02*
X2078158Y-10502008D01*
X2078158Y-10502008D02*
X2087682Y-10511531D01*
X2087682Y-10511531D02*
X2097205Y-10530579D01*
X2097205Y-10530579D02*
X2106729Y-10568674D01*
X2106729Y-10568674D02*
X2106729Y-10616293D01*
X2106729Y-10616293D02*
X2097205Y-10654389D01*
X2097205Y-10654389D02*
X2087682Y-10673436D01*
X2087682Y-10673436D02*
X2078158Y-10682960D01*
X2078158Y-10682960D02*
X2059110Y-10692484D01*
X2059110Y-10692484D02*
X2040062Y-10692484D01*
X2040062Y-10692484D02*
X2021015Y-10682960D01*
X2021015Y-10682960D02*
X2011491Y-10673436D01*
X2011491Y-10673436D02*
X2001967Y-10654389D01*
X2001967Y-10654389D02*
X1992443Y-10616293D01*
X1992443Y-10616293D02*
X1992443Y-10568674D01*
X1992443Y-10568674D02*
X2001967Y-10530579D01*
X2001967Y-10530579D02*
X2011491Y-10511531D01*
X2011491Y-10511531D02*
X2021015Y-10502008D01*
X2021015Y-10502008D02*
X2040062Y-10492484D01*
X2230539Y-10492484D02*
X2249586Y-10492484D01*
X2249586Y-10492484D02*
X2268634Y-10502008D01*
X2268634Y-10502008D02*
X2278158Y-10511531D01*
X2278158Y-10511531D02*
X2287682Y-10530579D01*
X2287682Y-10530579D02*
X2297205Y-10568674D01*
X2297205Y-10568674D02*
X2297205Y-10616293D01*
X2297205Y-10616293D02*
X2287682Y-10654389D01*
X2287682Y-10654389D02*
X2278158Y-10673436D01*
X2278158Y-10673436D02*
X2268634Y-10682960D01*
X2268634Y-10682960D02*
X2249586Y-10692484D01*
X2249586Y-10692484D02*
X2230539Y-10692484D01*
X2230539Y-10692484D02*
X2211491Y-10682960D01*
X2211491Y-10682960D02*
X2201967Y-10673436D01*
X2201967Y-10673436D02*
X2192444Y-10654389D01*
X2192444Y-10654389D02*
X2182920Y-10616293D01*
X2182920Y-10616293D02*
X2182920Y-10568674D01*
X2182920Y-10568674D02*
X2192444Y-10530579D01*
X2192444Y-10530579D02*
X2201967Y-10511531D01*
X2201967Y-10511531D02*
X2211491Y-10502008D01*
X2211491Y-10502008D02*
X2230539Y-10492484D01*
X2382920Y-10692484D02*
X2382920Y-10559150D01*
X2382920Y-10578198D02*
X2392444Y-10568674D01*
X2392444Y-10568674D02*
X2411491Y-10559150D01*
X2411491Y-10559150D02*
X2440063Y-10559150D01*
X2440063Y-10559150D02*
X2459110Y-10568674D01*
X2459110Y-10568674D02*
X2468634Y-10587722D01*
X2468634Y-10587722D02*
X2468634Y-10692484D01*
X2468634Y-10587722D02*
X2478158Y-10568674D01*
X2478158Y-10568674D02*
X2497205Y-10559150D01*
X2497205Y-10559150D02*
X2525777Y-10559150D01*
X2525777Y-10559150D02*
X2544825Y-10568674D01*
X2544825Y-10568674D02*
X2554348Y-10587722D01*
X2554348Y-10587722D02*
X2554348Y-10692484D01*
X2649586Y-10692484D02*
X2649586Y-10559150D01*
X2649586Y-10578198D02*
X2659110Y-10568674D01*
X2659110Y-10568674D02*
X2678158Y-10559150D01*
X2678158Y-10559150D02*
X2706729Y-10559150D01*
X2706729Y-10559150D02*
X2725777Y-10568674D01*
X2725777Y-10568674D02*
X2735301Y-10587722D01*
X2735301Y-10587722D02*
X2735301Y-10692484D01*
X2735301Y-10587722D02*
X2744825Y-10568674D01*
X2744825Y-10568674D02*
X2763872Y-10559150D01*
X2763872Y-10559150D02*
X2792444Y-10559150D01*
X2792444Y-10559150D02*
X2811491Y-10568674D01*
X2811491Y-10568674D02*
X2821015Y-10587722D01*
X2821015Y-10587722D02*
X2821015Y-10692484D01*
X3211491Y-10482960D02*
X3040063Y-10740103D01*
X3468634Y-10492484D02*
X3487682Y-10492484D01*
X3487682Y-10492484D02*
X3506729Y-10502008D01*
X3506729Y-10502008D02*
X3516253Y-10511531D01*
X3516253Y-10511531D02*
X3525777Y-10530579D01*
X3525777Y-10530579D02*
X3535301Y-10568674D01*
X3535301Y-10568674D02*
X3535301Y-10616293D01*
X3535301Y-10616293D02*
X3525777Y-10654389D01*
X3525777Y-10654389D02*
X3516253Y-10673436D01*
X3516253Y-10673436D02*
X3506729Y-10682960D01*
X3506729Y-10682960D02*
X3487682Y-10692484D01*
X3487682Y-10692484D02*
X3468634Y-10692484D01*
X3468634Y-10692484D02*
X3449586Y-10682960D01*
X3449586Y-10682960D02*
X3440063Y-10673436D01*
X3440063Y-10673436D02*
X3430539Y-10654389D01*
X3430539Y-10654389D02*
X3421015Y-10616293D01*
X3421015Y-10616293D02*
X3421015Y-10568674D01*
X3421015Y-10568674D02*
X3430539Y-10530579D01*
X3430539Y-10530579D02*
X3440063Y-10511531D01*
X3440063Y-10511531D02*
X3449586Y-10502008D01*
X3449586Y-10502008D02*
X3468634Y-10492484D01*
X3621015Y-10673436D02*
X3630539Y-10682960D01*
X3630539Y-10682960D02*
X3621015Y-10692484D01*
X3621015Y-10692484D02*
X3611491Y-10682960D01*
X3611491Y-10682960D02*
X3621015Y-10673436D01*
X3621015Y-10673436D02*
X3621015Y-10692484D01*
X3754348Y-10492484D02*
X3773396Y-10492484D01*
X3773396Y-10492484D02*
X3792444Y-10502008D01*
X3792444Y-10502008D02*
X3801967Y-10511531D01*
X3801967Y-10511531D02*
X3811491Y-10530579D01*
X3811491Y-10530579D02*
X3821015Y-10568674D01*
X3821015Y-10568674D02*
X3821015Y-10616293D01*
X3821015Y-10616293D02*
X3811491Y-10654389D01*
X3811491Y-10654389D02*
X3801967Y-10673436D01*
X3801967Y-10673436D02*
X3792444Y-10682960D01*
X3792444Y-10682960D02*
X3773396Y-10692484D01*
X3773396Y-10692484D02*
X3754348Y-10692484D01*
X3754348Y-10692484D02*
X3735301Y-10682960D01*
X3735301Y-10682960D02*
X3725777Y-10673436D01*
X3725777Y-10673436D02*
X3716253Y-10654389D01*
X3716253Y-10654389D02*
X3706729Y-10616293D01*
X3706729Y-10616293D02*
X3706729Y-10568674D01*
X3706729Y-10568674D02*
X3716253Y-10530579D01*
X3716253Y-10530579D02*
X3725777Y-10511531D01*
X3725777Y-10511531D02*
X3735301Y-10502008D01*
X3735301Y-10502008D02*
X3754348Y-10492484D01*
X3887682Y-10492484D02*
X4011491Y-10492484D01*
X4011491Y-10492484D02*
X3944825Y-10568674D01*
X3944825Y-10568674D02*
X3973396Y-10568674D01*
X3973396Y-10568674D02*
X3992444Y-10578198D01*
X3992444Y-10578198D02*
X4001967Y-10587722D01*
X4001967Y-10587722D02*
X4011491Y-10606770D01*
X4011491Y-10606770D02*
X4011491Y-10654389D01*
X4011491Y-10654389D02*
X4001967Y-10673436D01*
X4001967Y-10673436D02*
X3992444Y-10682960D01*
X3992444Y-10682960D02*
X3973396Y-10692484D01*
X3973396Y-10692484D02*
X3916253Y-10692484D01*
X3916253Y-10692484D02*
X3897206Y-10682960D01*
X3897206Y-10682960D02*
X3887682Y-10673436D01*
X4106729Y-10692484D02*
X4144825Y-10692484D01*
X4144825Y-10692484D02*
X4163872Y-10682960D01*
X4163872Y-10682960D02*
X4173396Y-10673436D01*
X4173396Y-10673436D02*
X4192444Y-10644865D01*
X4192444Y-10644865D02*
X4201968Y-10606770D01*
X4201968Y-10606770D02*
X4201968Y-10530579D01*
X4201968Y-10530579D02*
X4192444Y-10511531D01*
X4192444Y-10511531D02*
X4182920Y-10502008D01*
X4182920Y-10502008D02*
X4163872Y-10492484D01*
X4163872Y-10492484D02*
X4125777Y-10492484D01*
X4125777Y-10492484D02*
X4106729Y-10502008D01*
X4106729Y-10502008D02*
X4097206Y-10511531D01*
X4097206Y-10511531D02*
X4087682Y-10530579D01*
X4087682Y-10530579D02*
X4087682Y-10578198D01*
X4087682Y-10578198D02*
X4097206Y-10597246D01*
X4097206Y-10597246D02*
X4106729Y-10606770D01*
X4106729Y-10606770D02*
X4125777Y-10616293D01*
X4125777Y-10616293D02*
X4163872Y-10616293D01*
X4163872Y-10616293D02*
X4182920Y-10606770D01*
X4182920Y-10606770D02*
X4192444Y-10597246D01*
X4192444Y-10597246D02*
X4201968Y-10578198D01*
X4373396Y-10559150D02*
X4373396Y-10692484D01*
X4325777Y-10482960D02*
X4278158Y-10625817D01*
X4278158Y-10625817D02*
X4401968Y-10625817D01*
X4468634Y-10492484D02*
X4468634Y-10530579D01*
X4544825Y-10492484D02*
X4544825Y-10530579D01*
X4840063Y-10768674D02*
X4830539Y-10759150D01*
X4830539Y-10759150D02*
X4811491Y-10730579D01*
X4811491Y-10730579D02*
X4801968Y-10711531D01*
X4801968Y-10711531D02*
X4792444Y-10682960D01*
X4792444Y-10682960D02*
X4782920Y-10635341D01*
X4782920Y-10635341D02*
X4782920Y-10597246D01*
X4782920Y-10597246D02*
X4792444Y-10549627D01*
X4792444Y-10549627D02*
X4801968Y-10521055D01*
X4801968Y-10521055D02*
X4811491Y-10502008D01*
X4811491Y-10502008D02*
X4830539Y-10473436D01*
X4830539Y-10473436D02*
X4840063Y-10463912D01*
X4906730Y-10511531D02*
X4916253Y-10502008D01*
X4916253Y-10502008D02*
X4935301Y-10492484D01*
X4935301Y-10492484D02*
X4982920Y-10492484D01*
X4982920Y-10492484D02*
X5001968Y-10502008D01*
X5001968Y-10502008D02*
X5011491Y-10511531D01*
X5011491Y-10511531D02*
X5021015Y-10530579D01*
X5021015Y-10530579D02*
X5021015Y-10549627D01*
X5021015Y-10549627D02*
X5011491Y-10578198D01*
X5011491Y-10578198D02*
X4897206Y-10692484D01*
X4897206Y-10692484D02*
X5021015Y-10692484D01*
X5135301Y-10578198D02*
X5116253Y-10568674D01*
X5116253Y-10568674D02*
X5106730Y-10559150D01*
X5106730Y-10559150D02*
X5097206Y-10540103D01*
X5097206Y-10540103D02*
X5097206Y-10530579D01*
X5097206Y-10530579D02*
X5106730Y-10511531D01*
X5106730Y-10511531D02*
X5116253Y-10502008D01*
X5116253Y-10502008D02*
X5135301Y-10492484D01*
X5135301Y-10492484D02*
X5173396Y-10492484D01*
X5173396Y-10492484D02*
X5192444Y-10502008D01*
X5192444Y-10502008D02*
X5201968Y-10511531D01*
X5201968Y-10511531D02*
X5211491Y-10530579D01*
X5211491Y-10530579D02*
X5211491Y-10540103D01*
X5211491Y-10540103D02*
X5201968Y-10559150D01*
X5201968Y-10559150D02*
X5192444Y-10568674D01*
X5192444Y-10568674D02*
X5173396Y-10578198D01*
X5173396Y-10578198D02*
X5135301Y-10578198D01*
X5135301Y-10578198D02*
X5116253Y-10587722D01*
X5116253Y-10587722D02*
X5106730Y-10597246D01*
X5106730Y-10597246D02*
X5097206Y-10616293D01*
X5097206Y-10616293D02*
X5097206Y-10654389D01*
X5097206Y-10654389D02*
X5106730Y-10673436D01*
X5106730Y-10673436D02*
X5116253Y-10682960D01*
X5116253Y-10682960D02*
X5135301Y-10692484D01*
X5135301Y-10692484D02*
X5173396Y-10692484D01*
X5173396Y-10692484D02*
X5192444Y-10682960D01*
X5192444Y-10682960D02*
X5201968Y-10673436D01*
X5201968Y-10673436D02*
X5211491Y-10654389D01*
X5211491Y-10654389D02*
X5211491Y-10616293D01*
X5211491Y-10616293D02*
X5201968Y-10597246D01*
X5201968Y-10597246D02*
X5192444Y-10587722D01*
X5192444Y-10587722D02*
X5173396Y-10578198D01*
X5449587Y-10692484D02*
X5449587Y-10492484D01*
X5535301Y-10692484D02*
X5535301Y-10587722D01*
X5535301Y-10587722D02*
X5525777Y-10568674D01*
X5525777Y-10568674D02*
X5506730Y-10559150D01*
X5506730Y-10559150D02*
X5478158Y-10559150D01*
X5478158Y-10559150D02*
X5459111Y-10568674D01*
X5459111Y-10568674D02*
X5449587Y-10578198D01*
X5659110Y-10692484D02*
X5640063Y-10682960D01*
X5640063Y-10682960D02*
X5630539Y-10673436D01*
X5630539Y-10673436D02*
X5621015Y-10654389D01*
X5621015Y-10654389D02*
X5621015Y-10597246D01*
X5621015Y-10597246D02*
X5630539Y-10578198D01*
X5630539Y-10578198D02*
X5640063Y-10568674D01*
X5640063Y-10568674D02*
X5659110Y-10559150D01*
X5659110Y-10559150D02*
X5687682Y-10559150D01*
X5687682Y-10559150D02*
X5706730Y-10568674D01*
X5706730Y-10568674D02*
X5716253Y-10578198D01*
X5716253Y-10578198D02*
X5725777Y-10597246D01*
X5725777Y-10597246D02*
X5725777Y-10654389D01*
X5725777Y-10654389D02*
X5716253Y-10673436D01*
X5716253Y-10673436D02*
X5706730Y-10682960D01*
X5706730Y-10682960D02*
X5687682Y-10692484D01*
X5687682Y-10692484D02*
X5659110Y-10692484D01*
X5840063Y-10692484D02*
X5821015Y-10682960D01*
X5821015Y-10682960D02*
X5811491Y-10663912D01*
X5811491Y-10663912D02*
X5811491Y-10492484D01*
X5992444Y-10682960D02*
X5973396Y-10692484D01*
X5973396Y-10692484D02*
X5935301Y-10692484D01*
X5935301Y-10692484D02*
X5916253Y-10682960D01*
X5916253Y-10682960D02*
X5906730Y-10663912D01*
X5906730Y-10663912D02*
X5906730Y-10587722D01*
X5906730Y-10587722D02*
X5916253Y-10568674D01*
X5916253Y-10568674D02*
X5935301Y-10559150D01*
X5935301Y-10559150D02*
X5973396Y-10559150D01*
X5973396Y-10559150D02*
X5992444Y-10568674D01*
X5992444Y-10568674D02*
X6001968Y-10587722D01*
X6001968Y-10587722D02*
X6001968Y-10606770D01*
X6001968Y-10606770D02*
X5906730Y-10625817D01*
X6078158Y-10682960D02*
X6097206Y-10692484D01*
X6097206Y-10692484D02*
X6135301Y-10692484D01*
X6135301Y-10692484D02*
X6154349Y-10682960D01*
X6154349Y-10682960D02*
X6163872Y-10663912D01*
X6163872Y-10663912D02*
X6163872Y-10654389D01*
X6163872Y-10654389D02*
X6154349Y-10635341D01*
X6154349Y-10635341D02*
X6135301Y-10625817D01*
X6135301Y-10625817D02*
X6106730Y-10625817D01*
X6106730Y-10625817D02*
X6087682Y-10616293D01*
X6087682Y-10616293D02*
X6078158Y-10597246D01*
X6078158Y-10597246D02*
X6078158Y-10587722D01*
X6078158Y-10587722D02*
X6087682Y-10568674D01*
X6087682Y-10568674D02*
X6106730Y-10559150D01*
X6106730Y-10559150D02*
X6135301Y-10559150D01*
X6135301Y-10559150D02*
X6154349Y-10568674D01*
X6230539Y-10768674D02*
X6240063Y-10759150D01*
X6240063Y-10759150D02*
X6259111Y-10730579D01*
X6259111Y-10730579D02*
X6268634Y-10711531D01*
X6268634Y-10711531D02*
X6278158Y-10682960D01*
X6278158Y-10682960D02*
X6287682Y-10635341D01*
X6287682Y-10635341D02*
X6287682Y-10597246D01*
X6287682Y-10597246D02*
X6278158Y-10549627D01*
X6278158Y-10549627D02*
X6268634Y-10521055D01*
X6268634Y-10521055D02*
X6259111Y-10502008D01*
X6259111Y-10502008D02*
X6240063Y-10473436D01*
X6240063Y-10473436D02*
X6230539Y-10463912D01*
M02*
