%TF.GenerationSoftware,KiCad,Pcbnew,7.0.5-0*%
%TF.CreationDate,2023-06-15T01:07:24+01:00*%
%TF.ProjectId,EEPROM Programmer,45455052-4f4d-4205-9072-6f6772616d6d,rev?*%
%TF.SameCoordinates,Original*%
%TF.FileFunction,Legend,Top*%
%TF.FilePolarity,Positive*%
%FSLAX46Y46*%
G04 Gerber Fmt 4.6, Leading zero omitted, Abs format (unit mm)*
G04 Created by KiCad (PCBNEW 7.0.5-0) date 2023-06-15 01:07:24*
%MOMM*%
%LPD*%
G01*
G04 APERTURE LIST*
%ADD10C,0.150000*%
%ADD11C,0.120000*%
G04 APERTURE END LIST*
D10*
%TO.C,U1*%
X47498095Y-14904819D02*
X47498095Y-15714342D01*
X47498095Y-15714342D02*
X47545714Y-15809580D01*
X47545714Y-15809580D02*
X47593333Y-15857200D01*
X47593333Y-15857200D02*
X47688571Y-15904819D01*
X47688571Y-15904819D02*
X47879047Y-15904819D01*
X47879047Y-15904819D02*
X47974285Y-15857200D01*
X47974285Y-15857200D02*
X48021904Y-15809580D01*
X48021904Y-15809580D02*
X48069523Y-15714342D01*
X48069523Y-15714342D02*
X48069523Y-14904819D01*
X49069523Y-15904819D02*
X48498095Y-15904819D01*
X48783809Y-15904819D02*
X48783809Y-14904819D01*
X48783809Y-14904819D02*
X48688571Y-15047676D01*
X48688571Y-15047676D02*
X48593333Y-15142914D01*
X48593333Y-15142914D02*
X48498095Y-15190533D01*
%TO.C,C3*%
X30273333Y-39289580D02*
X30225714Y-39337200D01*
X30225714Y-39337200D02*
X30082857Y-39384819D01*
X30082857Y-39384819D02*
X29987619Y-39384819D01*
X29987619Y-39384819D02*
X29844762Y-39337200D01*
X29844762Y-39337200D02*
X29749524Y-39241961D01*
X29749524Y-39241961D02*
X29701905Y-39146723D01*
X29701905Y-39146723D02*
X29654286Y-38956247D01*
X29654286Y-38956247D02*
X29654286Y-38813390D01*
X29654286Y-38813390D02*
X29701905Y-38622914D01*
X29701905Y-38622914D02*
X29749524Y-38527676D01*
X29749524Y-38527676D02*
X29844762Y-38432438D01*
X29844762Y-38432438D02*
X29987619Y-38384819D01*
X29987619Y-38384819D02*
X30082857Y-38384819D01*
X30082857Y-38384819D02*
X30225714Y-38432438D01*
X30225714Y-38432438D02*
X30273333Y-38480057D01*
X30606667Y-38384819D02*
X31225714Y-38384819D01*
X31225714Y-38384819D02*
X30892381Y-38765771D01*
X30892381Y-38765771D02*
X31035238Y-38765771D01*
X31035238Y-38765771D02*
X31130476Y-38813390D01*
X31130476Y-38813390D02*
X31178095Y-38861009D01*
X31178095Y-38861009D02*
X31225714Y-38956247D01*
X31225714Y-38956247D02*
X31225714Y-39194342D01*
X31225714Y-39194342D02*
X31178095Y-39289580D01*
X31178095Y-39289580D02*
X31130476Y-39337200D01*
X31130476Y-39337200D02*
X31035238Y-39384819D01*
X31035238Y-39384819D02*
X30749524Y-39384819D01*
X30749524Y-39384819D02*
X30654286Y-39337200D01*
X30654286Y-39337200D02*
X30606667Y-39289580D01*
%TO.C,C2*%
X20113333Y-39289580D02*
X20065714Y-39337200D01*
X20065714Y-39337200D02*
X19922857Y-39384819D01*
X19922857Y-39384819D02*
X19827619Y-39384819D01*
X19827619Y-39384819D02*
X19684762Y-39337200D01*
X19684762Y-39337200D02*
X19589524Y-39241961D01*
X19589524Y-39241961D02*
X19541905Y-39146723D01*
X19541905Y-39146723D02*
X19494286Y-38956247D01*
X19494286Y-38956247D02*
X19494286Y-38813390D01*
X19494286Y-38813390D02*
X19541905Y-38622914D01*
X19541905Y-38622914D02*
X19589524Y-38527676D01*
X19589524Y-38527676D02*
X19684762Y-38432438D01*
X19684762Y-38432438D02*
X19827619Y-38384819D01*
X19827619Y-38384819D02*
X19922857Y-38384819D01*
X19922857Y-38384819D02*
X20065714Y-38432438D01*
X20065714Y-38432438D02*
X20113333Y-38480057D01*
X20494286Y-38480057D02*
X20541905Y-38432438D01*
X20541905Y-38432438D02*
X20637143Y-38384819D01*
X20637143Y-38384819D02*
X20875238Y-38384819D01*
X20875238Y-38384819D02*
X20970476Y-38432438D01*
X20970476Y-38432438D02*
X21018095Y-38480057D01*
X21018095Y-38480057D02*
X21065714Y-38575295D01*
X21065714Y-38575295D02*
X21065714Y-38670533D01*
X21065714Y-38670533D02*
X21018095Y-38813390D01*
X21018095Y-38813390D02*
X20446667Y-39384819D01*
X20446667Y-39384819D02*
X21065714Y-39384819D01*
%TO.C,U2*%
X81245595Y-27664819D02*
X81245595Y-28474342D01*
X81245595Y-28474342D02*
X81293214Y-28569580D01*
X81293214Y-28569580D02*
X81340833Y-28617200D01*
X81340833Y-28617200D02*
X81436071Y-28664819D01*
X81436071Y-28664819D02*
X81626547Y-28664819D01*
X81626547Y-28664819D02*
X81721785Y-28617200D01*
X81721785Y-28617200D02*
X81769404Y-28569580D01*
X81769404Y-28569580D02*
X81817023Y-28474342D01*
X81817023Y-28474342D02*
X81817023Y-27664819D01*
X82245595Y-27760057D02*
X82293214Y-27712438D01*
X82293214Y-27712438D02*
X82388452Y-27664819D01*
X82388452Y-27664819D02*
X82626547Y-27664819D01*
X82626547Y-27664819D02*
X82721785Y-27712438D01*
X82721785Y-27712438D02*
X82769404Y-27760057D01*
X82769404Y-27760057D02*
X82817023Y-27855295D01*
X82817023Y-27855295D02*
X82817023Y-27950533D01*
X82817023Y-27950533D02*
X82769404Y-28093390D01*
X82769404Y-28093390D02*
X82197976Y-28664819D01*
X82197976Y-28664819D02*
X82817023Y-28664819D01*
%TO.C,SW1*%
X23776667Y-57057200D02*
X23919524Y-57104819D01*
X23919524Y-57104819D02*
X24157619Y-57104819D01*
X24157619Y-57104819D02*
X24252857Y-57057200D01*
X24252857Y-57057200D02*
X24300476Y-57009580D01*
X24300476Y-57009580D02*
X24348095Y-56914342D01*
X24348095Y-56914342D02*
X24348095Y-56819104D01*
X24348095Y-56819104D02*
X24300476Y-56723866D01*
X24300476Y-56723866D02*
X24252857Y-56676247D01*
X24252857Y-56676247D02*
X24157619Y-56628628D01*
X24157619Y-56628628D02*
X23967143Y-56581009D01*
X23967143Y-56581009D02*
X23871905Y-56533390D01*
X23871905Y-56533390D02*
X23824286Y-56485771D01*
X23824286Y-56485771D02*
X23776667Y-56390533D01*
X23776667Y-56390533D02*
X23776667Y-56295295D01*
X23776667Y-56295295D02*
X23824286Y-56200057D01*
X23824286Y-56200057D02*
X23871905Y-56152438D01*
X23871905Y-56152438D02*
X23967143Y-56104819D01*
X23967143Y-56104819D02*
X24205238Y-56104819D01*
X24205238Y-56104819D02*
X24348095Y-56152438D01*
X24681429Y-56104819D02*
X24919524Y-57104819D01*
X24919524Y-57104819D02*
X25110000Y-56390533D01*
X25110000Y-56390533D02*
X25300476Y-57104819D01*
X25300476Y-57104819D02*
X25538572Y-56104819D01*
X26443333Y-57104819D02*
X25871905Y-57104819D01*
X26157619Y-57104819D02*
X26157619Y-56104819D01*
X26157619Y-56104819D02*
X26062381Y-56247676D01*
X26062381Y-56247676D02*
X25967143Y-56342914D01*
X25967143Y-56342914D02*
X25871905Y-56390533D01*
%TO.C,R3*%
X22693333Y-75684819D02*
X22360000Y-75208628D01*
X22121905Y-75684819D02*
X22121905Y-74684819D01*
X22121905Y-74684819D02*
X22502857Y-74684819D01*
X22502857Y-74684819D02*
X22598095Y-74732438D01*
X22598095Y-74732438D02*
X22645714Y-74780057D01*
X22645714Y-74780057D02*
X22693333Y-74875295D01*
X22693333Y-74875295D02*
X22693333Y-75018152D01*
X22693333Y-75018152D02*
X22645714Y-75113390D01*
X22645714Y-75113390D02*
X22598095Y-75161009D01*
X22598095Y-75161009D02*
X22502857Y-75208628D01*
X22502857Y-75208628D02*
X22121905Y-75208628D01*
X23026667Y-74684819D02*
X23645714Y-74684819D01*
X23645714Y-74684819D02*
X23312381Y-75065771D01*
X23312381Y-75065771D02*
X23455238Y-75065771D01*
X23455238Y-75065771D02*
X23550476Y-75113390D01*
X23550476Y-75113390D02*
X23598095Y-75161009D01*
X23598095Y-75161009D02*
X23645714Y-75256247D01*
X23645714Y-75256247D02*
X23645714Y-75494342D01*
X23645714Y-75494342D02*
X23598095Y-75589580D01*
X23598095Y-75589580D02*
X23550476Y-75637200D01*
X23550476Y-75637200D02*
X23455238Y-75684819D01*
X23455238Y-75684819D02*
X23169524Y-75684819D01*
X23169524Y-75684819D02*
X23074286Y-75637200D01*
X23074286Y-75637200D02*
X23026667Y-75589580D01*
%TO.C,R2*%
X22693333Y-71594819D02*
X22360000Y-71118628D01*
X22121905Y-71594819D02*
X22121905Y-70594819D01*
X22121905Y-70594819D02*
X22502857Y-70594819D01*
X22502857Y-70594819D02*
X22598095Y-70642438D01*
X22598095Y-70642438D02*
X22645714Y-70690057D01*
X22645714Y-70690057D02*
X22693333Y-70785295D01*
X22693333Y-70785295D02*
X22693333Y-70928152D01*
X22693333Y-70928152D02*
X22645714Y-71023390D01*
X22645714Y-71023390D02*
X22598095Y-71071009D01*
X22598095Y-71071009D02*
X22502857Y-71118628D01*
X22502857Y-71118628D02*
X22121905Y-71118628D01*
X23074286Y-70690057D02*
X23121905Y-70642438D01*
X23121905Y-70642438D02*
X23217143Y-70594819D01*
X23217143Y-70594819D02*
X23455238Y-70594819D01*
X23455238Y-70594819D02*
X23550476Y-70642438D01*
X23550476Y-70642438D02*
X23598095Y-70690057D01*
X23598095Y-70690057D02*
X23645714Y-70785295D01*
X23645714Y-70785295D02*
X23645714Y-70880533D01*
X23645714Y-70880533D02*
X23598095Y-71023390D01*
X23598095Y-71023390D02*
X23026667Y-71594819D01*
X23026667Y-71594819D02*
X23645714Y-71594819D01*
%TO.C,R1*%
X22693333Y-67504819D02*
X22360000Y-67028628D01*
X22121905Y-67504819D02*
X22121905Y-66504819D01*
X22121905Y-66504819D02*
X22502857Y-66504819D01*
X22502857Y-66504819D02*
X22598095Y-66552438D01*
X22598095Y-66552438D02*
X22645714Y-66600057D01*
X22645714Y-66600057D02*
X22693333Y-66695295D01*
X22693333Y-66695295D02*
X22693333Y-66838152D01*
X22693333Y-66838152D02*
X22645714Y-66933390D01*
X22645714Y-66933390D02*
X22598095Y-66981009D01*
X22598095Y-66981009D02*
X22502857Y-67028628D01*
X22502857Y-67028628D02*
X22121905Y-67028628D01*
X23645714Y-67504819D02*
X23074286Y-67504819D01*
X23360000Y-67504819D02*
X23360000Y-66504819D01*
X23360000Y-66504819D02*
X23264762Y-66647676D01*
X23264762Y-66647676D02*
X23169524Y-66742914D01*
X23169524Y-66742914D02*
X23074286Y-66790533D01*
%TO.C,J2*%
X19494819Y-25733333D02*
X20209104Y-25733333D01*
X20209104Y-25733333D02*
X20351961Y-25780952D01*
X20351961Y-25780952D02*
X20447200Y-25876190D01*
X20447200Y-25876190D02*
X20494819Y-26019047D01*
X20494819Y-26019047D02*
X20494819Y-26114285D01*
X19590057Y-25304761D02*
X19542438Y-25257142D01*
X19542438Y-25257142D02*
X19494819Y-25161904D01*
X19494819Y-25161904D02*
X19494819Y-24923809D01*
X19494819Y-24923809D02*
X19542438Y-24828571D01*
X19542438Y-24828571D02*
X19590057Y-24780952D01*
X19590057Y-24780952D02*
X19685295Y-24733333D01*
X19685295Y-24733333D02*
X19780533Y-24733333D01*
X19780533Y-24733333D02*
X19923390Y-24780952D01*
X19923390Y-24780952D02*
X20494819Y-25352380D01*
X20494819Y-25352380D02*
X20494819Y-24733333D01*
%TO.C,J1*%
X62001666Y-15814819D02*
X62001666Y-16529104D01*
X62001666Y-16529104D02*
X61954047Y-16671961D01*
X61954047Y-16671961D02*
X61858809Y-16767200D01*
X61858809Y-16767200D02*
X61715952Y-16814819D01*
X61715952Y-16814819D02*
X61620714Y-16814819D01*
X63001666Y-16814819D02*
X62430238Y-16814819D01*
X62715952Y-16814819D02*
X62715952Y-15814819D01*
X62715952Y-15814819D02*
X62620714Y-15957676D01*
X62620714Y-15957676D02*
X62525476Y-16052914D01*
X62525476Y-16052914D02*
X62430238Y-16100533D01*
%TO.C,D2*%
X53871905Y-71094819D02*
X53871905Y-70094819D01*
X53871905Y-70094819D02*
X54110000Y-70094819D01*
X54110000Y-70094819D02*
X54252857Y-70142438D01*
X54252857Y-70142438D02*
X54348095Y-70237676D01*
X54348095Y-70237676D02*
X54395714Y-70332914D01*
X54395714Y-70332914D02*
X54443333Y-70523390D01*
X54443333Y-70523390D02*
X54443333Y-70666247D01*
X54443333Y-70666247D02*
X54395714Y-70856723D01*
X54395714Y-70856723D02*
X54348095Y-70951961D01*
X54348095Y-70951961D02*
X54252857Y-71047200D01*
X54252857Y-71047200D02*
X54110000Y-71094819D01*
X54110000Y-71094819D02*
X53871905Y-71094819D01*
X54824286Y-70190057D02*
X54871905Y-70142438D01*
X54871905Y-70142438D02*
X54967143Y-70094819D01*
X54967143Y-70094819D02*
X55205238Y-70094819D01*
X55205238Y-70094819D02*
X55300476Y-70142438D01*
X55300476Y-70142438D02*
X55348095Y-70190057D01*
X55348095Y-70190057D02*
X55395714Y-70285295D01*
X55395714Y-70285295D02*
X55395714Y-70380533D01*
X55395714Y-70380533D02*
X55348095Y-70523390D01*
X55348095Y-70523390D02*
X54776667Y-71094819D01*
X54776667Y-71094819D02*
X55395714Y-71094819D01*
%TO.C,D1*%
X41171905Y-71094819D02*
X41171905Y-70094819D01*
X41171905Y-70094819D02*
X41410000Y-70094819D01*
X41410000Y-70094819D02*
X41552857Y-70142438D01*
X41552857Y-70142438D02*
X41648095Y-70237676D01*
X41648095Y-70237676D02*
X41695714Y-70332914D01*
X41695714Y-70332914D02*
X41743333Y-70523390D01*
X41743333Y-70523390D02*
X41743333Y-70666247D01*
X41743333Y-70666247D02*
X41695714Y-70856723D01*
X41695714Y-70856723D02*
X41648095Y-70951961D01*
X41648095Y-70951961D02*
X41552857Y-71047200D01*
X41552857Y-71047200D02*
X41410000Y-71094819D01*
X41410000Y-71094819D02*
X41171905Y-71094819D01*
X42695714Y-71094819D02*
X42124286Y-71094819D01*
X42410000Y-71094819D02*
X42410000Y-70094819D01*
X42410000Y-70094819D02*
X42314762Y-70237676D01*
X42314762Y-70237676D02*
X42219524Y-70332914D01*
X42219524Y-70332914D02*
X42124286Y-70380533D01*
%TO.C,U3*%
X25908095Y-14904819D02*
X25908095Y-15714342D01*
X25908095Y-15714342D02*
X25955714Y-15809580D01*
X25955714Y-15809580D02*
X26003333Y-15857200D01*
X26003333Y-15857200D02*
X26098571Y-15904819D01*
X26098571Y-15904819D02*
X26289047Y-15904819D01*
X26289047Y-15904819D02*
X26384285Y-15857200D01*
X26384285Y-15857200D02*
X26431904Y-15809580D01*
X26431904Y-15809580D02*
X26479523Y-15714342D01*
X26479523Y-15714342D02*
X26479523Y-14904819D01*
X26860476Y-14904819D02*
X27479523Y-14904819D01*
X27479523Y-14904819D02*
X27146190Y-15285771D01*
X27146190Y-15285771D02*
X27289047Y-15285771D01*
X27289047Y-15285771D02*
X27384285Y-15333390D01*
X27384285Y-15333390D02*
X27431904Y-15381009D01*
X27431904Y-15381009D02*
X27479523Y-15476247D01*
X27479523Y-15476247D02*
X27479523Y-15714342D01*
X27479523Y-15714342D02*
X27431904Y-15809580D01*
X27431904Y-15809580D02*
X27384285Y-15857200D01*
X27384285Y-15857200D02*
X27289047Y-15904819D01*
X27289047Y-15904819D02*
X27003333Y-15904819D01*
X27003333Y-15904819D02*
X26908095Y-15857200D01*
X26908095Y-15857200D02*
X26860476Y-15809580D01*
D11*
%TO.C,U1*%
X42200000Y-16450000D02*
X42200000Y-67370000D01*
X54320000Y-67370000D02*
X54320000Y-16450000D01*
X42200000Y-67370000D02*
X54320000Y-67370000D01*
X54320000Y-16450000D02*
X49260000Y-16450000D01*
X47260000Y-16450000D02*
X42200000Y-16450000D01*
X47260000Y-16450000D02*
G75*
G03*
X49260000Y-16450000I1000000J0D01*
G01*
%TO.C,C3*%
X26820000Y-46300000D02*
X34060000Y-46300000D01*
X26820000Y-40060000D02*
X34060000Y-40060000D01*
X26820000Y-40060000D02*
X26820000Y-46300000D01*
X34060000Y-40060000D02*
X34060000Y-46300000D01*
%TO.C,C2*%
X16660000Y-46300000D02*
X23900000Y-46300000D01*
X16660000Y-40060000D02*
X23900000Y-40060000D01*
X16660000Y-40060000D02*
X16660000Y-46300000D01*
X23900000Y-40060000D02*
X23900000Y-46300000D01*
%TO.C,U2*%
X70457500Y-35870000D02*
X70457500Y-79710000D01*
X93557500Y-79710000D02*
X93557500Y-29110000D01*
X69437500Y-41040000D02*
X69437500Y-38500000D01*
X93557500Y-29110000D02*
X70457500Y-29110000D01*
X70457500Y-29110000D02*
X70457500Y-30970000D01*
X70457500Y-79710000D02*
X93557500Y-79710000D01*
X72737500Y-29110000D02*
X72737500Y-31370000D01*
X72087500Y-33420000D02*
G75*
G03*
X72087500Y-33420000I-900000J0D01*
G01*
X73737500Y-33420000D02*
G75*
G03*
X73737500Y-33420000I-2550000J0D01*
G01*
%TO.C,SW1*%
X23710000Y-61580000D02*
X23710000Y-62870000D01*
X28560000Y-60570000D02*
X28560000Y-59780000D01*
X26510000Y-58730000D02*
X26710000Y-58730000D01*
X22260000Y-61580000D02*
X27960000Y-61580000D01*
X23910000Y-63080000D02*
X24810000Y-63080000D01*
X21660000Y-59780000D02*
X21660000Y-60570000D01*
X25010000Y-62870000D02*
X24810000Y-63080000D01*
X25010000Y-62870000D02*
X25010000Y-61580000D01*
X23710000Y-62870000D02*
X23910000Y-63080000D01*
X23510000Y-58730000D02*
X25210000Y-58730000D01*
%TO.C,R3*%
X27170000Y-76360000D02*
X27170000Y-79140000D01*
X18550000Y-76360000D02*
X27170000Y-76360000D01*
X18550000Y-76360000D02*
X18550000Y-79140000D01*
X18550000Y-79140000D02*
X27170000Y-79140000D01*
%TO.C,R2*%
X27170000Y-72270000D02*
X27170000Y-75050000D01*
X18550000Y-72270000D02*
X27170000Y-72270000D01*
X18550000Y-72270000D02*
X18550000Y-75050000D01*
X18550000Y-75050000D02*
X27170000Y-75050000D01*
%TO.C,R1*%
X27170000Y-68180000D02*
X27170000Y-70960000D01*
X18550000Y-68180000D02*
X27170000Y-68180000D01*
X18550000Y-68180000D02*
X18550000Y-70960000D01*
X18550000Y-70960000D02*
X27170000Y-70960000D01*
%TO.C,J2*%
X14040000Y-21530000D02*
X13790000Y-21530000D01*
X18510000Y-21530000D02*
X16440000Y-21530000D01*
X19040000Y-26400000D02*
X19040000Y-27000000D01*
X18740000Y-26700000D02*
X19040000Y-27000000D01*
X18510000Y-28400000D02*
X18510000Y-29270000D01*
X18510000Y-29270000D02*
X16440000Y-29270000D01*
X18510000Y-21530000D02*
X18510000Y-22400000D01*
X14040000Y-29270000D02*
X13790000Y-29270000D01*
X18740000Y-26700000D02*
X19040000Y-26400000D01*
%TO.C,J1*%
X62270000Y-17830000D02*
X64270000Y-17830000D01*
X60275000Y-17860000D02*
X60275000Y-17175000D01*
X64270000Y-23070000D02*
X62270000Y-23070000D01*
X64270000Y-21070000D02*
X62270000Y-21070000D01*
X62270000Y-17950000D02*
X64270000Y-17950000D01*
X61428215Y-19360000D02*
X62270000Y-19360000D01*
X64270000Y-22650000D02*
X64270000Y-23070000D01*
X64270000Y-21650000D02*
X64270000Y-22070000D01*
X62270000Y-23420000D02*
X61354493Y-23420000D01*
X64270000Y-20650000D02*
X64270000Y-21070000D01*
X61645000Y-17300000D02*
X62270000Y-17300000D01*
X61428215Y-22360000D02*
X62270000Y-22360000D01*
X64270000Y-19650000D02*
X64270000Y-20070000D01*
X61428215Y-21360000D02*
X62270000Y-21360000D01*
X61645000Y-18360000D02*
X62270000Y-18360000D01*
X62270000Y-17710000D02*
X64270000Y-17710000D01*
X62270000Y-20650000D02*
X64270000Y-20650000D01*
X62270000Y-17650000D02*
X64270000Y-17650000D01*
X62270000Y-21650000D02*
X64270000Y-21650000D01*
X62270000Y-22650000D02*
X64270000Y-22650000D01*
X61428215Y-20360000D02*
X62270000Y-20360000D01*
X64270000Y-18070000D02*
X62270000Y-18070000D01*
X62270000Y-18650000D02*
X64270000Y-18650000D01*
X62270000Y-17300000D02*
X62270000Y-23420000D01*
X64270000Y-19070000D02*
X62270000Y-19070000D01*
X60275000Y-17175000D02*
X60960000Y-17175000D01*
X62270000Y-19650000D02*
X64270000Y-19650000D01*
X64270000Y-17650000D02*
X64270000Y-18070000D01*
X64270000Y-22070000D02*
X62270000Y-22070000D01*
X64270000Y-20070000D02*
X62270000Y-20070000D01*
X64270000Y-18650000D02*
X64270000Y-19070000D01*
%TO.C,D2*%
X50550000Y-74058000D02*
X50550000Y-78342000D01*
X50550000Y-78341145D02*
G75*
G03*
X59200000Y-76199514I4060000J2141145D01*
G01*
X59200000Y-76200486D02*
G75*
G03*
X50550000Y-74058855I-4590000J486D01*
G01*
X58610000Y-76200000D02*
G75*
G03*
X58610000Y-76200000I-4000000J0D01*
G01*
%TO.C,D1*%
X37850000Y-74058000D02*
X37850000Y-78342000D01*
X37850000Y-78341145D02*
G75*
G03*
X46500000Y-76199514I4060000J2141145D01*
G01*
X46500000Y-76200486D02*
G75*
G03*
X37850000Y-74058855I-4590000J486D01*
G01*
X45910000Y-76200000D02*
G75*
G03*
X45910000Y-76200000I-4000000J0D01*
G01*
%TO.C,U3*%
X24020000Y-16450000D02*
X24020000Y-34350000D01*
X29320000Y-16450000D02*
X27670000Y-16450000D01*
X24020000Y-34350000D02*
X29320000Y-34350000D01*
X29320000Y-34350000D02*
X29320000Y-16450000D01*
X25670000Y-16450000D02*
X24020000Y-16450000D01*
X25670000Y-16450000D02*
G75*
G03*
X27670000Y-16450000I1000000J0D01*
G01*
%TD*%
M02*
