%TF.GenerationSoftware,KiCad,Pcbnew,7.0.5-0*%
%TF.CreationDate,2023-06-15T01:07:35+01:00*%
%TF.ProjectId,EEPROM Programmer,45455052-4f4d-4205-9072-6f6772616d6d,rev?*%
%TF.SameCoordinates,Original*%
%TF.FileFunction,Drillmap*%
%TF.FilePolarity,Positive*%
%FSLAX45Y45*%
G04 Gerber Fmt 4.5, Leading zero omitted, Abs format (unit mm)*
G04 Created by KiCad (PCBNEW 7.0.5-0) date 2023-06-15 01:07:35*
%MOMM*%
%LPD*%
G01*
G04 APERTURE LIST*
%ADD10C,0.100000*%
%ADD11C,0.200000*%
%ADD12C,0.090000*%
G04 APERTURE END LIST*
D10*
X9906000Y-8636000D02*
X1270000Y-8636000D01*
X1270000Y-1270000D01*
X9906000Y-1270000D01*
X9906000Y-8636000D01*
D11*
D12*
X2316000Y-5973000D02*
X2406000Y-6063000D01*
X2406000Y-5973000D02*
X2316000Y-6063000D01*
X2616000Y-5973000D02*
X2706000Y-6063000D01*
X2706000Y-5973000D02*
X2616000Y-6063000D01*
D11*
X1525777Y-8952484D02*
X1525777Y-8752484D01*
X1525777Y-8752484D02*
X1573396Y-8752484D01*
X1573396Y-8752484D02*
X1601967Y-8762008D01*
X1601967Y-8762008D02*
X1621015Y-8781055D01*
X1621015Y-8781055D02*
X1630539Y-8800103D01*
X1630539Y-8800103D02*
X1640062Y-8838198D01*
X1640062Y-8838198D02*
X1640062Y-8866770D01*
X1640062Y-8866770D02*
X1630539Y-8904865D01*
X1630539Y-8904865D02*
X1621015Y-8923912D01*
X1621015Y-8923912D02*
X1601967Y-8942960D01*
X1601967Y-8942960D02*
X1573396Y-8952484D01*
X1573396Y-8952484D02*
X1525777Y-8952484D01*
X1725777Y-8952484D02*
X1725777Y-8819150D01*
X1725777Y-8857246D02*
X1735301Y-8838198D01*
X1735301Y-8838198D02*
X1744824Y-8828674D01*
X1744824Y-8828674D02*
X1763872Y-8819150D01*
X1763872Y-8819150D02*
X1782920Y-8819150D01*
X1849586Y-8952484D02*
X1849586Y-8819150D01*
X1849586Y-8752484D02*
X1840062Y-8762008D01*
X1840062Y-8762008D02*
X1849586Y-8771531D01*
X1849586Y-8771531D02*
X1859110Y-8762008D01*
X1859110Y-8762008D02*
X1849586Y-8752484D01*
X1849586Y-8752484D02*
X1849586Y-8771531D01*
X1973396Y-8952484D02*
X1954348Y-8942960D01*
X1954348Y-8942960D02*
X1944824Y-8923912D01*
X1944824Y-8923912D02*
X1944824Y-8752484D01*
X2078158Y-8952484D02*
X2059110Y-8942960D01*
X2059110Y-8942960D02*
X2049586Y-8923912D01*
X2049586Y-8923912D02*
X2049586Y-8752484D01*
X2306729Y-8952484D02*
X2306729Y-8752484D01*
X2306729Y-8752484D02*
X2373396Y-8895341D01*
X2373396Y-8895341D02*
X2440063Y-8752484D01*
X2440063Y-8752484D02*
X2440063Y-8952484D01*
X2621015Y-8952484D02*
X2621015Y-8847722D01*
X2621015Y-8847722D02*
X2611491Y-8828674D01*
X2611491Y-8828674D02*
X2592444Y-8819150D01*
X2592444Y-8819150D02*
X2554348Y-8819150D01*
X2554348Y-8819150D02*
X2535301Y-8828674D01*
X2621015Y-8942960D02*
X2601967Y-8952484D01*
X2601967Y-8952484D02*
X2554348Y-8952484D01*
X2554348Y-8952484D02*
X2535301Y-8942960D01*
X2535301Y-8942960D02*
X2525777Y-8923912D01*
X2525777Y-8923912D02*
X2525777Y-8904865D01*
X2525777Y-8904865D02*
X2535301Y-8885817D01*
X2535301Y-8885817D02*
X2554348Y-8876293D01*
X2554348Y-8876293D02*
X2601967Y-8876293D01*
X2601967Y-8876293D02*
X2621015Y-8866770D01*
X2716253Y-8819150D02*
X2716253Y-9019150D01*
X2716253Y-8828674D02*
X2735301Y-8819150D01*
X2735301Y-8819150D02*
X2773396Y-8819150D01*
X2773396Y-8819150D02*
X2792444Y-8828674D01*
X2792444Y-8828674D02*
X2801967Y-8838198D01*
X2801967Y-8838198D02*
X2811491Y-8857246D01*
X2811491Y-8857246D02*
X2811491Y-8914389D01*
X2811491Y-8914389D02*
X2801967Y-8933436D01*
X2801967Y-8933436D02*
X2792444Y-8942960D01*
X2792444Y-8942960D02*
X2773396Y-8952484D01*
X2773396Y-8952484D02*
X2735301Y-8952484D01*
X2735301Y-8952484D02*
X2716253Y-8942960D01*
X2897205Y-8933436D02*
X2906729Y-8942960D01*
X2906729Y-8942960D02*
X2897205Y-8952484D01*
X2897205Y-8952484D02*
X2887682Y-8942960D01*
X2887682Y-8942960D02*
X2897205Y-8933436D01*
X2897205Y-8933436D02*
X2897205Y-8952484D01*
X2897205Y-8828674D02*
X2906729Y-8838198D01*
X2906729Y-8838198D02*
X2897205Y-8847722D01*
X2897205Y-8847722D02*
X2887682Y-8838198D01*
X2887682Y-8838198D02*
X2897205Y-8828674D01*
X2897205Y-8828674D02*
X2897205Y-8847722D01*
D12*
X1175000Y-9236000D02*
X1265000Y-9326000D01*
X1265000Y-9236000D02*
X1175000Y-9326000D01*
D11*
X1563872Y-9172484D02*
X1582920Y-9172484D01*
X1582920Y-9172484D02*
X1601967Y-9182008D01*
X1601967Y-9182008D02*
X1611491Y-9191531D01*
X1611491Y-9191531D02*
X1621015Y-9210579D01*
X1621015Y-9210579D02*
X1630539Y-9248674D01*
X1630539Y-9248674D02*
X1630539Y-9296293D01*
X1630539Y-9296293D02*
X1621015Y-9334389D01*
X1621015Y-9334389D02*
X1611491Y-9353436D01*
X1611491Y-9353436D02*
X1601967Y-9362960D01*
X1601967Y-9362960D02*
X1582920Y-9372484D01*
X1582920Y-9372484D02*
X1563872Y-9372484D01*
X1563872Y-9372484D02*
X1544824Y-9362960D01*
X1544824Y-9362960D02*
X1535301Y-9353436D01*
X1535301Y-9353436D02*
X1525777Y-9334389D01*
X1525777Y-9334389D02*
X1516253Y-9296293D01*
X1516253Y-9296293D02*
X1516253Y-9248674D01*
X1516253Y-9248674D02*
X1525777Y-9210579D01*
X1525777Y-9210579D02*
X1535301Y-9191531D01*
X1535301Y-9191531D02*
X1544824Y-9182008D01*
X1544824Y-9182008D02*
X1563872Y-9172484D01*
X1716253Y-9353436D02*
X1725777Y-9362960D01*
X1725777Y-9362960D02*
X1716253Y-9372484D01*
X1716253Y-9372484D02*
X1706729Y-9362960D01*
X1706729Y-9362960D02*
X1716253Y-9353436D01*
X1716253Y-9353436D02*
X1716253Y-9372484D01*
X1821015Y-9372484D02*
X1859110Y-9372484D01*
X1859110Y-9372484D02*
X1878158Y-9362960D01*
X1878158Y-9362960D02*
X1887682Y-9353436D01*
X1887682Y-9353436D02*
X1906729Y-9324865D01*
X1906729Y-9324865D02*
X1916253Y-9286770D01*
X1916253Y-9286770D02*
X1916253Y-9210579D01*
X1916253Y-9210579D02*
X1906729Y-9191531D01*
X1906729Y-9191531D02*
X1897205Y-9182008D01*
X1897205Y-9182008D02*
X1878158Y-9172484D01*
X1878158Y-9172484D02*
X1840062Y-9172484D01*
X1840062Y-9172484D02*
X1821015Y-9182008D01*
X1821015Y-9182008D02*
X1811491Y-9191531D01*
X1811491Y-9191531D02*
X1801967Y-9210579D01*
X1801967Y-9210579D02*
X1801967Y-9258198D01*
X1801967Y-9258198D02*
X1811491Y-9277246D01*
X1811491Y-9277246D02*
X1821015Y-9286770D01*
X1821015Y-9286770D02*
X1840062Y-9296293D01*
X1840062Y-9296293D02*
X1878158Y-9296293D01*
X1878158Y-9296293D02*
X1897205Y-9286770D01*
X1897205Y-9286770D02*
X1906729Y-9277246D01*
X1906729Y-9277246D02*
X1916253Y-9258198D01*
X2040062Y-9172484D02*
X2059110Y-9172484D01*
X2059110Y-9172484D02*
X2078158Y-9182008D01*
X2078158Y-9182008D02*
X2087682Y-9191531D01*
X2087682Y-9191531D02*
X2097205Y-9210579D01*
X2097205Y-9210579D02*
X2106729Y-9248674D01*
X2106729Y-9248674D02*
X2106729Y-9296293D01*
X2106729Y-9296293D02*
X2097205Y-9334389D01*
X2097205Y-9334389D02*
X2087682Y-9353436D01*
X2087682Y-9353436D02*
X2078158Y-9362960D01*
X2078158Y-9362960D02*
X2059110Y-9372484D01*
X2059110Y-9372484D02*
X2040062Y-9372484D01*
X2040062Y-9372484D02*
X2021015Y-9362960D01*
X2021015Y-9362960D02*
X2011491Y-9353436D01*
X2011491Y-9353436D02*
X2001967Y-9334389D01*
X2001967Y-9334389D02*
X1992443Y-9296293D01*
X1992443Y-9296293D02*
X1992443Y-9248674D01*
X1992443Y-9248674D02*
X2001967Y-9210579D01*
X2001967Y-9210579D02*
X2011491Y-9191531D01*
X2011491Y-9191531D02*
X2021015Y-9182008D01*
X2021015Y-9182008D02*
X2040062Y-9172484D01*
X2230539Y-9172484D02*
X2249586Y-9172484D01*
X2249586Y-9172484D02*
X2268634Y-9182008D01*
X2268634Y-9182008D02*
X2278158Y-9191531D01*
X2278158Y-9191531D02*
X2287682Y-9210579D01*
X2287682Y-9210579D02*
X2297205Y-9248674D01*
X2297205Y-9248674D02*
X2297205Y-9296293D01*
X2297205Y-9296293D02*
X2287682Y-9334389D01*
X2287682Y-9334389D02*
X2278158Y-9353436D01*
X2278158Y-9353436D02*
X2268634Y-9362960D01*
X2268634Y-9362960D02*
X2249586Y-9372484D01*
X2249586Y-9372484D02*
X2230539Y-9372484D01*
X2230539Y-9372484D02*
X2211491Y-9362960D01*
X2211491Y-9362960D02*
X2201967Y-9353436D01*
X2201967Y-9353436D02*
X2192444Y-9334389D01*
X2192444Y-9334389D02*
X2182920Y-9296293D01*
X2182920Y-9296293D02*
X2182920Y-9248674D01*
X2182920Y-9248674D02*
X2192444Y-9210579D01*
X2192444Y-9210579D02*
X2201967Y-9191531D01*
X2201967Y-9191531D02*
X2211491Y-9182008D01*
X2211491Y-9182008D02*
X2230539Y-9172484D01*
X2382920Y-9372484D02*
X2382920Y-9239150D01*
X2382920Y-9258198D02*
X2392444Y-9248674D01*
X2392444Y-9248674D02*
X2411491Y-9239150D01*
X2411491Y-9239150D02*
X2440063Y-9239150D01*
X2440063Y-9239150D02*
X2459110Y-9248674D01*
X2459110Y-9248674D02*
X2468634Y-9267722D01*
X2468634Y-9267722D02*
X2468634Y-9372484D01*
X2468634Y-9267722D02*
X2478158Y-9248674D01*
X2478158Y-9248674D02*
X2497205Y-9239150D01*
X2497205Y-9239150D02*
X2525777Y-9239150D01*
X2525777Y-9239150D02*
X2544825Y-9248674D01*
X2544825Y-9248674D02*
X2554348Y-9267722D01*
X2554348Y-9267722D02*
X2554348Y-9372484D01*
X2649586Y-9372484D02*
X2649586Y-9239150D01*
X2649586Y-9258198D02*
X2659110Y-9248674D01*
X2659110Y-9248674D02*
X2678158Y-9239150D01*
X2678158Y-9239150D02*
X2706729Y-9239150D01*
X2706729Y-9239150D02*
X2725777Y-9248674D01*
X2725777Y-9248674D02*
X2735301Y-9267722D01*
X2735301Y-9267722D02*
X2735301Y-9372484D01*
X2735301Y-9267722D02*
X2744825Y-9248674D01*
X2744825Y-9248674D02*
X2763872Y-9239150D01*
X2763872Y-9239150D02*
X2792444Y-9239150D01*
X2792444Y-9239150D02*
X2811491Y-9248674D01*
X2811491Y-9248674D02*
X2821015Y-9267722D01*
X2821015Y-9267722D02*
X2821015Y-9372484D01*
X3211491Y-9162960D02*
X3040063Y-9420103D01*
X3468634Y-9172484D02*
X3487682Y-9172484D01*
X3487682Y-9172484D02*
X3506729Y-9182008D01*
X3506729Y-9182008D02*
X3516253Y-9191531D01*
X3516253Y-9191531D02*
X3525777Y-9210579D01*
X3525777Y-9210579D02*
X3535301Y-9248674D01*
X3535301Y-9248674D02*
X3535301Y-9296293D01*
X3535301Y-9296293D02*
X3525777Y-9334389D01*
X3525777Y-9334389D02*
X3516253Y-9353436D01*
X3516253Y-9353436D02*
X3506729Y-9362960D01*
X3506729Y-9362960D02*
X3487682Y-9372484D01*
X3487682Y-9372484D02*
X3468634Y-9372484D01*
X3468634Y-9372484D02*
X3449586Y-9362960D01*
X3449586Y-9362960D02*
X3440063Y-9353436D01*
X3440063Y-9353436D02*
X3430539Y-9334389D01*
X3430539Y-9334389D02*
X3421015Y-9296293D01*
X3421015Y-9296293D02*
X3421015Y-9248674D01*
X3421015Y-9248674D02*
X3430539Y-9210579D01*
X3430539Y-9210579D02*
X3440063Y-9191531D01*
X3440063Y-9191531D02*
X3449586Y-9182008D01*
X3449586Y-9182008D02*
X3468634Y-9172484D01*
X3621015Y-9353436D02*
X3630539Y-9362960D01*
X3630539Y-9362960D02*
X3621015Y-9372484D01*
X3621015Y-9372484D02*
X3611491Y-9362960D01*
X3611491Y-9362960D02*
X3621015Y-9353436D01*
X3621015Y-9353436D02*
X3621015Y-9372484D01*
X3754348Y-9172484D02*
X3773396Y-9172484D01*
X3773396Y-9172484D02*
X3792444Y-9182008D01*
X3792444Y-9182008D02*
X3801967Y-9191531D01*
X3801967Y-9191531D02*
X3811491Y-9210579D01*
X3811491Y-9210579D02*
X3821015Y-9248674D01*
X3821015Y-9248674D02*
X3821015Y-9296293D01*
X3821015Y-9296293D02*
X3811491Y-9334389D01*
X3811491Y-9334389D02*
X3801967Y-9353436D01*
X3801967Y-9353436D02*
X3792444Y-9362960D01*
X3792444Y-9362960D02*
X3773396Y-9372484D01*
X3773396Y-9372484D02*
X3754348Y-9372484D01*
X3754348Y-9372484D02*
X3735301Y-9362960D01*
X3735301Y-9362960D02*
X3725777Y-9353436D01*
X3725777Y-9353436D02*
X3716253Y-9334389D01*
X3716253Y-9334389D02*
X3706729Y-9296293D01*
X3706729Y-9296293D02*
X3706729Y-9248674D01*
X3706729Y-9248674D02*
X3716253Y-9210579D01*
X3716253Y-9210579D02*
X3725777Y-9191531D01*
X3725777Y-9191531D02*
X3735301Y-9182008D01*
X3735301Y-9182008D02*
X3754348Y-9172484D01*
X3887682Y-9172484D02*
X4011491Y-9172484D01*
X4011491Y-9172484D02*
X3944825Y-9248674D01*
X3944825Y-9248674D02*
X3973396Y-9248674D01*
X3973396Y-9248674D02*
X3992444Y-9258198D01*
X3992444Y-9258198D02*
X4001967Y-9267722D01*
X4001967Y-9267722D02*
X4011491Y-9286770D01*
X4011491Y-9286770D02*
X4011491Y-9334389D01*
X4011491Y-9334389D02*
X4001967Y-9353436D01*
X4001967Y-9353436D02*
X3992444Y-9362960D01*
X3992444Y-9362960D02*
X3973396Y-9372484D01*
X3973396Y-9372484D02*
X3916253Y-9372484D01*
X3916253Y-9372484D02*
X3897206Y-9362960D01*
X3897206Y-9362960D02*
X3887682Y-9353436D01*
X4192444Y-9172484D02*
X4097206Y-9172484D01*
X4097206Y-9172484D02*
X4087682Y-9267722D01*
X4087682Y-9267722D02*
X4097206Y-9258198D01*
X4097206Y-9258198D02*
X4116253Y-9248674D01*
X4116253Y-9248674D02*
X4163872Y-9248674D01*
X4163872Y-9248674D02*
X4182920Y-9258198D01*
X4182920Y-9258198D02*
X4192444Y-9267722D01*
X4192444Y-9267722D02*
X4201968Y-9286770D01*
X4201968Y-9286770D02*
X4201968Y-9334389D01*
X4201968Y-9334389D02*
X4192444Y-9353436D01*
X4192444Y-9353436D02*
X4182920Y-9362960D01*
X4182920Y-9362960D02*
X4163872Y-9372484D01*
X4163872Y-9372484D02*
X4116253Y-9372484D01*
X4116253Y-9372484D02*
X4097206Y-9362960D01*
X4097206Y-9362960D02*
X4087682Y-9353436D01*
X4373396Y-9239150D02*
X4373396Y-9372484D01*
X4325777Y-9162960D02*
X4278158Y-9305817D01*
X4278158Y-9305817D02*
X4401968Y-9305817D01*
X4468634Y-9172484D02*
X4468634Y-9210579D01*
X4544825Y-9172484D02*
X4544825Y-9210579D01*
X4840063Y-9448674D02*
X4830539Y-9439150D01*
X4830539Y-9439150D02*
X4811491Y-9410579D01*
X4811491Y-9410579D02*
X4801968Y-9391531D01*
X4801968Y-9391531D02*
X4792444Y-9362960D01*
X4792444Y-9362960D02*
X4782920Y-9315341D01*
X4782920Y-9315341D02*
X4782920Y-9277246D01*
X4782920Y-9277246D02*
X4792444Y-9229627D01*
X4792444Y-9229627D02*
X4801968Y-9201055D01*
X4801968Y-9201055D02*
X4811491Y-9182008D01*
X4811491Y-9182008D02*
X4830539Y-9153436D01*
X4830539Y-9153436D02*
X4840063Y-9143912D01*
X4906730Y-9191531D02*
X4916253Y-9182008D01*
X4916253Y-9182008D02*
X4935301Y-9172484D01*
X4935301Y-9172484D02*
X4982920Y-9172484D01*
X4982920Y-9172484D02*
X5001968Y-9182008D01*
X5001968Y-9182008D02*
X5011491Y-9191531D01*
X5011491Y-9191531D02*
X5021015Y-9210579D01*
X5021015Y-9210579D02*
X5021015Y-9229627D01*
X5021015Y-9229627D02*
X5011491Y-9258198D01*
X5011491Y-9258198D02*
X4897206Y-9372484D01*
X4897206Y-9372484D02*
X5021015Y-9372484D01*
X5259111Y-9372484D02*
X5259111Y-9172484D01*
X5344825Y-9372484D02*
X5344825Y-9267722D01*
X5344825Y-9267722D02*
X5335301Y-9248674D01*
X5335301Y-9248674D02*
X5316253Y-9239150D01*
X5316253Y-9239150D02*
X5287682Y-9239150D01*
X5287682Y-9239150D02*
X5268634Y-9248674D01*
X5268634Y-9248674D02*
X5259111Y-9258198D01*
X5468634Y-9372484D02*
X5449587Y-9362960D01*
X5449587Y-9362960D02*
X5440063Y-9353436D01*
X5440063Y-9353436D02*
X5430539Y-9334389D01*
X5430539Y-9334389D02*
X5430539Y-9277246D01*
X5430539Y-9277246D02*
X5440063Y-9258198D01*
X5440063Y-9258198D02*
X5449587Y-9248674D01*
X5449587Y-9248674D02*
X5468634Y-9239150D01*
X5468634Y-9239150D02*
X5497206Y-9239150D01*
X5497206Y-9239150D02*
X5516253Y-9248674D01*
X5516253Y-9248674D02*
X5525777Y-9258198D01*
X5525777Y-9258198D02*
X5535301Y-9277246D01*
X5535301Y-9277246D02*
X5535301Y-9334389D01*
X5535301Y-9334389D02*
X5525777Y-9353436D01*
X5525777Y-9353436D02*
X5516253Y-9362960D01*
X5516253Y-9362960D02*
X5497206Y-9372484D01*
X5497206Y-9372484D02*
X5468634Y-9372484D01*
X5649587Y-9372484D02*
X5630539Y-9362960D01*
X5630539Y-9362960D02*
X5621015Y-9343912D01*
X5621015Y-9343912D02*
X5621015Y-9172484D01*
X5801968Y-9362960D02*
X5782920Y-9372484D01*
X5782920Y-9372484D02*
X5744825Y-9372484D01*
X5744825Y-9372484D02*
X5725777Y-9362960D01*
X5725777Y-9362960D02*
X5716253Y-9343912D01*
X5716253Y-9343912D02*
X5716253Y-9267722D01*
X5716253Y-9267722D02*
X5725777Y-9248674D01*
X5725777Y-9248674D02*
X5744825Y-9239150D01*
X5744825Y-9239150D02*
X5782920Y-9239150D01*
X5782920Y-9239150D02*
X5801968Y-9248674D01*
X5801968Y-9248674D02*
X5811491Y-9267722D01*
X5811491Y-9267722D02*
X5811491Y-9286770D01*
X5811491Y-9286770D02*
X5716253Y-9305817D01*
X5887682Y-9362960D02*
X5906730Y-9372484D01*
X5906730Y-9372484D02*
X5944825Y-9372484D01*
X5944825Y-9372484D02*
X5963872Y-9362960D01*
X5963872Y-9362960D02*
X5973396Y-9343912D01*
X5973396Y-9343912D02*
X5973396Y-9334389D01*
X5973396Y-9334389D02*
X5963872Y-9315341D01*
X5963872Y-9315341D02*
X5944825Y-9305817D01*
X5944825Y-9305817D02*
X5916253Y-9305817D01*
X5916253Y-9305817D02*
X5897206Y-9296293D01*
X5897206Y-9296293D02*
X5887682Y-9277246D01*
X5887682Y-9277246D02*
X5887682Y-9267722D01*
X5887682Y-9267722D02*
X5897206Y-9248674D01*
X5897206Y-9248674D02*
X5916253Y-9239150D01*
X5916253Y-9239150D02*
X5944825Y-9239150D01*
X5944825Y-9239150D02*
X5963872Y-9248674D01*
X6040063Y-9448674D02*
X6049587Y-9439150D01*
X6049587Y-9439150D02*
X6068634Y-9410579D01*
X6068634Y-9410579D02*
X6078158Y-9391531D01*
X6078158Y-9391531D02*
X6087682Y-9362960D01*
X6087682Y-9362960D02*
X6097206Y-9315341D01*
X6097206Y-9315341D02*
X6097206Y-9277246D01*
X6097206Y-9277246D02*
X6087682Y-9229627D01*
X6087682Y-9229627D02*
X6078158Y-9201055D01*
X6078158Y-9201055D02*
X6068634Y-9182008D01*
X6068634Y-9182008D02*
X6049587Y-9153436D01*
X6049587Y-9153436D02*
X6040063Y-9143912D01*
X6401968Y-9448674D02*
X6392444Y-9439150D01*
X6392444Y-9439150D02*
X6373396Y-9410579D01*
X6373396Y-9410579D02*
X6363872Y-9391531D01*
X6363872Y-9391531D02*
X6354349Y-9362960D01*
X6354349Y-9362960D02*
X6344825Y-9315341D01*
X6344825Y-9315341D02*
X6344825Y-9277246D01*
X6344825Y-9277246D02*
X6354349Y-9229627D01*
X6354349Y-9229627D02*
X6363872Y-9201055D01*
X6363872Y-9201055D02*
X6373396Y-9182008D01*
X6373396Y-9182008D02*
X6392444Y-9153436D01*
X6392444Y-9153436D02*
X6401968Y-9143912D01*
X6478158Y-9239150D02*
X6478158Y-9372484D01*
X6478158Y-9258198D02*
X6487682Y-9248674D01*
X6487682Y-9248674D02*
X6506730Y-9239150D01*
X6506730Y-9239150D02*
X6535301Y-9239150D01*
X6535301Y-9239150D02*
X6554349Y-9248674D01*
X6554349Y-9248674D02*
X6563872Y-9267722D01*
X6563872Y-9267722D02*
X6563872Y-9372484D01*
X6687682Y-9372484D02*
X6668634Y-9362960D01*
X6668634Y-9362960D02*
X6659111Y-9353436D01*
X6659111Y-9353436D02*
X6649587Y-9334389D01*
X6649587Y-9334389D02*
X6649587Y-9277246D01*
X6649587Y-9277246D02*
X6659111Y-9258198D01*
X6659111Y-9258198D02*
X6668634Y-9248674D01*
X6668634Y-9248674D02*
X6687682Y-9239150D01*
X6687682Y-9239150D02*
X6716253Y-9239150D01*
X6716253Y-9239150D02*
X6735301Y-9248674D01*
X6735301Y-9248674D02*
X6744825Y-9258198D01*
X6744825Y-9258198D02*
X6754349Y-9277246D01*
X6754349Y-9277246D02*
X6754349Y-9334389D01*
X6754349Y-9334389D02*
X6744825Y-9353436D01*
X6744825Y-9353436D02*
X6735301Y-9362960D01*
X6735301Y-9362960D02*
X6716253Y-9372484D01*
X6716253Y-9372484D02*
X6687682Y-9372484D01*
X6811492Y-9239150D02*
X6887682Y-9239150D01*
X6840063Y-9172484D02*
X6840063Y-9343912D01*
X6840063Y-9343912D02*
X6849587Y-9362960D01*
X6849587Y-9362960D02*
X6868634Y-9372484D01*
X6868634Y-9372484D02*
X6887682Y-9372484D01*
X7106730Y-9239150D02*
X7106730Y-9439150D01*
X7106730Y-9248674D02*
X7125777Y-9239150D01*
X7125777Y-9239150D02*
X7163873Y-9239150D01*
X7163873Y-9239150D02*
X7182920Y-9248674D01*
X7182920Y-9248674D02*
X7192444Y-9258198D01*
X7192444Y-9258198D02*
X7201968Y-9277246D01*
X7201968Y-9277246D02*
X7201968Y-9334389D01*
X7201968Y-9334389D02*
X7192444Y-9353436D01*
X7192444Y-9353436D02*
X7182920Y-9362960D01*
X7182920Y-9362960D02*
X7163873Y-9372484D01*
X7163873Y-9372484D02*
X7125777Y-9372484D01*
X7125777Y-9372484D02*
X7106730Y-9362960D01*
X7316253Y-9372484D02*
X7297206Y-9362960D01*
X7297206Y-9362960D02*
X7287682Y-9343912D01*
X7287682Y-9343912D02*
X7287682Y-9172484D01*
X7478158Y-9372484D02*
X7478158Y-9267722D01*
X7478158Y-9267722D02*
X7468634Y-9248674D01*
X7468634Y-9248674D02*
X7449587Y-9239150D01*
X7449587Y-9239150D02*
X7411492Y-9239150D01*
X7411492Y-9239150D02*
X7392444Y-9248674D01*
X7478158Y-9362960D02*
X7459111Y-9372484D01*
X7459111Y-9372484D02*
X7411492Y-9372484D01*
X7411492Y-9372484D02*
X7392444Y-9362960D01*
X7392444Y-9362960D02*
X7382920Y-9343912D01*
X7382920Y-9343912D02*
X7382920Y-9324865D01*
X7382920Y-9324865D02*
X7392444Y-9305817D01*
X7392444Y-9305817D02*
X7411492Y-9296293D01*
X7411492Y-9296293D02*
X7459111Y-9296293D01*
X7459111Y-9296293D02*
X7478158Y-9286770D01*
X7544825Y-9239150D02*
X7621015Y-9239150D01*
X7573396Y-9172484D02*
X7573396Y-9343912D01*
X7573396Y-9343912D02*
X7582920Y-9362960D01*
X7582920Y-9362960D02*
X7601968Y-9372484D01*
X7601968Y-9372484D02*
X7621015Y-9372484D01*
X7763873Y-9362960D02*
X7744825Y-9372484D01*
X7744825Y-9372484D02*
X7706730Y-9372484D01*
X7706730Y-9372484D02*
X7687682Y-9362960D01*
X7687682Y-9362960D02*
X7678158Y-9343912D01*
X7678158Y-9343912D02*
X7678158Y-9267722D01*
X7678158Y-9267722D02*
X7687682Y-9248674D01*
X7687682Y-9248674D02*
X7706730Y-9239150D01*
X7706730Y-9239150D02*
X7744825Y-9239150D01*
X7744825Y-9239150D02*
X7763873Y-9248674D01*
X7763873Y-9248674D02*
X7773396Y-9267722D01*
X7773396Y-9267722D02*
X7773396Y-9286770D01*
X7773396Y-9286770D02*
X7678158Y-9305817D01*
X7944825Y-9372484D02*
X7944825Y-9172484D01*
X7944825Y-9362960D02*
X7925777Y-9372484D01*
X7925777Y-9372484D02*
X7887682Y-9372484D01*
X7887682Y-9372484D02*
X7868634Y-9362960D01*
X7868634Y-9362960D02*
X7859111Y-9353436D01*
X7859111Y-9353436D02*
X7849587Y-9334389D01*
X7849587Y-9334389D02*
X7849587Y-9277246D01*
X7849587Y-9277246D02*
X7859111Y-9258198D01*
X7859111Y-9258198D02*
X7868634Y-9248674D01*
X7868634Y-9248674D02*
X7887682Y-9239150D01*
X7887682Y-9239150D02*
X7925777Y-9239150D01*
X7925777Y-9239150D02*
X7944825Y-9248674D01*
X8021015Y-9448674D02*
X8030539Y-9439150D01*
X8030539Y-9439150D02*
X8049587Y-9410579D01*
X8049587Y-9410579D02*
X8059111Y-9391531D01*
X8059111Y-9391531D02*
X8068634Y-9362960D01*
X8068634Y-9362960D02*
X8078158Y-9315341D01*
X8078158Y-9315341D02*
X8078158Y-9277246D01*
X8078158Y-9277246D02*
X8068634Y-9229627D01*
X8068634Y-9229627D02*
X8059111Y-9201055D01*
X8059111Y-9201055D02*
X8049587Y-9182008D01*
X8049587Y-9182008D02*
X8030539Y-9153436D01*
X8030539Y-9153436D02*
X8021015Y-9143912D01*
M02*
